<svg xmlns="http://www.w3.org/2000/svg" xmlns:xlink="http://www.w3.org/1999/xlink" width="192" zoomAndPan="magnify" viewBox="0 0 144 143.999998" height="192" preserveAspectRatio="xMidYMid meet" version="1.0"><defs><clipPath id="d9c534a607"><path d="M 10.582031 39 L 133.582031 39 L 133.582031 95 L 10.582031 95 Z M 10.582031 39 " clip-rule="nonzero"/></clipPath><clipPath id="969155e866"><path d="M 92 78 L 120 78 L 120 106.453125 L 92 106.453125 Z M 92 78 " clip-rule="nonzero"/></clipPath><clipPath id="89f1ed5792"><path d="M 23 78 L 51 78 L 51 106.453125 L 23 106.453125 Z M 23 78 " clip-rule="nonzero"/></clipPath></defs><rect x="-14.4" width="172.8" fill="#ffffff" y="-14.4" height="172.799997" fill-opacity="1"/><rect x="-14.4" width="172.8" fill="#ffffff" y="-14.4" height="172.799997" fill-opacity="1"/><g clip-path="url(#d9c534a607)"><path fill="#2f4a39" d="M 123.550781 61.605469 C 123.550781 61.605469 120.011719 54.386719 113.097656 48.578125 C 109.746094 45.757812 104.753906 43.222656 98.941406 41.863281 C 82.589844 38.03125 61.941406 40.289062 52.90625 43.472656 C 49.058594 44.828125 32.285156 61.652344 32.285156 61.652344 C 18.746094 63.816406 10.582031 67.074219 10.582031 74.875 L 10.582031 88.070312 C 10.582031 91.457031 13.320312 94.191406 16.699219 94.191406 L 18.875 94.191406 C 18.816406 93.636719 18.796875 93.070312 18.796875 92.496094 C 18.796875 82.574219 26.839844 74.535156 36.769531 74.535156 C 46.691406 74.535156 54.738281 82.574219 54.738281 92.496094 C 54.738281 93.070312 54.707031 93.636719 54.652344 94.191406 L 87.753906 94.191406 C 87.707031 93.636719 87.671875 93.070312 87.671875 92.496094 C 87.671875 82.574219 95.722656 74.535156 105.644531 74.535156 C 115.566406 74.535156 123.617188 82.574219 123.617188 92.496094 C 123.617188 93.070312 123.582031 93.636719 123.535156 94.191406 L 126.347656 94.191406 C 130.261719 94.191406 133.421875 91.03125 133.421875 87.117188 L 133.421875 70.964844 C 133.417969 67.058594 129.296875 63.082031 123.550781 61.605469 Z M 41.78125 62.511719 L 55.035156 50.117188 C 57.242188 48.203125 65.199219 46.4375 77.808594 46.4375 L 77.820312 62.511719 Z M 84.804688 62.511719 L 84.804688 46.582031 C 95.378906 46.605469 110.585938 51.152344 115.144531 62.511719 Z M 84.804688 62.511719 " fill-opacity="1" fill-rule="nonzero"/></g><g clip-path="url(#969155e866)"><path fill="#2f4a39" d="M 105.644531 78.933594 C 98.144531 78.933594 92.085938 85.007812 92.085938 92.496094 C 92.085938 99.984375 98.144531 106.066406 105.644531 106.066406 C 113.132812 106.066406 119.203125 99.984375 119.203125 92.496094 C 119.203125 85.007812 113.132812 78.933594 105.644531 78.933594 Z M 105.644531 99.957031 C 101.523438 99.957031 98.191406 96.625 98.191406 92.5 C 98.191406 88.375 101.523438 85.039062 105.644531 85.039062 C 109.761719 85.039062 113.097656 88.375 113.097656 92.5 C 113.097656 96.625 109.761719 99.957031 105.644531 99.957031 Z M 105.644531 99.957031 " fill-opacity="1" fill-rule="nonzero"/></g><g clip-path="url(#89f1ed5792)"><path fill="#2f4a39" d="M 36.769531 78.933594 C 29.277344 78.933594 23.207031 85.007812 23.207031 92.496094 C 23.207031 99.984375 29.277344 106.066406 36.769531 106.066406 C 44.257812 106.066406 50.324219 99.984375 50.324219 92.496094 C 50.324219 85.007812 44.257812 78.933594 36.769531 78.933594 Z M 36.769531 99.957031 C 32.644531 99.957031 29.308594 96.625 29.308594 92.5 C 29.308594 88.375 32.644531 85.039062 36.769531 85.039062 C 40.882812 85.039062 44.230469 88.375 44.230469 92.5 C 44.234375 96.625 40.886719 99.957031 36.769531 99.957031 Z M 36.769531 99.957031 " fill-opacity="1" fill-rule="nonzero"/></g></svg>