<svg xmlns="http://www.w3.org/2000/svg" xmlns:xlink="http://www.w3.org/1999/xlink" width="192" zoomAndPan="magnify" viewBox="0 0 144 143.999998" height="192" preserveAspectRatio="xMidYMid meet" version="1.0"><defs><g/><clipPath id="a266880473"><path d="M 11.363281 71 L 97 71 L 97 132.863281 L 11.363281 132.863281 Z M 11.363281 71 " clip-rule="nonzero"/></clipPath><clipPath id="a952835735"><path d="M 84 35 L 132.863281 35 L 132.863281 85 L 84 85 Z M 84 35 " clip-rule="nonzero"/></clipPath><clipPath id="a36baaff29"><path d="M 29 11.363281 L 79 11.363281 L 79 66 L 29 66 Z M 29 11.363281 " clip-rule="nonzero"/></clipPath></defs><g clip-path="url(#a266880473)"><path fill="#2f4a39" d="M 53.808594 71.996094 C 52.417969 72 51.03125 72.066406 49.648438 72.207031 C 48.265625 72.34375 46.894531 72.546875 45.53125 72.820312 C 44.167969 73.09375 42.820312 73.429688 41.492188 73.835938 C 40.164062 74.238281 38.855469 74.707031 37.574219 75.242188 C 36.289062 75.773438 35.035156 76.367188 33.808594 77.023438 C 32.582031 77.679688 31.394531 78.390625 30.238281 79.164062 C 29.082031 79.9375 27.96875 80.765625 26.894531 81.644531 C 25.820312 82.527344 24.792969 83.460938 23.808594 84.441406 C 22.828125 85.425781 21.894531 86.453125 21.011719 87.527344 C 20.132812 88.601562 19.304688 89.714844 18.53125 90.871094 C 17.757812 92.027344 17.046875 93.214844 16.390625 94.441406 C 15.734375 95.667969 15.140625 96.921875 14.609375 98.207031 C 14.074219 99.488281 13.605469 100.796875 13.203125 102.125 C 12.796875 103.453125 12.460938 104.800781 12.1875 106.164062 C 11.914062 107.527344 11.710938 108.898438 11.574219 110.28125 C 11.433594 111.664062 11.367188 113.050781 11.363281 114.441406 L 11.363281 126.566406 C 11.363281 126.964844 11.402344 127.359375 11.480469 127.75 C 11.558594 128.140625 11.671875 128.519531 11.824219 128.886719 C 11.976562 129.253906 12.164062 129.605469 12.386719 129.933594 C 12.605469 130.265625 12.859375 130.574219 13.140625 130.855469 C 13.421875 131.136719 13.726562 131.386719 14.058594 131.609375 C 14.390625 131.828125 14.738281 132.015625 15.105469 132.167969 C 15.476562 132.320312 15.855469 132.4375 16.246094 132.511719 C 16.636719 132.589844 17.027344 132.628906 17.425781 132.628906 L 90.1875 132.628906 C 90.585938 132.628906 90.980469 132.589844 91.371094 132.511719 C 91.761719 132.4375 92.140625 132.320312 92.507812 132.167969 C 92.875 132.015625 93.222656 131.828125 93.554688 131.609375 C 93.886719 131.386719 94.191406 131.136719 94.472656 130.855469 C 94.753906 130.574219 95.007812 130.265625 95.226562 129.933594 C 95.449219 129.605469 95.636719 129.253906 95.789062 128.886719 C 95.941406 128.519531 96.054688 128.140625 96.132812 127.75 C 96.210938 127.359375 96.25 126.964844 96.25 126.566406 L 96.25 114.441406 C 96.25 113.050781 96.179688 111.664062 96.042969 110.28125 C 95.902344 108.898438 95.699219 107.527344 95.425781 106.164062 C 95.152344 104.800781 94.816406 103.453125 94.410156 102.125 C 94.007812 100.796875 93.539062 99.488281 93.007812 98.207031 C 92.472656 96.921875 91.878906 95.667969 91.222656 94.441406 C 90.570312 93.214844 89.855469 92.027344 89.082031 90.871094 C 88.308594 89.714844 87.484375 88.601562 86.601562 87.527344 C 85.71875 86.453125 84.789062 85.425781 83.804688 84.441406 C 82.820312 83.460938 81.792969 82.527344 80.71875 81.644531 C 79.644531 80.765625 78.53125 79.9375 77.375 79.164062 C 76.21875 78.390625 75.03125 77.679688 73.804688 77.023438 C 72.578125 76.367188 71.324219 75.773438 70.042969 75.242188 C 68.757812 74.707031 67.453125 74.238281 66.121094 73.835938 C 64.792969 73.429688 63.445312 73.09375 62.082031 72.820312 C 60.722656 72.546875 59.347656 72.34375 57.964844 72.207031 C 56.582031 72.066406 55.195312 72 53.808594 71.996094 Z M 53.808594 71.996094 " fill-opacity="1" fill-rule="nonzero"/></g><g clip-path="url(#a952835735)"><path fill="#2f4a39" d="M 126.566406 53.808594 L 114.441406 53.808594 L 114.441406 41.679688 C 114.441406 41.28125 114.402344 40.886719 114.324219 40.496094 C 114.246094 40.105469 114.128906 39.726562 113.976562 39.359375 C 113.824219 38.992188 113.640625 38.644531 113.417969 38.3125 C 113.195312 37.980469 112.945312 37.675781 112.664062 37.394531 C 112.382812 37.113281 112.078125 36.859375 111.746094 36.640625 C 111.414062 36.417969 111.066406 36.230469 110.695312 36.078125 C 110.328125 35.925781 109.949219 35.8125 109.558594 35.734375 C 109.167969 35.65625 108.773438 35.617188 108.375 35.617188 C 107.976562 35.617188 107.585938 35.65625 107.195312 35.734375 C 106.804688 35.8125 106.425781 35.925781 106.054688 36.078125 C 105.6875 36.230469 105.339844 36.417969 105.007812 36.640625 C 104.675781 36.859375 104.371094 37.113281 104.089844 37.394531 C 103.808594 37.675781 103.554688 37.980469 103.335938 38.3125 C 103.113281 38.644531 102.925781 38.992188 102.773438 39.359375 C 102.621094 39.726562 102.507812 40.105469 102.429688 40.496094 C 102.351562 40.886719 102.3125 41.28125 102.3125 41.679688 L 102.3125 53.808594 L 90.1875 53.808594 C 89.789062 53.808594 89.394531 53.847656 89.003906 53.921875 C 88.613281 54 88.234375 54.117188 87.867188 54.269531 C 87.5 54.421875 87.148438 54.609375 86.816406 54.828125 C 86.488281 55.050781 86.179688 55.300781 85.898438 55.582031 C 85.617188 55.863281 85.367188 56.171875 85.144531 56.5 C 84.925781 56.832031 84.738281 57.183594 84.585938 57.550781 C 84.433594 57.917969 84.316406 58.296875 84.238281 58.6875 C 84.164062 59.078125 84.125 59.472656 84.125 59.871094 C 84.125 60.269531 84.164062 60.664062 84.238281 61.054688 C 84.316406 61.445312 84.433594 61.824219 84.585938 62.191406 C 84.738281 62.558594 84.925781 62.90625 85.144531 63.238281 C 85.367188 63.570312 85.617188 63.875 85.898438 64.15625 C 86.179688 64.4375 86.488281 64.691406 86.816406 64.910156 C 87.148438 65.132812 87.5 65.320312 87.867188 65.472656 C 88.234375 65.625 88.613281 65.738281 89.003906 65.816406 C 89.394531 65.894531 89.789062 65.933594 90.1875 65.933594 L 102.3125 65.933594 L 102.3125 78.058594 C 102.3125 78.457031 102.351562 78.851562 102.429688 79.242188 C 102.507812 79.632812 102.621094 80.011719 102.773438 80.378906 C 102.925781 80.75 103.113281 81.097656 103.335938 81.429688 C 103.554688 81.761719 103.808594 82.066406 104.089844 82.347656 C 104.371094 82.628906 104.675781 82.878906 105.007812 83.101562 C 105.339844 83.324219 105.6875 83.507812 106.054688 83.660156 C 106.425781 83.8125 106.804688 83.929688 107.195312 84.007812 C 107.585938 84.085938 107.976562 84.125 108.375 84.125 C 108.773438 84.125 109.167969 84.085938 109.558594 84.007812 C 109.949219 83.929688 110.328125 83.8125 110.695312 83.660156 C 111.066406 83.507812 111.414062 83.324219 111.746094 83.101562 C 112.078125 82.878906 112.382812 82.628906 112.664062 82.347656 C 112.945312 82.066406 113.195312 81.761719 113.417969 81.429688 C 113.640625 81.097656 113.824219 80.75 113.976562 80.378906 C 114.128906 80.011719 114.246094 79.632812 114.324219 79.242188 C 114.402344 78.851562 114.441406 78.457031 114.441406 78.058594 L 114.441406 65.933594 L 126.566406 65.933594 C 126.964844 65.933594 127.359375 65.894531 127.75 65.816406 C 128.140625 65.738281 128.519531 65.625 128.886719 65.472656 C 129.253906 65.320312 129.605469 65.132812 129.933594 64.910156 C 130.265625 64.691406 130.574219 64.4375 130.855469 64.15625 C 131.136719 63.875 131.386719 63.570312 131.609375 63.238281 C 131.828125 62.90625 132.015625 62.558594 132.167969 62.191406 C 132.320312 61.824219 132.4375 61.445312 132.511719 61.054688 C 132.589844 60.664062 132.628906 60.269531 132.628906 59.871094 C 132.628906 59.472656 132.589844 59.078125 132.511719 58.6875 C 132.4375 58.296875 132.320312 57.917969 132.167969 57.550781 C 132.015625 57.183594 131.828125 56.832031 131.609375 56.5 C 131.386719 56.171875 131.136719 55.863281 130.855469 55.582031 C 130.574219 55.300781 130.265625 55.050781 129.933594 54.828125 C 129.605469 54.609375 129.253906 54.421875 128.886719 54.269531 C 128.519531 54.117188 128.140625 54 127.75 53.921875 C 127.359375 53.847656 126.964844 53.808594 126.566406 53.808594 Z M 126.566406 53.808594 " fill-opacity="1" fill-rule="nonzero"/></g><g clip-path="url(#a36baaff29)"><path fill="#2f4a39" d="M 53.808594 65.933594 C 54.601562 65.933594 55.394531 65.894531 56.183594 65.816406 C 56.976562 65.738281 57.757812 65.621094 58.539062 65.46875 C 59.316406 65.3125 60.085938 65.121094 60.847656 64.890625 C 61.609375 64.660156 62.355469 64.390625 63.089844 64.085938 C 63.820312 63.785156 64.539062 63.445312 65.238281 63.070312 C 65.941406 62.695312 66.621094 62.289062 67.28125 61.847656 C 67.941406 61.40625 68.578125 60.933594 69.191406 60.429688 C 69.808594 59.925781 70.394531 59.390625 70.957031 58.828125 C 71.519531 58.269531 72.050781 57.679688 72.554688 57.066406 C 73.058594 56.453125 73.53125 55.816406 73.972656 55.15625 C 74.414062 54.496094 74.820312 53.8125 75.195312 53.113281 C 75.570312 52.414062 75.910156 51.695312 76.214844 50.960938 C 76.519531 50.226562 76.785156 49.480469 77.015625 48.722656 C 77.246094 47.960938 77.4375 47.191406 77.59375 46.410156 C 77.75 45.632812 77.867188 44.847656 77.945312 44.058594 C 78.019531 43.265625 78.058594 42.476562 78.058594 41.679688 L 78.058594 35.617188 C 78.058594 34.824219 78.019531 34.03125 77.945312 33.238281 C 77.867188 32.449219 77.75 31.664062 77.59375 30.886719 C 77.4375 30.105469 77.246094 29.335938 77.015625 28.578125 C 76.785156 27.816406 76.519531 27.070312 76.214844 26.335938 C 75.910156 25.601562 75.570312 24.886719 75.195312 24.183594 C 74.820312 23.484375 74.414062 22.804688 73.972656 22.144531 C 73.53125 21.484375 73.058594 20.84375 72.554688 20.230469 C 72.050781 19.617188 71.519531 19.03125 70.957031 18.46875 C 70.394531 17.90625 69.808594 17.375 69.191406 16.871094 C 68.578125 16.367188 67.941406 15.894531 67.28125 15.453125 C 66.621094 15.011719 65.941406 14.601562 65.238281 14.226562 C 64.539062 13.851562 63.820312 13.515625 63.089844 13.210938 C 62.355469 12.90625 61.609375 12.640625 60.847656 12.410156 C 60.085938 12.179688 59.316406 11.984375 58.539062 11.832031 C 57.757812 11.675781 56.976562 11.558594 56.183594 11.480469 C 55.394531 11.402344 54.601562 11.363281 53.808594 11.363281 C 53.011719 11.363281 52.21875 11.402344 51.429688 11.480469 C 50.640625 11.558594 49.855469 11.675781 49.074219 11.832031 C 48.296875 11.984375 47.527344 12.179688 46.765625 12.410156 C 46.007812 12.640625 45.257812 12.90625 44.527344 13.210938 C 43.792969 13.515625 43.074219 13.851562 42.375 14.226562 C 41.671875 14.601562 40.992188 15.011719 40.332031 15.453125 C 39.671875 15.894531 39.035156 16.367188 38.421875 16.871094 C 37.808594 17.375 37.21875 17.90625 36.65625 18.46875 C 36.097656 19.03125 35.5625 19.617188 35.058594 20.230469 C 34.554688 20.84375 34.082031 21.484375 33.640625 22.144531 C 33.199219 22.804688 32.792969 23.484375 32.417969 24.183594 C 32.042969 24.886719 31.703125 25.601562 31.398438 26.335938 C 31.097656 27.070312 30.828125 27.816406 30.597656 28.578125 C 30.367188 29.335938 30.175781 30.105469 30.019531 30.886719 C 29.863281 31.664062 29.75 32.449219 29.671875 33.238281 C 29.59375 34.03125 29.554688 34.824219 29.554688 35.617188 L 29.554688 41.679688 C 29.554688 42.476562 29.59375 43.265625 29.671875 44.058594 C 29.75 44.847656 29.863281 45.632812 30.019531 46.410156 C 30.175781 47.191406 30.367188 47.960938 30.597656 48.722656 C 30.828125 49.480469 31.097656 50.226562 31.398438 50.960938 C 31.703125 51.695312 32.042969 52.414062 32.417969 53.113281 C 32.792969 53.8125 33.199219 54.496094 33.640625 55.15625 C 34.082031 55.816406 34.554688 56.453125 35.058594 57.066406 C 35.5625 57.679688 36.097656 58.269531 36.65625 58.828125 C 37.21875 59.390625 37.808594 59.925781 38.421875 60.429688 C 39.035156 60.933594 39.671875 61.40625 40.332031 61.847656 C 40.992188 62.289062 41.671875 62.695312 42.375 63.070312 C 43.074219 63.445312 43.792969 63.785156 44.527344 64.085938 C 45.257812 64.390625 46.007812 64.660156 46.765625 64.890625 C 47.527344 65.121094 48.296875 65.3125 49.074219 65.46875 C 49.855469 65.621094 50.640625 65.738281 51.429688 65.816406 C 52.21875 65.894531 53.011719 65.933594 53.808594 65.933594 Z M 53.808594 65.933594 " fill-opacity="1" fill-rule="nonzero"/></g><g fill="#2f4a39" fill-opacity="1"><g transform="translate(55.20703, 107.105768)"><g><path d="M 0.78125 0.03125 C 0.675781 0.03125 0.585938 0 0.515625 -0.0625 C 0.453125 -0.125 0.421875 -0.207031 0.421875 -0.3125 C 0.421875 -0.414062 0.453125 -0.5 0.515625 -0.5625 C 0.585938 -0.625 0.675781 -0.65625 0.78125 -0.65625 C 0.894531 -0.65625 0.984375 -0.625 1.046875 -0.5625 C 1.117188 -0.5 1.15625 -0.414062 1.15625 -0.3125 C 1.15625 -0.21875 1.117188 -0.132812 1.046875 -0.0625 C 0.984375 0 0.894531 0.03125 0.78125 0.03125 Z M 0.78125 0.03125 "/></g></g></g></svg>