<svg xmlns="http://www.w3.org/2000/svg" xmlns:xlink="http://www.w3.org/1999/xlink" width="48" zoomAndPan="magnify" viewBox="0 0 36 36.000001" height="48" preserveAspectRatio="xMidYMid meet" version="1.0"><defs><g/><clipPath id="eb92d02e48"><path d="M 15 5.1875 L 26 5.1875 L 26 26 L 15 26 Z M 15 5.1875 " clip-rule="nonzero"/></clipPath><clipPath id="2fcaf09863"><path d="M 7.828125 9 L 26 9 L 26 26 L 7.828125 26 Z M 7.828125 9 " clip-rule="nonzero"/></clipPath><clipPath id="1c1a71872c"><path d="M 13 23 L 26 23 L 26 29.996094 L 13 29.996094 Z M 13 23 " clip-rule="nonzero"/></clipPath><clipPath id="176f1a56e5"><path d="M 22 12 L 28.261719 12 L 28.261719 26 L 22 26 Z M 22 12 " clip-rule="nonzero"/></clipPath><clipPath id="bd9d683561"><path d="M 21 33 L 26 33 L 26 35.027344 L 21 35.027344 Z M 21 33 " clip-rule="nonzero"/></clipPath><clipPath id="1332617ccc"><path d="M 26 34 L 30 34 L 30 35.027344 L 26 35.027344 Z M 26 34 " clip-rule="nonzero"/></clipPath></defs><g clip-path="url(#eb92d02e48)"><path fill="#df5745" d="M 25.300781 7.285156 C 25.300781 7.285156 21.113281 13.171875 21.171875 17.097656 C 21.238281 21.371094 25.753906 25.464844 25.753906 25.464844 C 25.753906 25.464844 21.8125 24.601562 18.292969 18.652344 C 14.773438 12.703125 16.207031 5.195312 16.207031 5.195312 C 16.207031 5.195312 16.4375 10.886719 19.777344 10.972656 C 22.324219 11.039062 22.761719 9.707031 25.300781 7.285156 " fill-opacity="1" fill-rule="nonzero"/></g><path fill="#df5745" d="M 21.71875 9.136719 C 21.554688 10.109375 20.628906 10.765625 19.65625 10.601562 C 18.679688 10.4375 18.023438 9.515625 18.1875 8.539062 C 18.351562 7.5625 19.277344 6.90625 20.25 7.070312 C 21.226562 7.234375 21.882812 8.160156 21.71875 9.136719 " fill-opacity="1" fill-rule="nonzero"/><g clip-path="url(#2fcaf09863)"><path fill="#85dbd9" d="M 16.839844 9.660156 C 16.839844 9.660156 15.910156 16.824219 17.804688 20.261719 C 19.871094 24.003906 25.78125 25.496094 25.78125 25.496094 C 25.78125 25.496094 21.894531 26.582031 15.992188 22.984375 C 10.09375 19.386719 7.832031 12.085938 7.832031 12.085938 C 7.832031 12.085938 10.710938 17 13.695312 15.507812 C 15.976562 14.367188 15.738281 12.988281 16.839844 9.660156 " fill-opacity="1" fill-rule="nonzero"/></g><path fill="#85dbd9" d="M 14.546875 12.972656 C 14.859375 13.910156 14.351562 14.925781 13.414062 15.238281 C 12.476562 15.550781 11.460938 15.042969 11.148438 14.105469 C 10.835938 13.167969 11.34375 12.152344 12.285156 11.839844 C 13.222656 11.527344 14.234375 12.035156 14.546875 12.972656 " fill-opacity="1" fill-rule="nonzero"/><g clip-path="url(#1c1a71872c)"><path fill="#9dcd5a" d="M 15.535156 23.1875 C 15.535156 23.1875 18.242188 26.34375 20.441406 26.859375 C 22.839844 27.417969 25.753906 25.464844 25.753906 25.464844 C 25.753906 25.464844 24.722656 27.546875 20.910156 28.683594 C 17.097656 29.820312 13.101562 27.972656 13.101562 27.972656 C 13.101562 27.972656 16.3125 28.636719 16.828125 26.785156 C 17.21875 25.371094 16.535156 24.941406 15.535156 23.1875 " fill-opacity="1" fill-rule="nonzero"/></g><path fill="#9dcd5a" d="M 16.070312 25.445312 C 16.59375 25.671875 16.832031 26.28125 16.601562 26.800781 C 16.375 27.324219 15.765625 27.5625 15.242188 27.332031 C 14.722656 27.105469 14.484375 26.496094 14.714844 25.976562 C 14.941406 25.453125 15.546875 25.214844 16.070312 25.445312 " fill-opacity="1" fill-rule="nonzero"/><g clip-path="url(#176f1a56e5)"><path fill="#f8a21c" d="M 28.164062 15.285156 C 28.164062 15.285156 24.957031 17.9375 24.40625 20.128906 C 23.808594 22.515625 25.710938 25.464844 25.710938 25.464844 C 25.710938 25.464844 23.648438 24.398438 22.574219 20.566406 C 21.503906 16.734375 23.417969 12.769531 23.417969 12.769531 C 23.417969 12.769531 22.699219 15.96875 24.542969 16.515625 C 25.949219 16.929688 26.390625 16.253906 28.164062 15.285156 " fill-opacity="1" fill-rule="nonzero"/></g><path fill="#f8a21c" d="M 25.894531 15.78125 C 25.660156 16.300781 25.046875 16.527344 24.53125 16.289062 C 24.011719 16.054688 23.785156 15.441406 24.019531 14.921875 C 24.257812 14.40625 24.871094 14.179688 25.386719 14.414062 C 25.90625 14.652344 26.132812 15.261719 25.894531 15.78125 " fill-opacity="1" fill-rule="nonzero"/><g fill="#ffffff" fill-opacity="1"><g transform="translate(17.493873, 32.789192)"><g><path d="M 1.25 0 L 1.078125 0 L 0.953125 -0.375 L 0.359375 -0.375 L 0.234375 0 L 0.0625 0 L 0.546875 -1.390625 L 0.765625 -1.390625 Z M 0.640625 -1.21875 L 0.40625 -0.515625 L 0.90625 -0.515625 L 0.671875 -1.21875 Z M 0.640625 -1.21875 "/></g></g><g transform="translate(18.799407, 32.789192)"><g><path d="M 0.546875 0.015625 C 0.460938 0.015625 0.382812 0 0.3125 -0.03125 C 0.25 -0.0703125 0.195312 -0.132812 0.15625 -0.21875 C 0.125 -0.300781 0.109375 -0.40625 0.109375 -0.53125 C 0.109375 -0.644531 0.128906 -0.742188 0.171875 -0.828125 C 0.210938 -0.910156 0.265625 -0.972656 0.328125 -1.015625 C 0.398438 -1.054688 0.476562 -1.078125 0.5625 -1.078125 C 0.632812 -1.078125 0.695312 -1.0625 0.75 -1.03125 C 0.8125 -1.007812 0.859375 -0.96875 0.890625 -0.90625 L 0.921875 -0.90625 L 0.921875 -1.46875 L 1.078125 -1.46875 L 1.078125 0 L 0.921875 0 L 0.921875 -0.15625 L 0.890625 -0.15625 C 0.859375 -0.101562 0.8125 -0.0625 0.75 -0.03125 C 0.695312 0 0.628906 0.015625 0.546875 0.015625 Z M 0.59375 -0.125 C 0.6875 -0.125 0.765625 -0.15625 0.828125 -0.21875 C 0.890625 -0.289062 0.921875 -0.394531 0.921875 -0.53125 C 0.921875 -0.664062 0.890625 -0.765625 0.828125 -0.828125 C 0.765625 -0.898438 0.6875 -0.9375 0.59375 -0.9375 C 0.488281 -0.9375 0.410156 -0.898438 0.359375 -0.828125 C 0.304688 -0.765625 0.28125 -0.664062 0.28125 -0.53125 C 0.28125 -0.257812 0.382812 -0.125 0.59375 -0.125 Z M 0.59375 -0.125 "/></g></g><g transform="translate(20.050781, 32.789192)"><g><path d="M 0.546875 0.015625 C 0.460938 0.015625 0.382812 0 0.3125 -0.03125 C 0.25 -0.0703125 0.195312 -0.132812 0.15625 -0.21875 C 0.125 -0.300781 0.109375 -0.40625 0.109375 -0.53125 C 0.109375 -0.644531 0.128906 -0.742188 0.171875 -0.828125 C 0.210938 -0.910156 0.265625 -0.972656 0.328125 -1.015625 C 0.398438 -1.054688 0.476562 -1.078125 0.5625 -1.078125 C 0.632812 -1.078125 0.695312 -1.0625 0.75 -1.03125 C 0.8125 -1.007812 0.859375 -0.96875 0.890625 -0.90625 L 0.921875 -0.90625 L 0.921875 -1.46875 L 1.078125 -1.46875 L 1.078125 0 L 0.921875 0 L 0.921875 -0.15625 L 0.890625 -0.15625 C 0.859375 -0.101562 0.8125 -0.0625 0.75 -0.03125 C 0.695312 0 0.628906 0.015625 0.546875 0.015625 Z M 0.59375 -0.125 C 0.6875 -0.125 0.765625 -0.15625 0.828125 -0.21875 C 0.890625 -0.289062 0.921875 -0.394531 0.921875 -0.53125 C 0.921875 -0.664062 0.890625 -0.765625 0.828125 -0.828125 C 0.765625 -0.898438 0.6875 -0.9375 0.59375 -0.9375 C 0.488281 -0.9375 0.410156 -0.898438 0.359375 -0.828125 C 0.304688 -0.765625 0.28125 -0.664062 0.28125 -0.53125 C 0.28125 -0.257812 0.382812 -0.125 0.59375 -0.125 Z M 0.59375 -0.125 "/></g></g><g transform="translate(21.302155, 32.789192)"><g/></g><g transform="translate(21.77914, 32.789192)"><g><path d="M 0.4375 0.015625 C 0.332031 0.015625 0.25 -0.0078125 0.1875 -0.0625 C 0.132812 -0.113281 0.109375 -0.191406 0.109375 -0.296875 C 0.109375 -0.359375 0.117188 -0.410156 0.140625 -0.453125 C 0.171875 -0.492188 0.210938 -0.523438 0.265625 -0.546875 C 0.316406 -0.578125 0.382812 -0.601562 0.46875 -0.625 C 0.550781 -0.632812 0.609375 -0.644531 0.640625 -0.65625 C 0.679688 -0.675781 0.707031 -0.695312 0.71875 -0.71875 C 0.738281 -0.738281 0.75 -0.757812 0.75 -0.78125 C 0.75 -0.832031 0.734375 -0.867188 0.703125 -0.890625 C 0.671875 -0.921875 0.617188 -0.9375 0.546875 -0.9375 C 0.472656 -0.9375 0.410156 -0.921875 0.359375 -0.890625 C 0.316406 -0.867188 0.273438 -0.832031 0.234375 -0.78125 L 0.21875 -0.78125 L 0.140625 -0.890625 C 0.179688 -0.941406 0.234375 -0.984375 0.296875 -1.015625 C 0.367188 -1.054688 0.453125 -1.078125 0.546875 -1.078125 C 0.671875 -1.078125 0.757812 -1.046875 0.8125 -0.984375 C 0.875 -0.929688 0.90625 -0.859375 0.90625 -0.765625 L 0.90625 -0.203125 C 0.90625 -0.148438 0.929688 -0.125 0.984375 -0.125 C 0.992188 -0.125 1.007812 -0.125 1.03125 -0.125 L 1.046875 -0.125 L 1.0625 -0.015625 C 1.050781 -0.00390625 1.035156 0 1.015625 0 C 0.992188 0 0.972656 0 0.953125 0 C 0.898438 0 0.859375 -0.0078125 0.828125 -0.03125 C 0.796875 -0.0507812 0.773438 -0.0859375 0.765625 -0.140625 L 0.75 -0.140625 C 0.71875 -0.0859375 0.675781 -0.046875 0.625 -0.015625 C 0.570312 0.00390625 0.507812 0.015625 0.4375 0.015625 Z M 0.46875 -0.109375 C 0.53125 -0.109375 0.582031 -0.117188 0.625 -0.140625 C 0.664062 -0.171875 0.695312 -0.207031 0.71875 -0.25 C 0.738281 -0.300781 0.75 -0.359375 0.75 -0.421875 L 0.75 -0.5625 L 0.734375 -0.5625 C 0.710938 -0.550781 0.679688 -0.535156 0.640625 -0.515625 C 0.609375 -0.503906 0.566406 -0.5 0.515625 -0.5 C 0.453125 -0.488281 0.398438 -0.472656 0.359375 -0.453125 C 0.328125 -0.441406 0.300781 -0.421875 0.28125 -0.390625 C 0.269531 -0.359375 0.265625 -0.328125 0.265625 -0.296875 C 0.265625 -0.234375 0.28125 -0.1875 0.3125 -0.15625 C 0.351562 -0.125 0.40625 -0.109375 0.46875 -0.109375 Z M 0.46875 -0.109375 "/></g></g><g transform="translate(22.863285, 32.789192)"><g/></g><g transform="translate(23.34027, 32.789192)"><g><path d="M 0.421875 0.015625 C 0.347656 0.015625 0.285156 -0.00390625 0.234375 -0.046875 C 0.191406 -0.0859375 0.171875 -0.148438 0.171875 -0.234375 L 0.171875 -1.46875 L 0.328125 -1.46875 L 0.328125 -0.25 C 0.328125 -0.195312 0.335938 -0.160156 0.359375 -0.140625 C 0.378906 -0.128906 0.40625 -0.125 0.4375 -0.125 C 0.457031 -0.125 0.476562 -0.125 0.5 -0.125 L 0.515625 -0.125 L 0.53125 0 C 0.519531 0 0.503906 0 0.484375 0 C 0.460938 0.0078125 0.441406 0.015625 0.421875 0.015625 Z M 0.421875 0.015625 "/></g></g><g transform="translate(23.910372, 32.789192)"><g><path d="M 0.265625 -1.25 C 0.234375 -1.25 0.207031 -1.257812 0.1875 -1.28125 C 0.164062 -1.300781 0.15625 -1.328125 0.15625 -1.359375 C 0.15625 -1.390625 0.164062 -1.414062 0.1875 -1.4375 C 0.207031 -1.457031 0.234375 -1.46875 0.265625 -1.46875 C 0.296875 -1.46875 0.320312 -1.457031 0.34375 -1.4375 C 0.363281 -1.414062 0.375 -1.390625 0.375 -1.359375 C 0.375 -1.328125 0.363281 -1.300781 0.34375 -1.28125 C 0.320312 -1.257812 0.296875 -1.25 0.265625 -1.25 Z M 0.1875 0 L 0.1875 -1.046875 L 0.34375 -1.046875 L 0.34375 0 Z M 0.1875 0 "/></g></g><g transform="translate(24.430115, 32.789192)"><g><path d="M 0.71875 -0.171875 L 0.765625 -0.0625 C 0.734375 -0.03125 0.695312 -0.0078125 0.65625 0 C 0.625 0.0078125 0.582031 0.015625 0.53125 0.015625 C 0.332031 0.015625 0.234375 -0.0820312 0.234375 -0.28125 L 0.234375 -0.921875 L 0.046875 -0.921875 L 0.046875 -1.046875 L 0.234375 -1.046875 L 0.234375 -1.28125 L 0.390625 -1.296875 L 0.390625 -1.046875 L 0.71875 -1.046875 L 0.71875 -0.921875 L 0.390625 -0.921875 L 0.390625 -0.296875 C 0.390625 -0.179688 0.441406 -0.125 0.546875 -0.125 C 0.597656 -0.125 0.644531 -0.140625 0.6875 -0.171875 Z M 0.71875 -0.171875 "/></g></g><g transform="translate(25.228258, 32.789192)"><g><path d="M 0.71875 -0.171875 L 0.765625 -0.0625 C 0.734375 -0.03125 0.695312 -0.0078125 0.65625 0 C 0.625 0.0078125 0.582031 0.015625 0.53125 0.015625 C 0.332031 0.015625 0.234375 -0.0820312 0.234375 -0.28125 L 0.234375 -0.921875 L 0.046875 -0.921875 L 0.046875 -1.046875 L 0.234375 -1.046875 L 0.234375 -1.28125 L 0.390625 -1.296875 L 0.390625 -1.046875 L 0.71875 -1.046875 L 0.71875 -0.921875 L 0.390625 -0.921875 L 0.390625 -0.296875 C 0.390625 -0.179688 0.441406 -0.125 0.546875 -0.125 C 0.597656 -0.125 0.644531 -0.140625 0.6875 -0.171875 Z M 0.71875 -0.171875 "/></g></g><g transform="translate(26.026401, 32.789192)"><g><path d="M 0.421875 0.015625 C 0.347656 0.015625 0.285156 -0.00390625 0.234375 -0.046875 C 0.191406 -0.0859375 0.171875 -0.148438 0.171875 -0.234375 L 0.171875 -1.46875 L 0.328125 -1.46875 L 0.328125 -0.25 C 0.328125 -0.195312 0.335938 -0.160156 0.359375 -0.140625 C 0.378906 -0.128906 0.40625 -0.125 0.4375 -0.125 C 0.457031 -0.125 0.476562 -0.125 0.5 -0.125 L 0.515625 -0.125 L 0.53125 0 C 0.519531 0 0.503906 0 0.484375 0 C 0.460938 0.0078125 0.441406 0.015625 0.421875 0.015625 Z M 0.421875 0.015625 "/></g></g><g transform="translate(26.596503, 32.789192)"><g><path d="M 1 -0.484375 L 0.28125 -0.484375 C 0.28125 -0.359375 0.304688 -0.265625 0.359375 -0.203125 C 0.421875 -0.148438 0.503906 -0.125 0.609375 -0.125 C 0.679688 -0.125 0.738281 -0.132812 0.78125 -0.15625 C 0.832031 -0.1875 0.867188 -0.226562 0.890625 -0.28125 L 0.921875 -0.28125 L 1.015625 -0.21875 C 0.984375 -0.144531 0.929688 -0.0859375 0.859375 -0.046875 C 0.796875 -0.00390625 0.710938 0.015625 0.609375 0.015625 C 0.503906 0.015625 0.414062 0 0.34375 -0.03125 C 0.269531 -0.0703125 0.210938 -0.132812 0.171875 -0.21875 C 0.128906 -0.300781 0.109375 -0.40625 0.109375 -0.53125 C 0.109375 -0.644531 0.128906 -0.742188 0.171875 -0.828125 C 0.210938 -0.910156 0.269531 -0.972656 0.34375 -1.015625 C 0.414062 -1.054688 0.5 -1.078125 0.59375 -1.078125 C 0.726562 -1.078125 0.832031 -1.035156 0.90625 -0.953125 C 0.988281 -0.878906 1.03125 -0.769531 1.03125 -0.625 C 1.03125 -0.5625 1.023438 -0.519531 1.015625 -0.5 Z M 0.875 -0.625 C 0.875 -0.726562 0.847656 -0.804688 0.796875 -0.859375 C 0.753906 -0.910156 0.6875 -0.9375 0.59375 -0.9375 C 0.5 -0.9375 0.425781 -0.910156 0.375 -0.859375 C 0.320312 -0.804688 0.289062 -0.726562 0.28125 -0.625 Z M 0.875 -0.625 "/></g></g><g transform="translate(27.713903, 32.789192)"><g/></g><g transform="translate(28.190888, 32.789192)"><g><path d="M 0.703125 0.015625 C 0.617188 0.015625 0.546875 0 0.484375 -0.03125 C 0.429688 -0.0625 0.390625 -0.0976562 0.359375 -0.140625 L 0.34375 -0.140625 L 0.34375 0 L 0.1875 0 L 0.1875 -1.46875 L 0.34375 -1.46875 L 0.34375 -0.890625 L 0.359375 -0.890625 C 0.441406 -1.015625 0.554688 -1.078125 0.703125 -1.078125 C 0.796875 -1.078125 0.875 -1.054688 0.9375 -1.015625 C 1 -0.972656 1.046875 -0.910156 1.078125 -0.828125 C 1.117188 -0.742188 1.140625 -0.644531 1.140625 -0.53125 C 1.140625 -0.40625 1.117188 -0.300781 1.078125 -0.21875 C 1.046875 -0.132812 0.992188 -0.0703125 0.921875 -0.03125 C 0.859375 0 0.785156 0.015625 0.703125 0.015625 Z M 0.65625 -0.125 C 0.875 -0.125 0.984375 -0.257812 0.984375 -0.53125 C 0.984375 -0.664062 0.953125 -0.765625 0.890625 -0.828125 C 0.835938 -0.898438 0.757812 -0.9375 0.65625 -0.9375 C 0.5625 -0.9375 0.484375 -0.898438 0.421875 -0.828125 C 0.367188 -0.765625 0.34375 -0.664062 0.34375 -0.53125 C 0.34375 -0.394531 0.367188 -0.289062 0.421875 -0.21875 C 0.484375 -0.15625 0.5625 -0.125 0.65625 -0.125 Z M 0.65625 -0.125 "/></g></g><g transform="translate(29.441312, 32.789192)"><g><path d="M 0.265625 -1.25 C 0.234375 -1.25 0.207031 -1.257812 0.1875 -1.28125 C 0.164062 -1.300781 0.15625 -1.328125 0.15625 -1.359375 C 0.15625 -1.390625 0.164062 -1.414062 0.1875 -1.4375 C 0.207031 -1.457031 0.234375 -1.46875 0.265625 -1.46875 C 0.296875 -1.46875 0.320312 -1.457031 0.34375 -1.4375 C 0.363281 -1.414062 0.375 -1.390625 0.375 -1.359375 C 0.375 -1.328125 0.363281 -1.300781 0.34375 -1.28125 C 0.320312 -1.257812 0.296875 -1.25 0.265625 -1.25 Z M 0.1875 0 L 0.1875 -1.046875 L 0.34375 -1.046875 L 0.34375 0 Z M 0.1875 0 "/></g></g><g transform="translate(29.961055, 32.789192)"><g><path d="M 0.71875 -0.171875 L 0.765625 -0.0625 C 0.734375 -0.03125 0.695312 -0.0078125 0.65625 0 C 0.625 0.0078125 0.582031 0.015625 0.53125 0.015625 C 0.332031 0.015625 0.234375 -0.0820312 0.234375 -0.28125 L 0.234375 -0.921875 L 0.046875 -0.921875 L 0.046875 -1.046875 L 0.234375 -1.046875 L 0.234375 -1.28125 L 0.390625 -1.296875 L 0.390625 -1.046875 L 0.71875 -1.046875 L 0.71875 -0.921875 L 0.390625 -0.921875 L 0.390625 -0.296875 C 0.390625 -0.179688 0.441406 -0.125 0.546875 -0.125 C 0.597656 -0.125 0.644531 -0.140625 0.6875 -0.171875 Z M 0.71875 -0.171875 "/></g></g><g transform="translate(30.759198, 32.789192)"><g/></g><g transform="translate(31.236183, 32.789192)"><g><path d="M 0.609375 0.015625 C 0.503906 0.015625 0.414062 -0.00390625 0.34375 -0.046875 C 0.269531 -0.0859375 0.210938 -0.144531 0.171875 -0.21875 C 0.128906 -0.300781 0.109375 -0.40625 0.109375 -0.53125 C 0.109375 -0.644531 0.128906 -0.742188 0.171875 -0.828125 C 0.210938 -0.910156 0.269531 -0.972656 0.34375 -1.015625 C 0.414062 -1.054688 0.503906 -1.078125 0.609375 -1.078125 C 0.703125 -1.078125 0.785156 -1.054688 0.859375 -1.015625 C 0.929688 -0.972656 0.988281 -0.910156 1.03125 -0.828125 C 1.070312 -0.742188 1.09375 -0.644531 1.09375 -0.53125 C 1.09375 -0.40625 1.070312 -0.300781 1.03125 -0.21875 C 0.988281 -0.144531 0.929688 -0.0859375 0.859375 -0.046875 C 0.785156 -0.00390625 0.703125 0.015625 0.609375 0.015625 Z M 0.609375 -0.125 C 0.710938 -0.125 0.789062 -0.15625 0.84375 -0.21875 C 0.894531 -0.28125 0.921875 -0.382812 0.921875 -0.53125 C 0.921875 -0.664062 0.894531 -0.765625 0.84375 -0.828125 C 0.789062 -0.898438 0.710938 -0.9375 0.609375 -0.9375 C 0.503906 -0.9375 0.421875 -0.898438 0.359375 -0.828125 C 0.304688 -0.765625 0.28125 -0.664062 0.28125 -0.53125 C 0.28125 -0.382812 0.304688 -0.28125 0.359375 -0.21875 C 0.421875 -0.15625 0.503906 -0.125 0.609375 -0.125 Z M 0.609375 -0.125 "/></g></g><g transform="translate(32.439099, 32.789192)"><g><path d="M 0.234375 0 L 0.234375 -0.921875 L 0.046875 -0.921875 L 0.046875 -1.046875 L 0.234375 -1.046875 C 0.222656 -1.097656 0.21875 -1.144531 0.21875 -1.1875 C 0.21875 -1.25 0.226562 -1.300781 0.25 -1.34375 C 0.28125 -1.394531 0.320312 -1.429688 0.375 -1.453125 C 0.425781 -1.484375 0.488281 -1.5 0.5625 -1.5 C 0.664062 -1.5 0.742188 -1.472656 0.796875 -1.421875 L 0.734375 -1.3125 L 0.71875 -1.3125 C 0.675781 -1.34375 0.625 -1.359375 0.5625 -1.359375 C 0.5 -1.359375 0.453125 -1.34375 0.421875 -1.3125 C 0.390625 -1.28125 0.375 -1.238281 0.375 -1.1875 C 0.375 -1.144531 0.378906 -1.097656 0.390625 -1.046875 L 0.71875 -1.046875 L 0.71875 -0.921875 L 0.390625 -0.921875 L 0.390625 0 Z M 0.234375 0 "/></g></g></g><g clip-path="url(#bd9d683561)"><g fill="#ffffff" fill-opacity="1"><g transform="translate(20.853675, 35.38379)"><g><path d="M 0.703125 0.015625 C 0.617188 0.015625 0.546875 0 0.484375 -0.03125 C 0.429688 -0.0625 0.390625 -0.0976562 0.359375 -0.140625 L 0.34375 -0.140625 L 0.34375 0 L 0.1875 0 L 0.1875 -1.46875 L 0.34375 -1.46875 L 0.34375 -0.890625 L 0.359375 -0.890625 C 0.441406 -1.015625 0.554688 -1.078125 0.703125 -1.078125 C 0.796875 -1.078125 0.875 -1.054688 0.9375 -1.015625 C 1 -0.972656 1.046875 -0.910156 1.078125 -0.828125 C 1.117188 -0.742188 1.140625 -0.644531 1.140625 -0.53125 C 1.140625 -0.40625 1.117188 -0.300781 1.078125 -0.21875 C 1.046875 -0.132812 0.992188 -0.0703125 0.921875 -0.03125 C 0.859375 0 0.785156 0.015625 0.703125 0.015625 Z M 0.65625 -0.125 C 0.875 -0.125 0.984375 -0.257812 0.984375 -0.53125 C 0.984375 -0.664062 0.953125 -0.765625 0.890625 -0.828125 C 0.835938 -0.898438 0.757812 -0.9375 0.65625 -0.9375 C 0.5625 -0.9375 0.484375 -0.898438 0.421875 -0.828125 C 0.367188 -0.765625 0.34375 -0.664062 0.34375 -0.53125 C 0.34375 -0.394531 0.367188 -0.289062 0.421875 -0.21875 C 0.484375 -0.15625 0.5625 -0.125 0.65625 -0.125 Z M 0.65625 -0.125 "/></g></g><g transform="translate(22.104099, 35.38379)"><g><path d="M 0.609375 0.015625 C 0.503906 0.015625 0.414062 -0.00390625 0.34375 -0.046875 C 0.269531 -0.0859375 0.210938 -0.144531 0.171875 -0.21875 C 0.128906 -0.300781 0.109375 -0.40625 0.109375 -0.53125 C 0.109375 -0.644531 0.128906 -0.742188 0.171875 -0.828125 C 0.210938 -0.910156 0.269531 -0.972656 0.34375 -1.015625 C 0.414062 -1.054688 0.503906 -1.078125 0.609375 -1.078125 C 0.703125 -1.078125 0.785156 -1.054688 0.859375 -1.015625 C 0.929688 -0.972656 0.988281 -0.910156 1.03125 -0.828125 C 1.070312 -0.742188 1.09375 -0.644531 1.09375 -0.53125 C 1.09375 -0.40625 1.070312 -0.300781 1.03125 -0.21875 C 0.988281 -0.144531 0.929688 -0.0859375 0.859375 -0.046875 C 0.785156 -0.00390625 0.703125 0.015625 0.609375 0.015625 Z M 0.609375 -0.125 C 0.710938 -0.125 0.789062 -0.15625 0.84375 -0.21875 C 0.894531 -0.28125 0.921875 -0.382812 0.921875 -0.53125 C 0.921875 -0.664062 0.894531 -0.765625 0.84375 -0.828125 C 0.789062 -0.898438 0.710938 -0.9375 0.609375 -0.9375 C 0.503906 -0.9375 0.421875 -0.898438 0.359375 -0.828125 C 0.304688 -0.765625 0.28125 -0.664062 0.28125 -0.53125 C 0.28125 -0.382812 0.304688 -0.28125 0.359375 -0.21875 C 0.421875 -0.15625 0.503906 -0.125 0.609375 -0.125 Z M 0.609375 -0.125 "/></g></g><g transform="translate(23.307014, 35.38379)"><g><path d="M 0.546875 0.015625 C 0.460938 0.015625 0.382812 0 0.3125 -0.03125 C 0.25 -0.0703125 0.195312 -0.132812 0.15625 -0.21875 C 0.125 -0.300781 0.109375 -0.40625 0.109375 -0.53125 C 0.109375 -0.644531 0.128906 -0.742188 0.171875 -0.828125 C 0.210938 -0.910156 0.265625 -0.972656 0.328125 -1.015625 C 0.398438 -1.054688 0.476562 -1.078125 0.5625 -1.078125 C 0.632812 -1.078125 0.695312 -1.0625 0.75 -1.03125 C 0.8125 -1.007812 0.859375 -0.96875 0.890625 -0.90625 L 0.921875 -0.90625 L 0.921875 -1.46875 L 1.078125 -1.46875 L 1.078125 0 L 0.921875 0 L 0.921875 -0.15625 L 0.890625 -0.15625 C 0.859375 -0.101562 0.8125 -0.0625 0.75 -0.03125 C 0.695312 0 0.628906 0.015625 0.546875 0.015625 Z M 0.59375 -0.125 C 0.6875 -0.125 0.765625 -0.15625 0.828125 -0.21875 C 0.890625 -0.289062 0.921875 -0.394531 0.921875 -0.53125 C 0.921875 -0.664062 0.890625 -0.765625 0.828125 -0.828125 C 0.765625 -0.898438 0.6875 -0.9375 0.59375 -0.9375 C 0.488281 -0.9375 0.410156 -0.898438 0.359375 -0.828125 C 0.304688 -0.765625 0.28125 -0.664062 0.28125 -0.53125 C 0.28125 -0.257812 0.382812 -0.125 0.59375 -0.125 Z M 0.59375 -0.125 "/></g></g><g transform="translate(24.558388, 35.38379)"><g><path d="M 0.203125 0.453125 C 0.171875 0.453125 0.140625 0.445312 0.109375 0.4375 C 0.078125 0.425781 0.0507812 0.414062 0.03125 0.40625 L 0.0625 0.28125 L 0.078125 0.28125 C 0.0859375 0.289062 0.101562 0.296875 0.125 0.296875 C 0.15625 0.304688 0.179688 0.3125 0.203125 0.3125 C 0.242188 0.3125 0.28125 0.304688 0.3125 0.296875 C 0.34375 0.285156 0.363281 0.265625 0.375 0.234375 C 0.394531 0.210938 0.414062 0.175781 0.4375 0.125 L 0.46875 0.03125 L 0.046875 -1.046875 L 0.21875 -1.046875 L 0.546875 -0.1875 L 0.5625 -0.1875 L 0.890625 -1.046875 L 1.046875 -1.046875 L 0.578125 0.171875 C 0.554688 0.234375 0.523438 0.285156 0.484375 0.328125 C 0.453125 0.367188 0.414062 0.398438 0.375 0.421875 C 0.332031 0.441406 0.273438 0.453125 0.203125 0.453125 Z M 0.203125 0.453125 "/></g></g></g></g><g clip-path="url(#1332617ccc)"><g fill="#ffffff" fill-opacity="1"><g transform="translate(26.140421, 35.38379)"><g><path d="M 0.71875 -0.171875 L 0.765625 -0.0625 C 0.734375 -0.03125 0.695312 -0.0078125 0.65625 0 C 0.625 0.0078125 0.582031 0.015625 0.53125 0.015625 C 0.332031 0.015625 0.234375 -0.0820312 0.234375 -0.28125 L 0.234375 -0.921875 L 0.046875 -0.921875 L 0.046875 -1.046875 L 0.234375 -1.046875 L 0.234375 -1.28125 L 0.390625 -1.296875 L 0.390625 -1.046875 L 0.71875 -1.046875 L 0.71875 -0.921875 L 0.390625 -0.921875 L 0.390625 -0.296875 C 0.390625 -0.179688 0.441406 -0.125 0.546875 -0.125 C 0.597656 -0.125 0.644531 -0.140625 0.6875 -0.171875 Z M 0.71875 -0.171875 "/></g></g><g transform="translate(26.938564, 35.38379)"><g><path d="M 1 -0.484375 L 0.28125 -0.484375 C 0.28125 -0.359375 0.304688 -0.265625 0.359375 -0.203125 C 0.421875 -0.148438 0.503906 -0.125 0.609375 -0.125 C 0.679688 -0.125 0.738281 -0.132812 0.78125 -0.15625 C 0.832031 -0.1875 0.867188 -0.226562 0.890625 -0.28125 L 0.921875 -0.28125 L 1.015625 -0.21875 C 0.984375 -0.144531 0.929688 -0.0859375 0.859375 -0.046875 C 0.796875 -0.00390625 0.710938 0.015625 0.609375 0.015625 C 0.503906 0.015625 0.414062 0 0.34375 -0.03125 C 0.269531 -0.0703125 0.210938 -0.132812 0.171875 -0.21875 C 0.128906 -0.300781 0.109375 -0.40625 0.109375 -0.53125 C 0.109375 -0.644531 0.128906 -0.742188 0.171875 -0.828125 C 0.210938 -0.910156 0.269531 -0.972656 0.34375 -1.015625 C 0.414062 -1.054688 0.5 -1.078125 0.59375 -1.078125 C 0.726562 -1.078125 0.832031 -1.035156 0.90625 -0.953125 C 0.988281 -0.878906 1.03125 -0.769531 1.03125 -0.625 C 1.03125 -0.5625 1.023438 -0.519531 1.015625 -0.5 Z M 0.875 -0.625 C 0.875 -0.726562 0.847656 -0.804688 0.796875 -0.859375 C 0.753906 -0.910156 0.6875 -0.9375 0.59375 -0.9375 C 0.5 -0.9375 0.425781 -0.910156 0.375 -0.859375 C 0.320312 -0.804688 0.289062 -0.726562 0.28125 -0.625 Z M 0.875 -0.625 "/></g></g><g transform="translate(28.055964, 35.38379)"><g><path d="M 0.21875 0 L 0.046875 0 L 0.375 -0.546875 L 0.0625 -1.046875 L 0.234375 -1.046875 L 0.484375 -0.640625 L 0.5 -0.640625 L 0.75 -1.046875 L 0.921875 -1.046875 L 0.609375 -0.546875 L 0.9375 0 L 0.75 0 L 0.5 -0.4375 L 0.46875 -0.4375 Z M 0.21875 0 "/></g></g><g transform="translate(29.032739, 35.38379)"><g><path d="M 0.71875 -0.171875 L 0.765625 -0.0625 C 0.734375 -0.03125 0.695312 -0.0078125 0.65625 0 C 0.625 0.0078125 0.582031 0.015625 0.53125 0.015625 C 0.332031 0.015625 0.234375 -0.0820312 0.234375 -0.28125 L 0.234375 -0.921875 L 0.046875 -0.921875 L 0.046875 -1.046875 L 0.234375 -1.046875 L 0.234375 -1.28125 L 0.390625 -1.296875 L 0.390625 -1.046875 L 0.71875 -1.046875 L 0.71875 -0.921875 L 0.390625 -0.921875 L 0.390625 -0.296875 C 0.390625 -0.179688 0.441406 -0.125 0.546875 -0.125 C 0.597656 -0.125 0.644531 -0.140625 0.6875 -0.171875 Z M 0.71875 -0.171875 "/></g></g></g></g></svg>