<svg xmlns="http://www.w3.org/2000/svg" xmlns:xlink="http://www.w3.org/1999/xlink" width="192" zoomAndPan="magnify" viewBox="0 0 144 143.999998" height="192" preserveAspectRatio="xMidYMid meet" version="1.0"><defs><clipPath id="1b70279e93"><path d="M 86 74 L 128.65625 74 L 128.65625 103 L 86 103 Z M 86 74 " clip-rule="nonzero"/></clipPath><clipPath id="8fc12b2a3d"><path d="M 15.40625 74 L 58 74 L 58 103 L 15.40625 103 Z M 15.40625 74 " clip-rule="nonzero"/></clipPath><clipPath id="d2288ca65f"><path d="M 39 78 L 105 78 L 105 111.347656 L 39 111.347656 Z M 39 78 " clip-rule="nonzero"/></clipPath><clipPath id="6b547fca63"><path d="M 51 32.597656 L 93 32.597656 L 93 73 L 51 73 Z M 51 32.597656 " clip-rule="nonzero"/></clipPath></defs><rect x="-14.4" width="172.8" fill="#ffffff" y="-14.4" height="172.799997" fill-opacity="1"/><rect x="-14.4" width="172.8" fill="#ffffff" y="-14.4" height="172.799997" fill-opacity="1"/><g clip-path="url(#1b70279e93)"><path fill="#2f4a39" d="M 104.671875 102.152344 L 128.53125 102.152344 C 125.6875 80.1875 114.714844 74.238281 101.597656 74.238281 C 95.871094 74.238281 90.554688 75.371094 86.140625 78.480469 C 95.367188 82.128906 101.5 89.972656 104.671875 102.152344 " fill-opacity="1" fill-rule="nonzero"/></g><path fill="#2f4a39" d="M 101.597656 36.136719 C 97.367188 36.136719 93.507812 37.707031 90.550781 40.289062 C 92.972656 43.832031 94.386719 48.121094 94.386719 52.734375 C 94.386719 57.484375 92.871094 61.882812 90.316406 65.488281 C 93.304688 68.191406 97.25 69.855469 101.597656 69.855469 C 110.90625 69.855469 118.457031 62.304688 118.457031 52.988281 C 118.457031 43.683594 110.90625 36.136719 101.597656 36.136719 " fill-opacity="1" fill-rule="nonzero"/><g clip-path="url(#8fc12b2a3d)"><path fill="#2f4a39" d="M 39.316406 102.152344 L 15.460938 102.152344 C 18.300781 80.1875 29.28125 74.238281 42.394531 74.238281 C 48.117188 74.238281 53.4375 75.371094 57.847656 78.480469 C 48.625 82.128906 42.496094 89.972656 39.316406 102.152344 " fill-opacity="1" fill-rule="nonzero"/></g><path fill="#2f4a39" d="M 42.394531 36.136719 C 46.628906 36.136719 50.480469 37.707031 53.445312 40.289062 C 51.023438 43.832031 49.601562 48.121094 49.601562 52.734375 C 49.601562 57.484375 51.121094 61.882812 53.679688 65.488281 C 50.6875 68.191406 46.738281 69.855469 42.394531 69.855469 C 33.085938 69.855469 25.53125 62.304688 25.53125 52.988281 C 25.53125 43.683594 33.085938 36.136719 42.394531 36.136719 " fill-opacity="1" fill-rule="nonzero"/><g clip-path="url(#d2288ca65f)"><path fill="#2f4a39" d="M 104.140625 111.414062 C 100.753906 85.199219 87.652344 78.089844 71.996094 78.089844 C 56.339844 78.089844 43.238281 85.199219 39.84375 111.414062 L 104.140625 111.414062 " fill-opacity="1" fill-rule="nonzero"/></g><g clip-path="url(#6b547fca63)"><path fill="#2f4a39" d="M 92.117188 52.734375 C 92.117188 63.84375 83.109375 72.855469 71.996094 72.855469 C 60.882812 72.855469 51.878906 63.84375 51.878906 52.734375 C 51.878906 41.625 60.882812 32.613281 71.996094 32.613281 C 83.109375 32.613281 92.117188 41.625 92.117188 52.734375 " fill-opacity="1" fill-rule="nonzero"/></g></svg>