<svg xmlns="http://www.w3.org/2000/svg" xmlns:xlink="http://www.w3.org/1999/xlink" width="192" zoomAndPan="magnify" viewBox="0 0 144 143.999998" height="192" preserveAspectRatio="xMidYMid meet" version="1.0"><defs><g/><clipPath id="58a60c93d1"><path d="M 12.554688 12.554688 L 131.804688 12.554688 L 131.804688 131.804688 L 12.554688 131.804688 Z M 12.554688 12.554688 " clip-rule="nonzero"/></clipPath></defs><g clip-path="url(#58a60c93d1)"><path fill="#a6a6a6" d="M 12.554688 16.699219 C 12.554688 14.433594 14.433594 12.554688 16.699219 12.554688 L 127.292969 12.554688 C 129.558594 12.554688 131.441406 14.433594 131.441406 16.699219 L 131.441406 127.292969 C 131.441406 129.558594 129.558594 131.441406 127.292969 131.441406 L 16.699219 131.441406 C 14.433594 131.441406 12.554688 129.558594 12.554688 127.292969 Z M 20.847656 20.847656 L 20.847656 123.144531 L 123.144531 123.144531 L 123.144531 20.847656 Z M 20.847656 20.847656 " fill-opacity="1" fill-rule="evenodd"/></g><path fill="#a6a6a6" d="M 71.996094 40.203125 C 65.140625 40.203125 59.554688 45.785156 59.554688 52.644531 C 59.554688 54.910156 57.675781 56.789062 55.410156 56.789062 C 53.140625 56.789062 51.261719 54.910156 51.261719 52.644531 C 51.261719 41.195312 60.550781 31.90625 71.996094 31.90625 C 83.445312 31.90625 92.734375 41.195312 92.734375 52.644531 C 92.734375 62.652344 85.601562 71.058594 76.144531 72.992188 L 76.144531 88.585938 C 76.144531 90.851562 74.265625 92.734375 71.996094 92.734375 C 69.730469 92.734375 67.851562 90.851562 67.851562 88.585938 L 67.851562 69.230469 C 67.851562 66.964844 69.730469 65.085938 71.996094 65.085938 C 78.855469 65.085938 84.4375 59.5 84.4375 52.644531 C 84.4375 45.785156 78.855469 40.203125 71.996094 40.203125 Z M 71.996094 40.203125 " fill-opacity="1" fill-rule="evenodd"/><path fill="#a6a6a6" d="M 71.996094 98.261719 C 74.265625 98.261719 76.144531 100.144531 76.144531 102.410156 L 76.144531 107.941406 C 76.144531 110.207031 74.265625 112.085938 71.996094 112.085938 C 69.730469 112.085938 67.851562 110.207031 67.851562 107.941406 L 67.851562 102.410156 C 67.851562 100.144531 69.730469 98.261719 71.996094 98.261719 Z M 71.996094 98.261719 " fill-opacity="1" fill-rule="evenodd"/><g fill="#a6a6a6" fill-opacity="1"><g transform="translate(14.398047, 127.949988)"><g><path d="M 0.78125 0.03125 C 0.675781 0.03125 0.585938 0 0.515625 -0.0625 C 0.453125 -0.125 0.421875 -0.207031 0.421875 -0.3125 C 0.421875 -0.414062 0.453125 -0.5 0.515625 -0.5625 C 0.585938 -0.625 0.675781 -0.65625 0.78125 -0.65625 C 0.894531 -0.65625 0.984375 -0.625 1.046875 -0.5625 C 1.117188 -0.5 1.15625 -0.414062 1.15625 -0.3125 C 1.15625 -0.21875 1.117188 -0.132812 1.046875 -0.0625 C 0.984375 0 0.894531 0.03125 0.78125 0.03125 Z M 0.78125 0.03125 "/></g></g></g></svg>