<svg xmlns="http://www.w3.org/2000/svg" xmlns:xlink="http://www.w3.org/1999/xlink" width="192" zoomAndPan="magnify" viewBox="0 0 144 143.999998" height="192" preserveAspectRatio="xMidYMid meet" version="1.0"><defs><clipPath id="7ac003d15e"><path d="M 117 96 L 126.226562 96 L 126.226562 131 L 117 131 Z M 117 96 " clip-rule="nonzero"/></clipPath><clipPath id="f4b8dc9ef2"><path d="M 17.476562 96 L 114 96 L 114 133.160156 L 17.476562 133.160156 Z M 17.476562 96 " clip-rule="nonzero"/></clipPath></defs><g clip-path="url(#7ac003d15e)"><path fill="#2f4a39" d="M 117.707031 96.261719 L 126.371094 96.261719 L 126.371094 130.921875 L 117.707031 130.921875 Z M 117.707031 96.261719 " fill-opacity="1" fill-rule="nonzero"/></g><g clip-path="url(#f4b8dc9ef2)"><path fill="#2f4a39" d="M 113.375 100.050781 L 113.375 126.847656 L 65.867188 133.046875 L 43.011719 126.804688 L 18.707031 102.5 C 17.839844 101.65625 17.667969 100.703125 17.667969 100.050781 C 17.667969 98.621094 18.578125 96.933594 20.589844 96.609375 C 21.4375 96.457031 22.324219 96.628906 23.0625 97.105469 L 51.632812 115.585938 C 52.023438 116.320312 52.523438 116.992188 53.085938 117.554688 C 54.730469 119.179688 56.898438 120.089844 59.214844 120.089844 L 89.542969 120.089844 L 89.542969 115.757812 L 59.214844 115.757812 C 58.066406 115.757812 56.984375 115.304688 56.160156 114.480469 C 55.816406 114.132812 55.488281 113.679688 55.273438 113.179688 C 55.011719 112.636719 54.882812 112.03125 54.882812 111.425781 C 54.882812 109.042969 56.832031 107.09375 59.214844 107.09375 L 83.046875 107.09375 C 83.285156 107.09375 83.5 107.050781 83.738281 106.984375 L 90.238281 104.816406 C 90.476562 104.730469 90.714844 104.601562 90.910156 104.449219 L 91.6875 103.800781 C 97.429688 99.230469 105.078125 97.691406 112.140625 99.707031 Z M 113.375 100.050781 " fill-opacity="1" fill-rule="nonzero"/></g><path fill="#2f4a39" d="M 85.515625 17.167969 C 83.542969 20.460938 82.15625 23.105469 81.160156 25.25 C 74.488281 25.921875 68.878906 25.769531 65.066406 25.464844 C 64.308594 23.257812 63.117188 20.546875 61.078125 17.167969 C 59.972656 15.347656 59.734375 14.484375 59.691406 14.136719 C 59.929688 14.050781 60.429688 13.941406 61.382812 13.941406 C 62.402344 13.941406 63.398438 14.332031 64.328125 15.066406 C 64.785156 15.457031 65.410156 15.632812 65.996094 15.542969 C 66.582031 15.457031 67.125 15.109375 67.46875 14.613281 C 70.003906 10.953125 74.421875 10.953125 76.957031 14.613281 C 77.304688 15.109375 77.847656 15.457031 78.429688 15.542969 C 79.015625 15.632812 79.644531 15.457031 80.097656 15.066406 C 81.03125 14.332031 82.027344 13.941406 83.046875 13.941406 C 85.167969 13.941406 86.058594 14.484375 86.207031 14.785156 C 86.382812 15.089844 86.25 15.957031 85.515625 17.167969 Z M 85.515625 17.167969 " fill-opacity="1" fill-rule="nonzero"/><path fill="#2f4a39" d="M 79.320312 29.753906 C 78.953125 30.859375 78.691406 31.792969 78.476562 32.570312 C 78.476562 32.570312 78.453125 32.59375 78.453125 32.613281 C 75.703125 33.179688 71.5 33.589844 66.300781 32.527344 C 66.257812 31.75 66.234375 30.902344 66.105469 29.90625 C 67.75 29.992188 69.613281 30.082031 71.695312 30.082031 C 73.992188 30.082031 76.566406 29.972656 79.320312 29.753906 Z M 79.320312 29.753906 " fill-opacity="1" fill-rule="nonzero"/><path fill="#2f4a39" d="M 79.339844 37.1875 C 79.167969 37.144531 79.039062 37.035156 78.886719 36.949219 C 77.195312 37.273438 75.160156 37.53125 72.777344 37.53125 C 70.699219 37.53125 68.335938 37.316406 65.800781 36.816406 C 65.585938 36.96875 65.367188 37.121094 65.085938 37.1875 C 53.105469 40.761719 44.050781 54.0625 44.050781 68.097656 C 44.050781 83.695312 48.839844 94.09375 72.214844 94.09375 C 95.589844 94.09375 100.375 83.695312 100.375 68.097656 C 100.375 56.445312 91.734375 40.890625 79.339844 37.1875 Z M 72.214844 63.765625 C 77 63.765625 80.878906 67.167969 80.878906 71.347656 C 80.878906 74.878906 78.105469 77.804688 74.378906 78.671875 L 74.378906 81.097656 L 70.046875 81.097656 L 70.046875 78.671875 C 66.320312 77.804688 63.550781 74.878906 63.550781 71.347656 L 67.882812 71.347656 C 67.882812 73.101562 69.875 74.597656 72.214844 74.597656 C 74.554688 74.597656 76.546875 73.101562 76.546875 71.347656 C 76.546875 69.59375 74.554688 68.097656 72.214844 68.097656 C 67.425781 68.097656 63.550781 64.699219 63.550781 60.515625 C 63.550781 56.984375 66.320312 54.0625 70.046875 53.195312 L 70.046875 50.769531 L 74.378906 50.769531 L 74.378906 53.195312 C 78.105469 54.0625 80.878906 56.984375 80.878906 60.515625 L 76.546875 60.515625 C 76.546875 58.761719 74.554688 57.269531 72.214844 57.269531 C 69.875 57.269531 67.882812 58.761719 67.882812 60.515625 C 67.882812 62.273438 69.875 63.765625 72.214844 63.765625 Z M 72.214844 63.765625 " fill-opacity="1" fill-rule="nonzero"/></svg>