<svg xmlns="http://www.w3.org/2000/svg" xmlns:xlink="http://www.w3.org/1999/xlink" width="192" zoomAndPan="magnify" viewBox="0 0 144 143.999998" height="192" preserveAspectRatio="xMidYMid meet" version="1.0"><defs><clipPath id="2b3da77706"><path d="M 10.890625 10.890625 L 133.140625 10.890625 L 133.140625 133.140625 L 10.890625 133.140625 Z M 10.890625 10.890625 " clip-rule="nonzero"/></clipPath></defs><g clip-path="url(#2b3da77706)"><path fill="#ff0000" d="M 97.34375 10.890625 L 46.691406 10.890625 L 10.890625 46.691406 L 10.890625 97.34375 L 46.691406 133.140625 L 97.34375 133.140625 L 133.140625 97.34375 L 133.140625 46.691406 Z M 97.34375 10.890625 " fill-opacity="1" fill-rule="nonzero"/></g><path fill="#ffffff" d="M 95.832031 129.503906 L 48.203125 129.503906 L 14.53125 95.832031 L 14.53125 48.203125 L 48.203125 14.53125 L 95.816406 14.53125 L 129.484375 48.203125 L 129.484375 95.816406 Z M 49.507812 126.359375 L 94.527344 126.359375 L 126.359375 94.527344 L 126.359375 49.507812 L 94.527344 17.675781 L 49.507812 17.675781 L 17.675781 49.507812 L 17.675781 94.527344 Z M 49.507812 126.359375 " fill-opacity="1" fill-rule="nonzero"/><path fill="#ffffff" d="M 41.558594 70.164062 C 40.390625 69.527344 38.914062 68.925781 37.128906 68.378906 C 37.042969 68.359375 36.972656 68.34375 36.921875 68.308594 C 36.871094 68.292969 36.785156 68.257812 36.679688 68.238281 C 36.578125 68.207031 36.492188 68.171875 36.390625 68.136719 C 36.285156 68.101562 36.183594 68.066406 36.0625 68.050781 C 34.792969 67.640625 33.796875 67.277344 33.074219 66.953125 C 32.355469 66.625 31.753906 66.195312 31.257812 65.648438 C 30.757812 65.097656 30.515625 64.375 30.515625 63.5 L 30.515625 62.300781 C 30.515625 61.285156 30.878906 60.496094 31.617188 59.914062 C 32.355469 59.328125 33.402344 59.035156 34.777344 59.035156 C 35.855469 59.035156 36.800781 59.378906 37.625 60.085938 C 38.449219 60.789062 39.085938 61.800781 39.566406 63.140625 L 45.230469 60.496094 C 44.769531 58.8125 44.097656 57.40625 43.207031 56.273438 C 42.3125 55.140625 41.179688 54.28125 39.839844 53.730469 C 38.484375 53.164062 36.9375 52.890625 35.171875 52.890625 C 32.835938 52.890625 30.84375 53.269531 29.210938 54.039062 C 27.582031 54.8125 26.328125 55.929688 25.46875 57.40625 C 24.609375 58.882812 24.183594 60.632812 24.183594 62.675781 L 24.183594 63.65625 C 24.183594 65.835938 24.609375 67.570312 25.488281 68.859375 C 26.34375 70.164062 27.410156 71.125 28.628906 71.742188 C 29.863281 72.359375 31.445312 72.960938 33.402344 73.5625 L 33.726562 73.632812 C 33.746094 73.648438 33.78125 73.664062 33.8125 73.664062 C 33.847656 73.664062 33.898438 73.699219 33.953125 73.734375 C 35.136719 74.09375 36.113281 74.421875 36.835938 74.730469 C 37.574219 75.039062 38.175781 75.453125 38.621094 75.964844 C 39.085938 76.480469 39.308594 77.152344 39.308594 77.957031 L 39.308594 79.519531 C 39.308594 80.636719 38.914062 81.496094 38.125 82.113281 C 37.335938 82.730469 36.253906 83.039062 34.84375 83.039062 C 33.488281 83.039062 32.335938 82.679688 31.375 81.941406 C 30.414062 81.203125 29.710938 80.121094 29.265625 78.714844 L 23.304688 81.339844 C 23.71875 83.09375 24.40625 84.550781 25.402344 85.734375 C 26.398438 86.921875 27.648438 87.796875 29.160156 88.398438 C 30.6875 89 31.445312 89.289062 31.445312 89.289062 C 31.445312 89.289062 32.457031 89.289062 34.484375 89.289062 C 36.820312 89.289062 38.828125 88.914062 40.511719 88.140625 C 42.191406 87.367188 43.480469 86.25 44.355469 84.773438 C 45.230469 83.296875 45.679688 81.546875 45.679688 79.503906 L 45.679688 77.976562 C 45.679688 75.898438 45.285156 74.230469 44.492188 72.980469 C 43.703125 71.742188 42.726562 70.796875 41.558594 70.164062 Z M 41.558594 70.164062 " fill-opacity="1" fill-rule="nonzero"/><path fill="#ffffff" d="M 47.242188 59.433594 L 55.019531 59.433594 L 55.019531 88.914062 L 61.421875 88.914062 L 61.421875 59.433594 L 69.21875 59.433594 L 69.21875 53.269531 L 47.242188 53.269531 Z M 47.242188 59.433594 " fill-opacity="1" fill-rule="nonzero"/><path fill="#ffffff" d="M 88.207031 54.210938 C 86.542969 53.355469 84.585938 52.90625 82.355469 52.90625 C 80.121094 52.90625 78.164062 53.335938 76.5 54.210938 C 74.832031 55.070312 73.546875 56.324219 72.652344 57.9375 C 71.757812 59.550781 71.296875 61.457031 71.296875 63.65625 L 71.296875 78.542969 C 71.296875 80.722656 71.742188 82.609375 72.652344 84.242188 C 73.546875 85.875 74.832031 87.109375 76.5 87.984375 C 78.164062 88.84375 80.121094 89.289062 82.355469 89.289062 C 84.585938 89.289062 86.542969 88.859375 88.207031 87.984375 C 89.875 87.125 91.160156 85.875 92.054688 84.242188 C 92.949219 82.609375 93.410156 80.722656 93.410156 78.542969 L 93.410156 63.636719 C 93.410156 61.441406 92.964844 59.550781 92.054688 57.921875 C 91.160156 56.324219 89.875 55.070312 88.207031 54.210938 Z M 86.871094 78.199219 C 86.871094 79.160156 86.699219 80 86.335938 80.707031 C 85.976562 81.410156 85.460938 81.941406 84.773438 82.320312 C 84.085938 82.695312 83.28125 82.886719 82.371094 82.886719 C 81.460938 82.886719 80.652344 82.695312 79.984375 82.320312 C 79.296875 81.941406 78.78125 81.410156 78.421875 80.707031 C 78.0625 80 77.871094 79.175781 77.871094 78.199219 L 77.871094 63.964844 C 77.871094 63.019531 78.0625 62.195312 78.421875 61.492188 C 78.78125 60.789062 79.316406 60.238281 79.984375 59.859375 C 80.652344 59.484375 81.460938 59.277344 82.371094 59.277344 C 83.28125 59.277344 84.085938 59.464844 84.773438 59.859375 C 85.460938 60.238281 85.976562 60.789062 86.335938 61.492188 C 86.699219 62.195312 86.871094 63.019531 86.871094 63.964844 Z M 86.871094 78.199219 " fill-opacity="1" fill-rule="nonzero"/><path fill="#ffffff" d="M 119.542969 57.679688 C 118.753906 56.253906 117.621094 55.171875 116.144531 54.402344 C 114.667969 53.644531 112.933594 53.269531 110.925781 53.269531 L 99.164062 53.269531 L 99.164062 88.914062 L 105.53125 88.914062 L 105.53125 75.089844 L 110.925781 75.089844 C 112.917969 75.089844 114.648438 74.714844 116.125 73.957031 C 117.601562 73.203125 118.738281 72.121094 119.527344 70.730469 C 120.316406 69.320312 120.710938 67.671875 120.710938 65.75 L 120.710938 62.710938 C 120.746094 60.789062 120.351562 59.105469 119.542969 57.679688 Z M 114.1875 65.285156 C 114.1875 66.007812 114.050781 66.644531 113.773438 67.210938 C 113.5 67.777344 113.121094 68.207031 112.640625 68.496094 C 112.144531 68.789062 111.59375 68.945312 110.941406 68.945312 L 105.515625 68.945312 L 105.515625 59.433594 L 110.941406 59.433594 C 111.59375 59.433594 112.160156 59.585938 112.660156 59.878906 C 113.15625 60.1875 113.515625 60.617188 113.792969 61.183594 C 114.050781 61.75 114.1875 62.417969 114.1875 63.175781 Z M 114.1875 65.285156 " fill-opacity="1" fill-rule="nonzero"/></svg>