<svg xmlns="http://www.w3.org/2000/svg" xmlns:xlink="http://www.w3.org/1999/xlink" width="192" zoomAndPan="magnify" viewBox="0 0 144 143.999998" height="192" preserveAspectRatio="xMidYMid meet" version="1.0"><defs><clipPath id="f0eec54d52"><path d="M 14.398438 14.398438 L 138 14.398438 L 138 138 L 14.398438 138 Z M 14.398438 14.398438 " clip-rule="nonzero"/></clipPath></defs><g clip-path="url(#f0eec54d52)"><path fill="#2f4a39" d="M 47.832031 14.398438 L 19.542969 34.972656 L 76.121094 34.972656 Z M 19.542969 40.117188 L 19.542969 122.414062 L 76.121094 122.414062 L 76.121094 94.285156 L 81.75 90.589844 L 84.800781 76.121094 L 76.121094 81.910156 L 76.121094 40.117188 Z M 132.21875 45.261719 L 128.039062 47.832031 L 124.988281 62.300781 L 137.84375 53.941406 Z M 29.832031 50.40625 L 65.835938 50.40625 L 65.835938 86.410156 L 29.832031 86.410156 Z M 124.023438 50.886719 L 115.179688 56.511719 L 112.128906 70.980469 L 120.808594 65.351562 Z M 110.519531 59.085938 L 101.839844 64.871094 L 98.785156 79.175781 L 107.464844 73.550781 Z M 97.660156 67.925781 L 89.464844 73.070312 L 86.410156 87.375 L 94.605469 82.230469 Z M 14.398438 127.558594 L 14.398438 137.84375 L 81.265625 137.84375 L 81.265625 127.558594 Z M 14.398438 127.558594 " fill-opacity="1" fill-rule="nonzero"/></g></svg>