<svg xmlns="http://www.w3.org/2000/svg" xmlns:xlink="http://www.w3.org/1999/xlink" width="192" zoomAndPan="magnify" viewBox="0 0 144 143.999998" height="192" preserveAspectRatio="xMidYMid meet" version="1.0"><defs><clipPath id="bae89d76a7"><path d="M 18.265625 9.425781 L 105 9.425781 L 105 117 L 18.265625 117 Z M 18.265625 9.425781 " clip-rule="nonzero"/></clipPath><clipPath id="651e0dc7a6"><path d="M 75 84 L 125.515625 84 L 125.515625 134.675781 L 75 134.675781 Z M 75 84 " clip-rule="nonzero"/></clipPath></defs><g clip-path="url(#bae89d76a7)"><path fill="#2f4a39" d="M 25.429688 109.582031 L 25.429688 16.628906 L 70.671875 16.628906 L 70.671875 39.238281 C 70.671875 41.214844 72.292969 42.832031 74.269531 42.832031 L 96.875 42.832031 L 96.875 78.320312 C 98.113281 78.175781 99.367188 78.082031 100.640625 78.082031 C 101.789062 78.082031 102.945312 78.148438 104.054688 78.28125 L 104.054688 36.960938 C 104.054688 36 103.699219 35.105469 103.011719 34.417969 L 79.085938 10.492188 C 78.402344 9.835938 77.507812 9.453125 76.546875 9.453125 L 21.859375 9.453125 C 19.886719 9.453125 18.265625 11.074219 18.265625 13.046875 L 18.265625 113.148438 C 18.265625 115.125 19.886719 116.742188 21.859375 116.742188 L 70.121094 116.742188 C 69.566406 114.4375 69.265625 112.03125 69.265625 109.566406 L 25.429688 109.566406 Z M 25.429688 109.582031 " fill-opacity="1" fill-rule="nonzero"/></g><path fill="#2f4a39" d="M 36.820312 95.199219 C 36.820312 97.125 38.371094 98.675781 40.296875 98.675781 L 71.171875 98.675781 C 72.109375 96.203125 73.320312 93.882812 74.792969 91.726562 L 40.296875 91.726562 C 38.371094 91.726562 36.820312 93.277344 36.820312 95.199219 Z M 36.820312 95.199219 " fill-opacity="1" fill-rule="nonzero"/><path fill="#2f4a39" d="M 40.296875 83.257812 L 82.023438 83.257812 C 83.945312 83.257812 85.5 81.703125 85.5 79.78125 C 85.5 77.859375 83.945312 76.304688 82.023438 76.304688 L 40.296875 76.304688 C 38.371094 76.304688 36.820312 77.859375 36.820312 79.78125 C 36.820312 81.703125 38.371094 83.257812 40.296875 83.257812 Z M 40.296875 83.257812 " fill-opacity="1" fill-rule="nonzero"/><path fill="#2f4a39" d="M 51.460938 57.304688 L 46.707031 57.304688 C 44.984375 57.304688 43.535156 56.082031 43.191406 54.449219 C 43.101562 54.027344 42.71875 53.722656 42.285156 53.722656 L 37.753906 53.722656 C 37.175781 53.722656 36.738281 54.238281 36.804688 54.816406 C 37.320312 59.515625 41.152344 63.21875 45.890625 63.597656 L 45.890625 67.640625 C 45.890625 68.167969 46.3125 68.589844 46.839844 68.589844 L 51.316406 68.589844 C 51.84375 68.589844 52.265625 68.167969 52.265625 67.640625 L 52.265625 63.597656 C 57.769531 63.152344 62.035156 58.253906 61.335938 52.484375 C 60.730469 47.429688 56.164062 43.769531 51.066406 43.769531 L 46.707031 43.769531 C 44.613281 43.769531 42.929688 41.953125 43.140625 39.804688 C 43.324219 37.933594 45.050781 36.59375 46.917969 36.59375 L 51.460938 36.59375 C 53.1875 36.59375 54.636719 37.816406 54.976562 39.449219 C 55.070312 39.871094 55.453125 40.171875 55.886719 40.171875 L 60.402344 40.171875 C 60.980469 40.171875 61.417969 39.660156 61.351562 39.082031 C 60.835938 34.378906 57.003906 30.679688 52.265625 30.296875 L 52.265625 26.253906 C 52.265625 25.730469 51.84375 25.308594 51.316406 25.308594 L 46.839844 25.308594 C 46.3125 25.308594 45.890625 25.730469 45.890625 26.253906 L 45.890625 30.296875 C 40.386719 30.746094 36.121094 35.644531 36.820312 41.410156 C 37.4375 46.46875 41.992188 50.128906 47.089844 50.128906 L 51.238281 50.128906 C 53.109375 50.128906 54.820312 51.472656 55.015625 53.339844 C 55.242188 55.488281 53.554688 57.304688 51.460938 57.304688 Z M 51.460938 57.304688 " fill-opacity="1" fill-rule="nonzero"/><g clip-path="url(#651e0dc7a6)"><path fill="#2f4a39" d="M 100.65625 84.402344 C 86.804688 84.402344 75.585938 95.636719 75.585938 109.476562 C 75.585938 123.328125 86.804688 134.546875 100.65625 134.546875 C 114.507812 134.546875 125.726562 123.328125 125.726562 109.476562 C 125.726562 95.621094 114.496094 84.402344 100.65625 84.402344 Z M 111.863281 115.019531 C 113.429688 116.585938 113.429688 119.113281 111.863281 120.679688 C 111.085938 121.457031 110.058594 121.851562 109.03125 121.851562 C 108.003906 121.851562 106.976562 121.457031 106.199219 120.679688 L 100.65625 115.136719 L 95.113281 120.679688 C 94.335938 121.457031 93.308594 121.851562 92.28125 121.851562 C 91.253906 121.851562 90.226562 121.457031 89.449219 120.679688 C 87.882812 119.113281 87.882812 116.585938 89.449219 115.019531 L 94.992188 109.476562 L 89.449219 103.929688 C 87.882812 102.363281 87.882812 99.835938 89.449219 98.269531 C 91.015625 96.703125 93.546875 96.703125 95.113281 98.269531 L 100.65625 103.8125 L 106.199219 98.269531 C 107.765625 96.703125 110.292969 96.703125 111.863281 98.269531 C 113.429688 99.835938 113.429688 102.363281 111.863281 103.929688 L 106.316406 109.476562 Z M 111.863281 115.019531 " fill-opacity="1" fill-rule="nonzero"/></g></svg>