<svg xmlns="http://www.w3.org/2000/svg" xmlns:xlink="http://www.w3.org/1999/xlink" width="566" zoomAndPan="magnify" viewBox="0 0 425.25 56.999996" height="75" preserveAspectRatio="xMidYMid meet" version="1.0"><defs><g/><clipPath id="b7973d9a40"><path d="M 0 0.0507812 L 424.5 0.0507812 L 424.5 56.949219 L 0 56.949219 Z M 0 0.0507812 " clip-rule="nonzero"/></clipPath><clipPath id="9caa789e0e"><path d="M 398.097656 32.414062 L 419.605469 32.414062 L 419.605469 56.949219 L 398.097656 56.949219 Z M 398.097656 32.414062 " clip-rule="nonzero"/></clipPath><clipPath id="410f48a4b7"><path d="M 338.136719 25.75 L 364.371094 25.75 L 364.371094 56.949219 L 338.136719 56.949219 Z M 338.136719 25.75 " clip-rule="nonzero"/></clipPath><clipPath id="e616e48f63"><path d="M 360.296875 34.203125 L 383.757812 34.203125 L 383.757812 56.949219 L 360.296875 56.949219 Z M 360.296875 34.203125 " clip-rule="nonzero"/></clipPath><clipPath id="0b4cf6d5c3"><path d="M 375.285156 17.621094 L 402.660156 17.621094 L 402.660156 56.949219 L 375.285156 56.949219 Z M 375.285156 17.621094 " clip-rule="nonzero"/></clipPath><clipPath id="2f4896d9e5"><path d="M 312.796875 39.308594 L 328.777344 39.308594 L 328.777344 56.949219 L 312.796875 56.949219 Z M 312.796875 39.308594 " clip-rule="nonzero"/></clipPath><clipPath id="2f9c790abe"><path d="M 268.242188 34.3125 L 287.734375 34.3125 L 287.734375 56.949219 L 268.242188 56.949219 Z M 268.242188 34.3125 " clip-rule="nonzero"/></clipPath><clipPath id="5a6f9372ee"><path d="M 284.707031 40.652344 L 302.140625 40.652344 L 302.140625 56.949219 L 284.707031 56.949219 Z M 284.707031 40.652344 " clip-rule="nonzero"/></clipPath><clipPath id="a75d74d944"><path d="M 295.84375 28.214844 L 316.183594 28.214844 L 316.183594 56.949219 L 295.84375 56.949219 Z M 295.84375 28.214844 " clip-rule="nonzero"/></clipPath><clipPath id="099e8ef9f3"><path d="M 147.660156 37.65625 L 169.164062 37.65625 L 169.164062 56.949219 L 147.660156 56.949219 Z M 147.660156 37.65625 " clip-rule="nonzero"/></clipPath><clipPath id="fba06c3855"><path d="M 87.703125 31 L 113.933594 31 L 113.933594 56.949219 L 87.703125 56.949219 Z M 87.703125 31 " clip-rule="nonzero"/></clipPath><clipPath id="8dd3dfb99f"><path d="M 109.859375 39.445312 L 133.320312 39.445312 L 133.320312 56.949219 L 109.859375 56.949219 Z M 109.859375 39.445312 " clip-rule="nonzero"/></clipPath><clipPath id="2bd60bceea"><path d="M 124.847656 22.863281 L 152.222656 22.863281 L 152.222656 56.949219 L 124.847656 56.949219 Z M 124.847656 22.863281 " clip-rule="nonzero"/></clipPath><clipPath id="f1db47130f"><path d="M 64.625 43.636719 L 79.621094 43.636719 L 79.621094 56.949219 L 64.625 56.949219 Z M 64.625 43.636719 " clip-rule="nonzero"/></clipPath><clipPath id="b49de420f5"><path d="M 22.8125 39 L 41.105469 39 L 41.105469 56.949219 L 22.8125 56.949219 Z M 22.8125 39 " clip-rule="nonzero"/></clipPath><clipPath id="3b7b5a3c28"><path d="M 38.265625 44.882812 L 54.625 44.882812 L 54.625 56.949219 L 38.265625 56.949219 Z M 38.265625 44.882812 " clip-rule="nonzero"/></clipPath><clipPath id="5ff11face4"><path d="M 48.71875 33.335938 L 67.804688 33.335938 L 67.804688 56.949219 L 48.71875 56.949219 Z M 48.71875 33.335938 " clip-rule="nonzero"/></clipPath><clipPath id="94216c0c9e"><path d="M 237.578125 50.503906 L 259.082031 50.503906 L 259.082031 56.949219 L 237.578125 56.949219 Z M 237.578125 50.503906 " clip-rule="nonzero"/></clipPath><clipPath id="495ab9ebf4"><path d="M 177.621094 43.839844 L 203.851562 43.839844 L 203.851562 56.949219 L 177.621094 56.949219 Z M 177.621094 43.839844 " clip-rule="nonzero"/></clipPath><clipPath id="df4df0f7f9"><path d="M 199.777344 52.292969 L 223.238281 52.292969 L 223.238281 56.949219 L 199.777344 56.949219 Z M 199.777344 52.292969 " clip-rule="nonzero"/></clipPath><clipPath id="8ab62fc735"><path d="M 214.765625 35.710938 L 242.136719 35.710938 L 242.136719 56.949219 L 214.765625 56.949219 Z M 214.765625 35.710938 " clip-rule="nonzero"/></clipPath></defs><g clip-path="url(#b7973d9a40)"><path fill="#ffffff" d="M 0 0.0507812 L 424.5 0.0507812 L 424.5 56.949219 L 0 56.949219 Z M 0 0.0507812 " fill-opacity="1" fill-rule="nonzero"/><path fill="#2f4a39" d="M 0 0.0507812 L 424.5 0.0507812 L 424.5 56.949219 L 0 56.949219 Z M 0 0.0507812 " fill-opacity="1" fill-rule="nonzero"/></g><g clip-path="url(#9caa789e0e)"><path fill="#fdd158" d="M 401.128906 41.867188 C 401.664062 42.574219 402.042969 43.40625 402.4375 44.207031 C 402.972656 45.28125 403.554688 46.351562 403.925781 47.484375 C 404.1875 48.285156 404.421875 48.433594 404.472656 49.289062 C 404.472656 49.289062 404.417969 57.050781 404.386719 59.550781 L 410.542969 59.550781 C 410.582031 57.171875 410.714844 50.625 410.746094 49.734375 C 410.789062 48.617188 411.585938 47.953125 412.320312 47.292969 C 413.546875 46.191406 414.886719 45.234375 415.878906 43.871094 C 416.316406 43.273438 417.0625 42.886719 417.714844 42.472656 C 418.195312 42.167969 418.753906 41.992188 419.261719 41.722656 C 419.417969 41.636719 419.597656 41.4375 419.605469 41.285156 C 419.613281 41.144531 419.429688 40.945312 419.277344 40.855469 C 418.097656 40.140625 416.992188 40.496094 415.933594 41.15625 C 415.144531 41.648438 414.378906 42.183594 413.597656 42.691406 C 412.816406 43.195312 411.847656 42.738281 411.628906 41.671875 C 411.394531 40.542969 411.3125 39.414062 411.628906 38.125 C 411.703125 37.820312 412.113281 35.136719 412.183594 34.046875 C 412.214844 33.59375 412.136719 33.160156 411.566406 33.082031 C 410.890625 32.996094 410.644531 33.476562 410.550781 34.167969 C 410.371094 35.5 409.984375 36.792969 409.515625 38.050781 C 409.375 38.421875 409.324219 38.902344 409.09375 39.242188 C 408.992188 39.386719 408.707031 39.496094 408.523438 39.46875 C 408.347656 39.449219 408.089844 39.261719 408.046875 39.101562 C 407.839844 38.292969 407.636719 37.453125 407.375 36.664062 C 406.945312 35.367188 406.558594 34.089844 406.035156 32.828125 C 405.820312 32.324219 405.304688 32.414062 404.890625 32.515625 C 404.457031 32.625 404.46875 33.007812 404.539062 33.371094 C 404.902344 35.195312 405.269531 37.019531 405.628906 38.84375 C 405.664062 39.011719 405.671875 39.179688 405.691406 39.351562 C 405.703125 39.464844 405.589844 39.5 405.589844 39.5 C 405.535156 39.539062 405.417969 39.554688 405.082031 39.089844 C 405.074219 39.078125 405.070312 39.070312 405.066406 39.0625 C 404.351562 37.710938 403.667969 36.339844 402.945312 34.996094 C 402.601562 34.351562 402.1875 34.117188 401.679688 34.367188 C 401.371094 34.519531 401.238281 34.886719 401.367188 35.203125 C 402.066406 36.882812 402.769531 38.585938 403.476562 40.292969 C 403.53125 40.425781 403.621094 40.566406 403.613281 40.699219 C 403.605469 40.886719 403.578125 41.152344 403.457031 41.230469 C 403.351562 41.304688 403.054688 41.230469 402.925781 41.121094 C 401.988281 40.308594 401.070312 39.46875 400.148438 38.636719 C 399.910156 38.417969 399.71875 38.113281 399.441406 37.976562 C 399.171875 37.84375 398.808594 37.800781 398.511719 37.855469 C 398.101562 37.9375 397.984375 38.183594 398.316406 38.5625 C 399.273438 39.648438 400.253906 40.714844 401.128906 41.867188 " fill-opacity="1" fill-rule="nonzero"/></g><g clip-path="url(#410f48a4b7)"><path fill="#f15839" d="M 341.800781 37.304688 C 342.453125 38.167969 342.914062 39.183594 343.398438 40.160156 C 344.046875 41.472656 344.757812 42.773438 345.210938 44.15625 C 345.53125 45.132812 345.816406 45.3125 345.878906 46.355469 C 345.878906 46.355469 345.804688 56.179688 345.765625 59.550781 L 353.269531 59.550781 C 353.316406 56.421875 353.488281 47.984375 353.527344 46.898438 C 353.578125 45.535156 354.550781 44.726562 355.445312 43.921875 C 356.9375 42.578125 358.574219 41.410156 359.785156 39.75 C 360.316406 39.023438 361.226562 38.550781 362.019531 38.046875 C 362.605469 37.675781 363.292969 37.460938 363.90625 37.128906 C 364.097656 37.027344 364.320312 36.785156 364.328125 36.597656 C 364.335938 36.425781 364.113281 36.183594 363.929688 36.070312 C 362.488281 35.203125 361.140625 35.640625 359.851562 36.441406 C 358.886719 37.039062 357.957031 37.691406 357 38.3125 C 356.050781 38.925781 354.871094 38.367188 354.601562 37.066406 C 354.316406 35.695312 354.332031 34.492188 354.722656 32.917969 C 354.8125 32.550781 354.925781 32.152344 354.960938 31.753906 C 355.074219 30.429688 355.191406 29.101562 355.28125 27.777344 C 355.316406 27.222656 355.222656 26.691406 354.523438 26.601562 C 353.703125 26.492188 353.402344 27.078125 353.289062 27.925781 C 353.066406 29.546875 352.597656 31.121094 352.023438 32.65625 C 351.855469 33.109375 351.792969 33.691406 351.511719 34.109375 C 351.390625 34.285156 351.039062 34.414062 350.816406 34.386719 C 350.601562 34.359375 350.289062 34.132812 350.238281 33.9375 C 349.984375 32.949219 349.734375 31.925781 349.414062 30.964844 C 348.890625 29.386719 348.421875 27.824219 347.78125 26.289062 C 347.523438 25.675781 346.890625 25.785156 346.390625 25.90625 C 345.859375 26.039062 345.871094 26.507812 345.960938 26.949219 C 346.402344 29.175781 346.847656 31.398438 347.289062 33.621094 C 347.328125 33.824219 347.339844 34.035156 347.363281 34.242188 C 347.378906 34.378906 347.238281 34.425781 347.238281 34.425781 C 347.171875 34.46875 347.03125 34.488281 346.621094 33.921875 C 346.613281 33.910156 346.605469 33.898438 346.601562 33.886719 C 345.730469 32.238281 344.898438 30.570312 344.015625 28.929688 C 343.597656 28.148438 343.09375 27.859375 342.472656 28.164062 C 342.097656 28.351562 341.933594 28.796875 342.09375 29.183594 C 342.941406 31.230469 343.804688 33.308594 344.664062 35.390625 C 344.730469 35.550781 344.839844 35.71875 344.832031 35.882812 C 344.820312 36.109375 344.789062 36.433594 344.640625 36.535156 C 344.511719 36.621094 344.148438 36.53125 343.992188 36.398438 C 342.851562 35.40625 341.730469 34.386719 340.609375 33.371094 C 340.316406 33.105469 340.082031 32.730469 339.746094 32.5625 C 339.417969 32.402344 338.972656 32.351562 338.609375 32.417969 C 338.109375 32.515625 337.964844 32.816406 338.371094 33.277344 C 339.539062 34.601562 340.738281 35.902344 341.800781 37.304688 " fill-opacity="1" fill-rule="nonzero"/></g><g clip-path="url(#e616e48f63)"><path fill="#e467b4" d="M 360.761719 44.355469 C 361.3125 44.648438 361.921875 44.839844 362.445312 45.171875 C 363.152344 45.621094 363.964844 46.042969 364.4375 46.691406 C 365.519531 48.171875 366.980469 49.214844 368.308594 50.414062 C 369.109375 51.132812 369.976562 51.851562 370.023438 53.066406 C 370.058594 54.039062 370.148438 58.363281 370.167969 59.550781 L 376.875 59.550781 C 376.863281 59.117188 376.84375 52.582031 376.84375 52.582031 C 376.902344 51.65625 377.15625 51.492188 377.441406 50.625 C 377.84375 49.390625 378.480469 48.226562 379.058594 47.054688 C 379.492188 46.183594 379.902344 45.28125 380.484375 44.511719 C 381.433594 43.257812 382.503906 42.097656 383.542969 40.917969 C 383.90625 40.507812 383.777344 40.238281 383.332031 40.152344 C 383.007812 40.089844 382.609375 40.136719 382.316406 40.28125 C 382.015625 40.429688 381.808594 40.761719 381.546875 41 C 380.546875 41.90625 379.546875 42.816406 378.527344 43.699219 C 378.390625 43.820312 378.066406 43.902344 377.949219 43.820312 C 377.816406 43.734375 377.789062 43.445312 377.78125 43.238281 C 377.773438 43.097656 377.871094 42.945312 377.929688 42.800781 C 378.695312 40.945312 379.464844 39.09375 380.222656 37.265625 C 380.363281 36.921875 380.21875 36.523438 379.886719 36.355469 C 379.332031 36.082031 378.882812 36.339844 378.507812 37.039062 C 377.722656 38.503906 376.980469 39.992188 376.203125 41.460938 C 376.195312 41.472656 376.191406 41.480469 376.183594 41.492188 C 375.816406 41.996094 375.691406 41.976562 375.632812 41.941406 C 375.632812 41.941406 375.507812 41.898438 375.519531 41.777344 C 375.539062 41.589844 375.550781 41.40625 375.589844 41.222656 C 375.980469 39.238281 376.378906 37.257812 376.773438 35.273438 C 376.851562 34.875 376.867188 34.457031 376.390625 34.339844 C 375.941406 34.230469 375.378906 34.132812 375.148438 34.683594 C 374.574219 36.050781 374.15625 37.445312 373.691406 38.851562 C 373.40625 39.710938 373.183594 40.625 372.957031 41.503906 C 372.914062 41.679688 372.632812 41.882812 372.441406 41.90625 C 372.242188 41.933594 371.929688 41.816406 371.824219 41.660156 C 371.566406 41.28125 371.511719 40.753906 371.359375 40.351562 C 370.839844 38.988281 370.433594 37.582031 370.234375 36.136719 C 370.132812 35.386719 369.863281 34.863281 369.132812 34.960938 C 368.511719 35.042969 368.425781 35.515625 368.457031 36.007812 C 368.539062 37.191406 368.644531 38.375 368.746094 39.558594 C 368.777344 39.914062 368.875 40.265625 368.957031 40.597656 C 369.304688 42 369.320312 43.074219 369.066406 44.296875 C 368.824219 45.457031 367.773438 45.957031 366.921875 45.40625 C 366.070312 44.855469 365.242188 44.273438 364.378906 43.738281 C 363.230469 43.023438 362.027344 42.636719 360.742188 43.410156 C 360.578125 43.507812 360.378906 43.726562 360.386719 43.878906 C 360.394531 44.046875 360.589844 44.261719 360.761719 44.355469 " fill-opacity="1" fill-rule="nonzero"/></g><g clip-path="url(#0b4cf6d5c3)"><path fill="#55a899" d="M 375.804688 29.398438 C 376.449219 29.742188 377.160156 29.96875 377.769531 30.355469 C 378.597656 30.878906 379.546875 31.371094 380.097656 32.125 C 381.359375 33.855469 383.058594 35.070312 384.613281 36.46875 C 385.542969 37.308594 386.554688 38.148438 386.609375 39.566406 C 386.652344 40.699219 386.945312 57.234375 387 59.550781 L 394.71875 59.550781 C 394.699219 53.007812 394.570312 39 394.570312 39 C 394.636719 37.917969 394.933594 37.730469 395.265625 36.714844 C 395.738281 35.277344 396.476562 33.917969 397.152344 32.554688 C 397.65625 31.535156 398.136719 30.480469 398.816406 29.582031 C 399.921875 28.125 401.171875 26.769531 402.382812 25.390625 C 402.804688 24.910156 402.65625 24.597656 402.136719 24.496094 C 401.761719 24.425781 401.296875 24.480469 400.953125 24.648438 C 400.601562 24.820312 400.363281 25.210938 400.058594 25.488281 C 398.890625 26.542969 397.722656 27.605469 396.53125 28.636719 C 396.371094 28.777344 395.996094 28.871094 395.859375 28.777344 C 395.707031 28.675781 395.671875 28.339844 395.660156 28.101562 C 395.652344 27.933594 395.765625 27.757812 395.835938 27.585938 C 396.730469 25.425781 397.625 23.261719 398.507812 21.128906 C 398.675781 20.730469 398.507812 20.261719 398.117188 20.070312 C 397.472656 19.75 396.949219 20.050781 396.507812 20.867188 C 395.589844 22.574219 394.726562 24.308594 393.820312 26.023438 C 393.8125 26.035156 393.804688 26.050781 393.796875 26.0625 C 393.371094 26.652344 393.226562 26.628906 393.15625 26.582031 C 393.15625 26.582031 393.007812 26.535156 393.023438 26.394531 C 393.046875 26.175781 393.0625 25.960938 393.101562 25.75 C 393.5625 23.433594 394.027344 21.121094 394.484375 18.804688 C 394.578125 18.34375 394.59375 17.855469 394.039062 17.71875 C 393.519531 17.589844 392.859375 17.476562 392.589844 18.117188 C 391.921875 19.714844 391.433594 21.339844 390.890625 22.980469 C 390.558594 23.984375 390.296875 25.046875 390.035156 26.078125 C 389.980469 26.28125 389.65625 26.515625 389.429688 26.542969 C 389.199219 26.574219 388.835938 26.441406 388.710938 26.253906 C 388.414062 25.816406 388.347656 25.199219 388.167969 24.730469 C 387.5625 23.140625 387.089844 21.5 386.859375 19.816406 C 386.738281 18.9375 386.425781 18.328125 385.570312 18.441406 C 384.847656 18.535156 384.746094 19.089844 384.785156 19.664062 C 384.878906 21.046875 385 22.425781 385.121094 23.804688 C 385.15625 24.21875 385.273438 24.632812 385.367188 25.019531 C 385.773438 26.65625 385.789062 27.90625 385.492188 29.335938 C 385.210938 30.6875 383.984375 31.269531 382.992188 30.628906 C 382 29.984375 381.03125 29.304688 380.027344 28.683594 C 378.6875 27.847656 377.285156 27.398438 375.785156 28.300781 C 375.59375 28.414062 375.363281 28.667969 375.371094 28.84375 C 375.378906 29.039062 375.605469 29.292969 375.804688 29.398438 " fill-opacity="1" fill-rule="nonzero"/></g><g fill="#ffffff" fill-opacity="1"><g transform="translate(155.468644, 31.218825)"><g><path d="M 8.5 -7.796875 L 5.359375 -4.03125 L 5.359375 0 L 3.484375 0 L 3.484375 -4.03125 L 0.359375 -7.796875 L 2.8125 -7.796875 L 4.4375 -5.84375 L 6.046875 -7.796875 Z M 8.5 -7.796875 "/></g></g></g><g fill="#ffffff" fill-opacity="1"><g transform="translate(164.321047, 31.218825)"><g><path d="M 3.203125 -6.171875 C 4.054688 -6.179688 4.78125 -5.882812 5.375 -5.28125 C 5.988281 -4.675781 6.296875 -3.953125 6.296875 -3.109375 C 6.296875 -2.253906 6 -1.523438 5.40625 -0.921875 C 4.800781 -0.316406 4.078125 -0.0078125 3.234375 0 C 2.378906 0.0078125 1.648438 -0.285156 1.046875 -0.890625 C 0.429688 -1.484375 0.125 -2.207031 0.125 -3.0625 C 0.125 -3.914062 0.421875 -4.644531 1.015625 -5.25 C 1.617188 -5.851562 2.347656 -6.160156 3.203125 -6.171875 Z M 4.296875 -2.015625 C 4.585938 -2.304688 4.734375 -2.664062 4.734375 -3.09375 C 4.734375 -3.507812 4.582031 -3.867188 4.28125 -4.171875 C 3.976562 -4.460938 3.617188 -4.609375 3.203125 -4.609375 C 2.785156 -4.609375 2.429688 -4.457031 2.140625 -4.15625 C 1.835938 -3.84375 1.6875 -3.484375 1.6875 -3.078125 C 1.6875 -2.660156 1.835938 -2.300781 2.140625 -2 C 2.441406 -1.707031 2.800781 -1.5625 3.21875 -1.5625 C 3.65625 -1.570312 4.015625 -1.722656 4.296875 -2.015625 Z M 4.296875 -2.015625 "/></g></g></g><g fill="#ffffff" fill-opacity="1"><g transform="translate(170.741738, 31.218825)"><g><path d="M 0.359375 -6.203125 L 1.921875 -6.203125 L 1.921875 -3.078125 C 1.921875 -2.960938 1.941406 -2.828125 1.984375 -2.671875 C 2.023438 -2.484375 2.09375 -2.316406 2.1875 -2.171875 C 2.457031 -1.765625 2.832031 -1.5625 3.3125 -1.5625 C 3.851562 -1.5625 4.242188 -1.769531 4.484375 -2.1875 C 4.566406 -2.320312 4.628906 -2.488281 4.671875 -2.6875 C 4.703125 -2.820312 4.71875 -2.957031 4.71875 -3.09375 L 4.71875 -6.203125 L 6.40625 -6.203125 L 6.40625 0 L 4.71875 0 L 4.71875 -0.640625 C 4.332031 -0.210938 3.832031 0 3.21875 0 C 2.425781 0.0078125 1.753906 -0.269531 1.203125 -0.84375 C 0.640625 -1.414062 0.359375 -2.117188 0.359375 -2.953125 Z M 0.359375 -6.203125 "/></g></g></g><g fill="#ffffff" fill-opacity="1"><g transform="translate(177.497835, 31.218825)"><g><path d="M 2.03125 -5.25 C 2.164062 -5.632812 2.394531 -5.898438 2.71875 -6.046875 C 3.03125 -6.203125 3.5 -6.28125 4.125 -6.28125 L 4.125 -4.5625 C 3.519531 -4.5625 3.007812 -4.351562 2.59375 -3.9375 C 2.21875 -3.570312 2.03125 -3.171875 2.03125 -2.734375 L 2.03125 0 L 0.359375 0 L 0.359375 -6.171875 L 2.03125 -6.171875 Z M 2.03125 -5.25 "/></g></g></g><g fill="#ffffff" fill-opacity="1"><g transform="translate(181.798265, 31.218825)"><g/></g></g><g fill="#ffffff" fill-opacity="1"><g transform="translate(184.912775, 31.218825)"><g><path d="M 3.53125 0.015625 C 3.007812 0.015625 2.546875 -0.0625 2.140625 -0.21875 C 1.828125 -0.34375 1.5 -0.550781 1.15625 -0.84375 C 0.78125 -1.195312 0.539062 -1.632812 0.4375 -2.15625 C 0.394531 -2.320312 0.375 -2.488281 0.375 -2.65625 C 0.363281 -2.71875 0.363281 -2.773438 0.375 -2.828125 L 0.375 -2.90625 L 2.015625 -2.890625 L 2.015625 -2.90625 C 2.015625 -2.601562 2.078125 -2.359375 2.203125 -2.171875 C 2.441406 -1.804688 2.882812 -1.625 3.53125 -1.625 C 4.570312 -1.625 5.09375 -1.867188 5.09375 -2.359375 C 5.09375 -2.828125 4.554688 -3.125 3.484375 -3.25 C 2.867188 -3.320312 2.34375 -3.445312 1.90625 -3.625 C 1.5 -3.800781 1.164062 -4.023438 0.90625 -4.296875 C 0.550781 -4.703125 0.375 -5.164062 0.375 -5.6875 C 0.375 -6.019531 0.429688 -6.328125 0.546875 -6.609375 C 0.640625 -6.828125 0.757812 -7.023438 0.90625 -7.203125 C 1.46875 -7.835938 2.359375 -8.15625 3.578125 -8.15625 C 4.296875 -8.15625 4.910156 -8.007812 5.421875 -7.71875 C 5.796875 -7.5 6.109375 -7.210938 6.359375 -6.859375 C 6.523438 -6.585938 6.644531 -6.273438 6.71875 -5.921875 C 6.75 -5.796875 6.765625 -5.675781 6.765625 -5.5625 C 6.773438 -5.519531 6.78125 -5.476562 6.78125 -5.4375 L 6.78125 -5.375 L 5.140625 -5.375 L 5.140625 -5.359375 C 5.148438 -5.597656 5.09375 -5.800781 4.96875 -5.96875 C 4.707031 -6.320312 4.242188 -6.5 3.578125 -6.5 C 3.160156 -6.5 2.820312 -6.453125 2.5625 -6.359375 C 2.238281 -6.222656 2.078125 -6.035156 2.078125 -5.796875 C 2.078125 -5.304688 2.609375 -5 3.671875 -4.875 C 4.867188 -4.738281 5.726562 -4.367188 6.25 -3.765625 C 6.601562 -3.347656 6.78125 -2.878906 6.78125 -2.359375 L 6.78125 -2.25 C 6.78125 -2.207031 6.773438 -2.160156 6.765625 -2.109375 C 6.765625 -1.984375 6.75 -1.863281 6.71875 -1.75 C 6.644531 -1.425781 6.492188 -1.144531 6.265625 -0.90625 C 6.003906 -0.601562 5.648438 -0.375 5.203125 -0.21875 C 4.753906 -0.0625 4.195312 0.015625 3.53125 0.015625 Z M 3.53125 0.015625 "/></g></g></g><g fill="#ffffff" fill-opacity="1"><g transform="translate(192.052203, 31.218825)"><g><path d="M 6.296875 -2.8125 C 6.304688 -2.644531 6.304688 -2.546875 6.296875 -2.515625 L 1.796875 -2.53125 C 1.859375 -2.34375 1.972656 -2.164062 2.140625 -2 C 2.453125 -1.707031 2.8125 -1.5625 3.21875 -1.5625 C 3.65625 -1.570312 4.015625 -1.722656 4.296875 -2.015625 L 4.34375 -2.0625 L 5.90625 -1.5625 C 5.5625 -1.03125 5.203125 -0.648438 4.828125 -0.421875 C 4.398438 -0.148438 3.867188 -0.0078125 3.234375 0 C 2.390625 0.0078125 1.660156 -0.285156 1.046875 -0.890625 C 0.441406 -1.484375 0.132812 -2.207031 0.125 -3.0625 C 0.125 -3.914062 0.421875 -4.644531 1.015625 -5.25 C 1.617188 -5.851562 2.347656 -6.160156 3.203125 -6.171875 C 4.046875 -6.179688 4.769531 -5.882812 5.375 -5.28125 C 5.988281 -4.6875 6.296875 -3.960938 6.296875 -3.109375 Z M 3.21875 -4.609375 C 2.789062 -4.609375 2.429688 -4.457031 2.140625 -4.15625 C 1.984375 -3.988281 1.875 -3.820312 1.8125 -3.65625 L 4.625 -3.65625 C 4.5625 -3.820312 4.453125 -3.992188 4.296875 -4.171875 C 3.984375 -4.460938 3.625 -4.609375 3.21875 -4.609375 Z M 3.21875 -4.609375 "/></g></g></g><g fill="#ffffff" fill-opacity="1"><g transform="translate(198.484866, 31.218825)"><g><path d="M 7.1875 0.5625 L 6.34375 -0.28125 C 5.726562 0.0625 5.070312 0.234375 4.375 0.234375 C 3.257812 0.234375 2.3125 -0.160156 1.53125 -0.953125 C 0.75 -1.734375 0.359375 -2.675781 0.359375 -3.78125 C 0.359375 -4.894531 0.75 -5.84375 1.53125 -6.625 C 2.3125 -7.40625 3.257812 -7.796875 4.375 -7.796875 C 5.488281 -7.796875 6.4375 -7.40625 7.21875 -6.625 C 8 -5.84375 8.390625 -4.894531 8.390625 -3.78125 C 8.390625 -2.988281 8.164062 -2.25 7.71875 -1.5625 L 8.515625 -0.765625 Z M 4.375 -1.453125 C 4.625 -1.453125 4.851562 -1.488281 5.0625 -1.5625 L 4.359375 -2.265625 L 5.6875 -3.59375 L 6.484375 -2.796875 C 6.640625 -3.097656 6.71875 -3.425781 6.71875 -3.78125 C 6.71875 -4.425781 6.488281 -4.976562 6.03125 -5.4375 C 5.570312 -5.894531 5.019531 -6.125 4.375 -6.125 C 3.726562 -6.125 3.175781 -5.894531 2.71875 -5.4375 C 2.257812 -4.976562 2.03125 -4.425781 2.03125 -3.78125 C 2.03125 -3.132812 2.257812 -2.585938 2.71875 -2.140625 C 3.1875 -1.679688 3.738281 -1.453125 4.375 -1.453125 Z M 4.375 -1.453125 "/></g></g></g><g fill="#ffffff" fill-opacity="1"><g transform="translate(207.361225, 31.218825)"><g><path d="M 6.859375 -5.125 C 6.859375 -4.625 6.734375 -4.160156 6.484375 -3.734375 C 6.171875 -3.210938 5.734375 -2.851562 5.171875 -2.65625 L 6.84375 0 L 4.75 0 L 3.109375 -2.484375 L 2.234375 -2.484375 L 2.234375 0 L 0.359375 0 L 0.359375 -7.796875 L 4.09375 -7.796875 C 4.976562 -7.796875 5.679688 -7.503906 6.203125 -6.921875 C 6.640625 -6.398438 6.859375 -5.800781 6.859375 -5.125 Z M 2.234375 -6.109375 L 2.234375 -4.15625 L 4.078125 -4.15625 C 4.328125 -4.15625 4.53125 -4.191406 4.6875 -4.265625 C 4.8125 -4.335938 4.90625 -4.40625 4.96875 -4.46875 C 5.039062 -4.5625 5.097656 -4.675781 5.140625 -4.8125 C 5.171875 -4.914062 5.1875 -5.019531 5.1875 -5.125 C 5.1875 -5.238281 5.171875 -5.351562 5.140625 -5.46875 C 5.085938 -5.59375 5.019531 -5.703125 4.9375 -5.796875 C 4.757812 -6.003906 4.476562 -6.109375 4.09375 -6.109375 Z M 2.234375 -6.109375 "/></g></g></g><g fill="#ffffff" fill-opacity="1"><g transform="translate(214.584504, 31.218825)"><g><path d="M 2.03125 -8.359375 L 2.03125 -6.9375 L 0.359375 -6.9375 L 0.359375 -8.359375 Z M 2.03125 -6.15625 L 2.03125 0 L 0.359375 0 L 0.359375 -6.15625 Z M 2.03125 -6.15625 "/></g></g></g><g fill="#ffffff" fill-opacity="1"><g transform="translate(216.980288, 31.218825)"><g><path d="M 4.8125 -6.171875 L 4.8125 -4.5 L 3.421875 -4.5 L 3.421875 0 L 1.75 0 L 1.75 -4.5 L 0.359375 -4.5 L 0.359375 -6.171875 L 1.75 -6.171875 L 1.75 -8.328125 L 3.421875 -8.328125 L 3.421875 -6.171875 Z M 4.8125 -6.171875 "/></g></g></g><g fill="#ffffff" fill-opacity="1"><g transform="translate(222.143191, 31.218825)"><g><path d="M 6.171875 -6.1875 L 3.734375 0.28125 C 3.472656 0.914062 3.054688 1.421875 2.484375 1.796875 C 1.910156 2.171875 1.28125 2.351562 0.59375 2.34375 L 0.59375 0.65625 C 0.84375 0.664062 1.09375 0.613281 1.34375 0.5 C 1.695312 0.34375 1.960938 0.09375 2.140625 -0.25 L 2.46875 -1.171875 L 0.359375 -6.1875 L 2.203125 -6.1875 L 3.3125 -3.484375 L 4.3125 -6.1875 Z M 6.171875 -6.1875 "/></g></g></g><g fill="#ffffff" fill-opacity="1"><g transform="translate(228.683673, 31.218825)"><g/></g></g><g fill="#ffffff" fill-opacity="1"><g transform="translate(231.798183, 31.218825)"><g><path d="M 5.171875 -6.109375 L 2.234375 -6.109375 L 2.234375 -4.734375 L 4.421875 -4.734375 L 4.421875 -3.0625 L 2.234375 -3.0625 L 2.234375 0 L 0.359375 0 L 0.359375 -7.796875 L 5.171875 -7.796875 Z M 5.171875 -6.109375 "/></g></g></g><g fill="#ffffff" fill-opacity="1"><g transform="translate(237.332433, 31.218825)"><g><path d="M 2.03125 -5.25 C 2.164062 -5.632812 2.394531 -5.898438 2.71875 -6.046875 C 3.03125 -6.203125 3.5 -6.28125 4.125 -6.28125 L 4.125 -4.5625 C 3.519531 -4.5625 3.007812 -4.351562 2.59375 -3.9375 C 2.21875 -3.570312 2.03125 -3.171875 2.03125 -2.734375 L 2.03125 0 L 0.359375 0 L 0.359375 -6.171875 L 2.03125 -6.171875 Z M 2.03125 -5.25 "/></g></g></g><g fill="#ffffff" fill-opacity="1"><g transform="translate(241.632862, 31.218825)"><g><path d="M 2.03125 -8.359375 L 2.03125 -6.9375 L 0.359375 -6.9375 L 0.359375 -8.359375 Z M 2.03125 -6.15625 L 2.03125 0 L 0.359375 0 L 0.359375 -6.15625 Z M 2.03125 -6.15625 "/></g></g></g><g fill="#ffffff" fill-opacity="1"><g transform="translate(244.028646, 31.218825)"><g><path d="M 6.296875 -2.8125 C 6.304688 -2.644531 6.304688 -2.546875 6.296875 -2.515625 L 1.796875 -2.53125 C 1.859375 -2.34375 1.972656 -2.164062 2.140625 -2 C 2.453125 -1.707031 2.8125 -1.5625 3.21875 -1.5625 C 3.65625 -1.570312 4.015625 -1.722656 4.296875 -2.015625 L 4.34375 -2.0625 L 5.90625 -1.5625 C 5.5625 -1.03125 5.203125 -0.648438 4.828125 -0.421875 C 4.398438 -0.148438 3.867188 -0.0078125 3.234375 0 C 2.390625 0.0078125 1.660156 -0.285156 1.046875 -0.890625 C 0.441406 -1.484375 0.132812 -2.207031 0.125 -3.0625 C 0.125 -3.914062 0.421875 -4.644531 1.015625 -5.25 C 1.617188 -5.851562 2.347656 -6.160156 3.203125 -6.171875 C 4.046875 -6.179688 4.769531 -5.882812 5.375 -5.28125 C 5.988281 -4.6875 6.296875 -3.960938 6.296875 -3.109375 Z M 3.21875 -4.609375 C 2.789062 -4.609375 2.429688 -4.457031 2.140625 -4.15625 C 1.984375 -3.988281 1.875 -3.820312 1.8125 -3.65625 L 4.625 -3.65625 C 4.5625 -3.820312 4.453125 -3.992188 4.296875 -4.171875 C 3.984375 -4.460938 3.625 -4.609375 3.21875 -4.609375 Z M 3.21875 -4.609375 "/></g></g></g><g fill="#ffffff" fill-opacity="1"><g transform="translate(250.461309, 31.218825)"><g><path d="M 3.421875 -6.140625 C 4.304688 -6.210938 5.035156 -5.988281 5.609375 -5.46875 C 6.222656 -4.894531 6.53125 -4.097656 6.53125 -3.078125 L 6.53125 0 L 4.96875 0 L 4.96875 -3.0625 C 4.96875 -3.488281 4.816406 -3.847656 4.515625 -4.140625 C 4.222656 -4.441406 3.863281 -4.59375 3.4375 -4.59375 C 3.007812 -4.570312 2.648438 -4.421875 2.359375 -4.140625 C 2.054688 -3.828125 1.910156 -3.46875 1.921875 -3.0625 L 1.921875 0 L 0.234375 0 L 0.234375 -6.203125 L 1.921875 -6.203125 L 1.921875 -5.390625 C 2.296875 -5.835938 2.796875 -6.085938 3.421875 -6.140625 Z M 3.421875 -6.140625 "/></g></g></g><g fill="#ffffff" fill-opacity="1"><g transform="translate(257.229391, 31.218825)"><g><path d="M 5.1875 0 L 5.1875 -0.703125 C 4.613281 -0.234375 3.960938 0 3.234375 0 C 2.390625 0.0078125 1.660156 -0.285156 1.046875 -0.890625 C 0.441406 -1.484375 0.132812 -2.207031 0.125 -3.0625 C 0.125 -3.914062 0.421875 -4.644531 1.015625 -5.25 C 1.617188 -5.851562 2.347656 -6.160156 3.203125 -6.171875 C 3.941406 -6.171875 4.597656 -5.9375 5.171875 -5.46875 L 5.171875 -8.359375 L 6.859375 -8.359375 L 6.859375 0 Z M 4.296875 -2.015625 C 4.597656 -2.304688 4.75 -2.664062 4.75 -3.09375 C 4.726562 -3.519531 4.578125 -3.878906 4.296875 -4.171875 C 3.984375 -4.460938 3.625 -4.609375 3.21875 -4.609375 C 2.789062 -4.609375 2.429688 -4.457031 2.140625 -4.15625 C 1.835938 -3.832031 1.691406 -3.472656 1.703125 -3.078125 C 1.703125 -2.648438 1.847656 -2.289062 2.140625 -2 C 2.441406 -1.707031 2.800781 -1.5625 3.21875 -1.5625 C 3.65625 -1.570312 4.015625 -1.722656 4.296875 -2.015625 Z M 4.296875 -2.015625 "/></g></g></g><g clip-path="url(#2f4896d9e5)"><path fill="#fdd158" d="M 315.046875 46.398438 C 315.445312 46.929688 315.726562 47.554688 316.019531 48.15625 C 316.417969 48.960938 316.847656 49.761719 317.125 50.613281 C 317.320312 51.214844 317.492188 51.324219 317.53125 51.964844 C 317.53125 51.964844 317.492188 57.785156 317.46875 59.664062 L 322.042969 59.664062 C 322.070312 57.878906 322.167969 52.96875 322.195312 52.300781 C 322.226562 51.460938 322.820312 50.964844 323.363281 50.46875 C 324.273438 49.640625 325.269531 48.925781 326.007812 47.902344 C 326.332031 47.457031 326.886719 47.164062 327.371094 46.855469 C 327.726562 46.625 328.144531 46.492188 328.523438 46.289062 C 328.636719 46.226562 328.773438 46.078125 328.777344 45.960938 C 328.78125 45.855469 328.644531 45.707031 328.535156 45.640625 C 327.65625 45.105469 326.835938 45.371094 326.050781 45.867188 C 325.460938 46.234375 324.894531 46.636719 324.3125 47.015625 C 323.730469 47.394531 323.011719 47.050781 322.847656 46.253906 C 322.675781 45.40625 322.613281 44.558594 322.851562 43.59375 C 322.90625 43.363281 323.207031 41.351562 323.261719 40.535156 C 323.285156 40.195312 323.226562 39.871094 322.800781 39.8125 C 322.300781 39.746094 322.117188 40.105469 322.046875 40.628906 C 321.914062 41.625 321.628906 42.59375 321.277344 43.539062 C 321.175781 43.816406 321.136719 44.175781 320.964844 44.433594 C 320.890625 44.539062 320.679688 44.621094 320.542969 44.601562 C 320.410156 44.585938 320.21875 44.445312 320.1875 44.328125 C 320.035156 43.71875 319.882812 43.089844 319.6875 42.496094 C 319.367188 41.527344 319.082031 40.566406 318.691406 39.621094 C 318.535156 39.242188 318.148438 39.308594 317.84375 39.386719 C 317.519531 39.46875 317.527344 39.753906 317.582031 40.027344 C 317.851562 41.394531 318.125 42.761719 318.390625 44.132812 C 318.417969 44.257812 318.421875 44.386719 318.4375 44.511719 C 318.445312 44.597656 318.363281 44.625 318.363281 44.625 C 318.320312 44.652344 318.234375 44.664062 317.984375 44.316406 C 317.980469 44.308594 317.976562 44.300781 317.972656 44.296875 C 317.441406 43.28125 316.933594 42.253906 316.398438 41.246094 C 316.140625 40.765625 315.832031 40.585938 315.457031 40.773438 C 315.226562 40.890625 315.128906 41.164062 315.226562 41.402344 C 315.742188 42.660156 316.269531 43.941406 316.792969 45.21875 C 316.832031 45.320312 316.898438 45.421875 316.894531 45.523438 C 316.886719 45.664062 316.867188 45.863281 316.777344 45.921875 C 316.699219 45.976562 316.476562 45.921875 316.382812 45.839844 C 315.6875 45.230469 315.003906 44.601562 314.320312 43.976562 C 314.140625 43.8125 314 43.582031 313.792969 43.480469 C 313.59375 43.382812 313.324219 43.351562 313.101562 43.390625 C 312.796875 43.453125 312.710938 43.636719 312.957031 43.921875 C 313.667969 44.734375 314.398438 45.535156 315.046875 46.398438 " fill-opacity="1" fill-rule="nonzero"/></g><g clip-path="url(#2f9c790abe)"><path fill="#f15839" d="M 270.960938 42.980469 C 271.449219 43.625 271.789062 44.386719 272.152344 45.121094 C 272.632812 46.105469 273.160156 47.082031 273.5 48.117188 C 273.734375 48.847656 273.945312 48.984375 273.996094 49.765625 C 273.996094 49.765625 273.9375 57.136719 273.90625 59.664062 L 279.484375 59.664062 C 279.519531 57.316406 279.648438 50.988281 279.675781 50.171875 C 279.714844 49.152344 280.4375 48.546875 281.101562 47.941406 C 282.210938 46.933594 283.425781 46.058594 284.328125 44.8125 C 284.722656 44.265625 285.398438 43.914062 285.988281 43.535156 C 286.421875 43.253906 286.933594 43.09375 287.390625 42.847656 C 287.53125 42.769531 287.695312 42.589844 287.703125 42.449219 C 287.707031 42.316406 287.542969 42.136719 287.40625 42.054688 C 286.335938 41.402344 285.332031 41.730469 284.375 42.328125 C 283.660156 42.777344 282.96875 43.269531 282.257812 43.734375 C 281.550781 44.195312 280.675781 43.777344 280.472656 42.800781 C 280.261719 41.769531 280.277344 40.871094 280.5625 39.6875 C 280.632812 39.410156 280.714844 39.113281 280.742188 38.816406 C 280.824219 37.820312 280.914062 36.828125 280.980469 35.832031 C 281.007812 35.417969 280.933594 35.019531 280.417969 34.949219 C 279.808594 34.867188 279.585938 35.308594 279.5 35.941406 C 279.335938 37.160156 278.984375 38.339844 278.558594 39.492188 C 278.4375 39.832031 278.386719 40.269531 278.179688 40.582031 C 278.089844 40.714844 277.828125 40.8125 277.664062 40.789062 C 277.503906 40.769531 277.269531 40.597656 277.234375 40.453125 C 277.042969 39.710938 276.859375 38.945312 276.621094 38.222656 C 276.234375 37.039062 275.882812 35.867188 275.40625 34.71875 C 275.214844 34.253906 274.746094 34.335938 274.375 34.429688 C 273.976562 34.527344 273.988281 34.878906 274.054688 35.210938 C 274.382812 36.878906 274.714844 38.546875 275.042969 40.214844 C 275.070312 40.367188 275.082031 40.523438 275.097656 40.679688 C 275.109375 40.785156 275.003906 40.816406 275.003906 40.816406 C 274.953125 40.851562 274.851562 40.867188 274.546875 40.441406 C 274.539062 40.433594 274.535156 40.421875 274.53125 40.414062 C 273.882812 39.179688 273.265625 37.929688 272.609375 36.699219 C 272.296875 36.109375 271.921875 35.894531 271.464844 36.125 C 271.183594 36.261719 271.0625 36.597656 271.183594 36.886719 C 271.8125 38.421875 272.453125 39.980469 273.089844 41.542969 C 273.140625 41.664062 273.21875 41.789062 273.214844 41.910156 C 273.207031 42.082031 273.183594 42.324219 273.074219 42.398438 C 272.976562 42.464844 272.707031 42.398438 272.59375 42.296875 C 271.742188 41.554688 270.910156 40.789062 270.078125 40.027344 C 269.859375 39.828125 269.6875 39.546875 269.4375 39.421875 C 269.191406 39.300781 268.859375 39.261719 268.59375 39.3125 C 268.222656 39.386719 268.113281 39.613281 268.414062 39.957031 C 269.28125 40.949219 270.171875 41.925781 270.960938 42.980469 " fill-opacity="1" fill-rule="nonzero"/></g><g clip-path="url(#5a6f9372ee)"><path fill="#e467b4" d="M 285.050781 48.265625 C 285.460938 48.484375 285.914062 48.628906 286.304688 48.878906 C 286.828125 49.214844 287.433594 49.53125 287.785156 50.019531 C 288.589844 51.128906 289.671875 51.910156 290.660156 52.808594 C 291.253906 53.347656 291.898438 53.890625 291.933594 54.800781 C 291.960938 55.527344 292.027344 58.769531 292.042969 59.664062 L 297.023438 59.664062 C 297.015625 59.335938 297.003906 54.4375 297.003906 54.4375 C 297.046875 53.742188 297.234375 53.621094 297.445312 52.96875 C 297.746094 52.042969 298.21875 51.171875 298.648438 50.292969 C 298.96875 49.636719 299.273438 48.960938 299.707031 48.382812 C 300.414062 47.445312 301.207031 46.574219 301.980469 45.6875 C 302.25 45.378906 302.152344 45.175781 301.824219 45.113281 C 301.582031 45.066406 301.285156 45.101562 301.070312 45.210938 C 300.847656 45.320312 300.691406 45.570312 300.5 45.75 C 299.753906 46.429688 299.011719 47.109375 298.253906 47.773438 C 298.152344 47.863281 297.910156 47.925781 297.824219 47.867188 C 297.726562 47.800781 297.703125 47.582031 297.699219 47.429688 C 297.695312 47.320312 297.765625 47.207031 297.808594 47.101562 C 298.378906 45.707031 298.949219 44.320312 299.511719 42.949219 C 299.617188 42.691406 299.511719 42.390625 299.261719 42.265625 C 298.851562 42.0625 298.515625 42.253906 298.238281 42.777344 C 297.652344 43.878906 297.101562 44.992188 296.527344 46.09375 C 296.523438 46.101562 296.515625 46.109375 296.511719 46.117188 C 296.238281 46.496094 296.148438 46.484375 296.101562 46.453125 C 296.101562 46.453125 296.007812 46.425781 296.019531 46.332031 C 296.035156 46.191406 296.042969 46.054688 296.070312 45.917969 C 296.359375 44.429688 296.65625 42.941406 296.949219 41.453125 C 297.007812 41.15625 297.019531 40.84375 296.664062 40.753906 C 296.332031 40.671875 295.914062 40.601562 295.742188 41.011719 C 295.316406 42.039062 295.007812 43.082031 294.660156 44.136719 C 294.449219 44.78125 294.28125 45.46875 294.113281 46.128906 C 294.082031 46.257812 293.875 46.410156 293.730469 46.429688 C 293.582031 46.449219 293.351562 46.363281 293.269531 46.242188 C 293.082031 45.960938 293.039062 45.566406 292.925781 45.261719 C 292.539062 44.238281 292.238281 43.1875 292.089844 42.101562 C 292.015625 41.539062 291.816406 41.148438 291.273438 41.21875 C 290.808594 41.28125 290.746094 41.636719 290.773438 42.007812 C 290.832031 42.894531 290.910156 43.78125 290.984375 44.667969 C 291.007812 44.933594 291.082031 45.199219 291.140625 45.449219 C 291.398438 46.5 291.410156 47.304688 291.222656 48.222656 C 291.042969 49.09375 290.261719 49.46875 289.628906 49.054688 C 288.996094 48.640625 288.378906 48.203125 287.742188 47.804688 C 286.886719 47.265625 285.992188 46.976562 285.039062 47.558594 C 284.917969 47.628906 284.769531 47.792969 284.773438 47.910156 C 284.78125 48.035156 284.925781 48.195312 285.050781 48.265625 " fill-opacity="1" fill-rule="nonzero"/></g><g clip-path="url(#a75d74d944)"><path fill="#55a899" d="M 296.230469 37.050781 C 296.707031 37.308594 297.238281 37.476562 297.691406 37.765625 C 298.304688 38.160156 299.007812 38.527344 299.417969 39.09375 C 300.355469 40.390625 301.621094 41.304688 302.773438 42.351562 C 303.464844 42.980469 304.21875 43.609375 304.257812 44.675781 C 304.289062 45.523438 304.507812 57.925781 304.550781 59.664062 L 310.285156 59.664062 C 310.269531 54.753906 310.171875 44.25 310.171875 44.25 C 310.222656 43.4375 310.441406 43.296875 310.691406 42.535156 C 311.039062 41.457031 311.589844 40.4375 312.09375 39.414062 C 312.464844 38.652344 312.824219 37.859375 313.328125 37.1875 C 314.152344 36.09375 315.078125 35.074219 315.980469 34.042969 C 316.292969 33.683594 316.183594 33.449219 315.796875 33.371094 C 315.515625 33.316406 315.171875 33.359375 314.917969 33.484375 C 314.65625 33.617188 314.476562 33.90625 314.25 34.113281 C 313.382812 34.90625 312.515625 35.703125 311.632812 36.476562 C 311.511719 36.582031 311.234375 36.652344 311.128906 36.582031 C 311.015625 36.507812 310.992188 36.253906 310.984375 36.074219 C 310.980469 35.949219 311.0625 35.816406 311.113281 35.691406 C 311.777344 34.066406 312.445312 32.445312 313.101562 30.847656 C 313.222656 30.546875 313.097656 30.195312 312.808594 30.050781 C 312.332031 29.8125 311.941406 30.039062 311.613281 30.648438 C 310.933594 31.929688 310.289062 33.230469 309.617188 34.519531 C 309.613281 34.527344 309.605469 34.535156 309.601562 34.546875 C 309.28125 34.988281 309.175781 34.972656 309.121094 34.9375 C 309.121094 34.9375 309.015625 34.902344 309.027344 34.792969 C 309.042969 34.632812 309.054688 34.46875 309.082031 34.3125 C 309.425781 32.574219 309.769531 30.839844 310.113281 29.105469 C 310.179688 28.757812 310.191406 28.390625 309.777344 28.289062 C 309.390625 28.191406 308.902344 28.105469 308.703125 28.585938 C 308.207031 29.785156 307.84375 31.003906 307.4375 32.234375 C 307.191406 32.988281 307 33.785156 306.804688 34.558594 C 306.765625 34.710938 306.523438 34.886719 306.355469 34.90625 C 306.183594 34.929688 305.914062 34.828125 305.820312 34.691406 C 305.597656 34.363281 305.550781 33.898438 305.417969 33.546875 C 304.96875 32.355469 304.613281 31.125 304.445312 29.859375 C 304.355469 29.203125 304.121094 28.746094 303.488281 28.832031 C 302.949219 28.902344 302.875 29.316406 302.902344 29.746094 C 302.972656 30.785156 303.0625 31.820312 303.152344 32.851562 C 303.179688 33.164062 303.265625 33.472656 303.335938 33.761719 C 303.636719 34.992188 303.648438 35.929688 303.429688 37 C 303.21875 38.015625 302.308594 38.453125 301.570312 37.972656 C 300.835938 37.488281 300.113281 36.980469 299.367188 36.511719 C 298.371094 35.886719 297.328125 35.546875 296.214844 36.222656 C 296.074219 36.308594 295.902344 36.5 295.90625 36.632812 C 295.914062 36.78125 296.082031 36.96875 296.230469 37.050781 " fill-opacity="1" fill-rule="nonzero"/></g><g clip-path="url(#099e8ef9f3)"><path fill="#fdd158" d="M 150.6875 47.109375 C 151.222656 47.816406 151.601562 48.648438 152 49.449219 C 152.53125 50.523438 153.113281 51.59375 153.484375 52.726562 C 153.746094 53.527344 153.980469 53.675781 154.035156 54.53125 C 154.035156 54.53125 153.976562 62.292969 153.945312 64.796875 L 160.101562 64.796875 C 160.140625 62.414062 160.273438 55.867188 160.308594 54.976562 C 160.347656 53.859375 161.148438 53.195312 161.878906 52.535156 C 163.105469 51.433594 164.445312 50.476562 165.441406 49.113281 C 165.875 48.515625 166.621094 48.128906 167.273438 47.714844 C 167.753906 47.410156 168.316406 47.234375 168.820312 46.964844 C 168.976562 46.878906 169.15625 46.679688 169.164062 46.527344 C 169.171875 46.386719 168.988281 46.1875 168.839844 46.097656 C 167.65625 45.386719 166.550781 45.742188 165.496094 46.398438 C 164.703125 46.890625 163.9375 47.425781 163.15625 47.933594 C 162.375 48.4375 161.410156 47.980469 161.1875 46.914062 C 160.953125 45.785156 160.871094 44.65625 161.1875 43.367188 C 161.265625 43.0625 161.671875 40.378906 161.746094 39.292969 C 161.773438 38.835938 161.695312 38.402344 161.125 38.328125 C 160.453125 38.238281 160.203125 38.71875 160.109375 39.414062 C 159.929688 40.742188 159.542969 42.035156 159.074219 43.292969 C 158.9375 43.664062 158.882812 44.144531 158.652344 44.484375 C 158.550781 44.632812 158.265625 44.738281 158.082031 44.714844 C 157.90625 44.691406 157.648438 44.503906 157.609375 44.34375 C 157.398438 43.535156 157.195312 42.695312 156.933594 41.90625 C 156.503906 40.609375 156.121094 39.332031 155.59375 38.070312 C 155.382812 37.566406 154.863281 37.65625 154.453125 37.757812 C 154.015625 37.867188 154.027344 38.25 154.097656 38.613281 C 154.464844 40.4375 154.828125 42.261719 155.191406 44.085938 C 155.222656 44.253906 155.234375 44.425781 155.25 44.59375 C 155.261719 44.707031 155.148438 44.742188 155.148438 44.742188 C 155.09375 44.78125 154.980469 44.796875 154.640625 44.332031 C 154.636719 44.324219 154.628906 44.3125 154.625 44.304688 C 153.910156 42.953125 153.230469 41.585938 152.503906 40.238281 C 152.160156 39.597656 151.746094 39.359375 151.238281 39.609375 C 150.933594 39.761719 150.796875 40.128906 150.929688 40.445312 C 151.625 42.125 152.332031 43.832031 153.035156 45.535156 C 153.09375 45.667969 153.179688 45.808594 153.175781 45.941406 C 153.164062 46.128906 153.140625 46.394531 153.019531 46.472656 C 152.910156 46.546875 152.613281 46.472656 152.488281 46.363281 C 151.546875 45.550781 150.628906 44.714844 149.710938 43.878906 C 149.46875 43.660156 149.277344 43.355469 149.003906 43.21875 C 148.734375 43.085938 148.367188 43.042969 148.070312 43.097656 C 147.660156 43.179688 147.542969 43.425781 147.875 43.804688 C 148.832031 44.890625 149.816406 45.957031 150.6875 47.109375 " fill-opacity="1" fill-rule="nonzero"/></g><g clip-path="url(#fba06c3855)"><path fill="#f15839" d="M 91.363281 42.546875 C 92.015625 43.410156 92.480469 44.425781 92.964844 45.402344 C 93.613281 46.714844 94.324219 48.015625 94.777344 49.398438 C 95.09375 50.375 95.378906 50.554688 95.445312 51.597656 C 95.445312 51.597656 95.367188 61.421875 95.328125 64.796875 L 102.832031 64.796875 C 102.878906 61.664062 103.050781 53.226562 103.089844 52.140625 C 103.144531 50.777344 104.117188 49.96875 105.011719 49.164062 C 106.5 47.820312 108.136719 46.652344 109.347656 44.992188 C 109.878906 44.265625 110.792969 43.792969 111.582031 43.289062 C 112.167969 42.917969 112.855469 42.703125 113.472656 42.371094 C 113.664062 42.269531 113.882812 42.027344 113.890625 41.839844 C 113.898438 41.667969 113.675781 41.425781 113.492188 41.3125 C 112.050781 40.449219 110.703125 40.882812 109.414062 41.683594 C 108.449219 42.28125 107.519531 42.933594 106.566406 43.554688 C 105.613281 44.167969 104.433594 43.609375 104.164062 42.308594 C 103.878906 40.9375 103.898438 39.734375 104.285156 38.160156 C 104.375 37.792969 104.488281 37.394531 104.523438 36.996094 C 104.636719 35.671875 104.753906 34.34375 104.84375 33.019531 C 104.878906 32.464844 104.785156 31.933594 104.089844 31.84375 C 103.269531 31.734375 102.96875 32.320312 102.851562 33.167969 C 102.632812 34.789062 102.160156 36.363281 101.589844 37.898438 C 101.421875 38.351562 101.355469 38.933594 101.074219 39.351562 C 100.953125 39.527344 100.605469 39.65625 100.382812 39.628906 C 100.164062 39.601562 99.851562 39.375 99.800781 39.179688 C 99.546875 38.191406 99.300781 37.167969 98.980469 36.207031 C 98.457031 34.628906 97.988281 33.066406 97.34375 31.53125 C 97.085938 30.917969 96.457031 31.027344 95.953125 31.148438 C 95.421875 31.28125 95.4375 31.75 95.523438 32.191406 C 95.96875 34.417969 96.414062 36.640625 96.851562 38.863281 C 96.894531 39.066406 96.90625 39.277344 96.929688 39.484375 C 96.941406 39.621094 96.804688 39.667969 96.804688 39.667969 C 96.734375 39.710938 96.597656 39.730469 96.1875 39.164062 C 96.179688 39.152344 96.171875 39.140625 96.164062 39.128906 C 95.292969 37.480469 94.464844 35.8125 93.582031 34.171875 C 93.160156 33.390625 92.65625 33.101562 92.039062 33.40625 C 91.664062 33.59375 91.5 34.039062 91.660156 34.425781 C 92.507812 36.472656 93.367188 38.550781 94.230469 40.632812 C 94.296875 40.792969 94.402344 40.960938 94.394531 41.125 C 94.386719 41.351562 94.351562 41.675781 94.207031 41.777344 C 94.074219 41.863281 93.714844 41.773438 93.558594 41.640625 C 92.414062 40.648438 91.292969 39.628906 90.171875 38.613281 C 89.878906 38.347656 89.648438 37.972656 89.308594 37.804688 C 88.984375 37.644531 88.535156 37.59375 88.175781 37.660156 C 87.675781 37.757812 87.53125 38.058594 87.9375 38.519531 C 89.105469 39.84375 90.300781 41.144531 91.363281 42.546875 " fill-opacity="1" fill-rule="nonzero"/></g><g clip-path="url(#8dd3dfb99f)"><path fill="#e467b4" d="M 110.324219 49.597656 C 110.875 49.890625 111.484375 50.082031 112.007812 50.414062 C 112.714844 50.863281 113.527344 51.285156 114.003906 51.933594 C 115.082031 53.414062 116.542969 54.457031 117.875 55.65625 C 118.671875 56.375 119.539062 57.09375 119.585938 58.3125 C 119.621094 59.28125 119.710938 63.605469 119.730469 64.796875 L 126.433594 64.796875 C 126.425781 64.359375 126.40625 57.824219 126.40625 57.824219 C 126.464844 56.898438 126.71875 56.734375 127.003906 55.867188 C 127.40625 54.632812 128.039062 53.46875 128.621094 52.300781 C 129.054688 51.425781 129.464844 50.523438 130.046875 49.753906 C 130.996094 48.5 132.066406 47.339844 133.105469 46.160156 C 133.464844 45.75 133.339844 45.480469 132.890625 45.394531 C 132.570312 45.332031 132.171875 45.378906 131.878906 45.523438 C 131.578125 45.671875 131.371094 46.003906 131.109375 46.242188 C 130.109375 47.148438 129.109375 48.058594 128.089844 48.941406 C 127.953125 49.0625 127.628906 49.144531 127.511719 49.0625 C 127.378906 48.976562 127.351562 48.6875 127.34375 48.484375 C 127.335938 48.339844 127.433594 48.1875 127.492188 48.042969 C 128.257812 46.1875 129.027344 44.335938 129.785156 42.507812 C 129.925781 42.164062 129.78125 41.765625 129.449219 41.597656 C 128.894531 41.324219 128.445312 41.582031 128.070312 42.28125 C 127.28125 43.746094 126.539062 45.234375 125.765625 46.703125 C 125.757812 46.714844 125.753906 46.722656 125.746094 46.734375 C 125.378906 47.238281 125.253906 47.21875 125.195312 47.183594 C 125.195312 47.183594 125.070312 47.140625 125.082031 47.019531 C 125.101562 46.832031 125.113281 46.648438 125.148438 46.464844 C 125.542969 44.480469 125.941406 42.5 126.335938 40.515625 C 126.414062 40.117188 126.425781 39.703125 125.953125 39.582031 C 125.503906 39.472656 124.941406 39.375 124.710938 39.925781 C 124.136719 41.292969 123.71875 42.6875 123.253906 44.09375 C 122.96875 44.953125 122.746094 45.867188 122.519531 46.75 C 122.476562 46.921875 122.195312 47.125 122.003906 47.148438 C 121.804688 47.175781 121.492188 47.058594 121.386719 46.902344 C 121.128906 46.523438 121.074219 45.996094 120.921875 45.59375 C 120.402344 44.230469 119.996094 42.828125 119.796875 41.378906 C 119.695312 40.628906 119.425781 40.105469 118.695312 40.203125 C 118.074219 40.285156 117.988281 40.757812 118.023438 41.25 C 118.101562 42.433594 118.207031 43.617188 118.308594 44.800781 C 118.339844 45.15625 118.4375 45.511719 118.519531 45.839844 C 118.867188 47.242188 118.882812 48.316406 118.628906 49.539062 C 118.386719 50.703125 117.335938 51.199219 116.484375 50.648438 C 115.632812 50.097656 114.804688 49.515625 113.941406 48.980469 C 112.792969 48.265625 111.59375 47.878906 110.304688 48.652344 C 110.144531 48.75 109.945312 48.96875 109.949219 49.121094 C 109.957031 49.289062 110.152344 49.503906 110.324219 49.597656 " fill-opacity="1" fill-rule="nonzero"/></g><g clip-path="url(#2bd60bceea)"><path fill="#55a899" d="M 125.367188 34.644531 C 126.011719 34.984375 126.722656 35.210938 127.332031 35.597656 C 128.15625 36.121094 129.105469 36.613281 129.660156 37.367188 C 130.921875 39.097656 132.621094 40.3125 134.175781 41.710938 C 135.105469 42.550781 136.117188 43.390625 136.171875 44.808594 C 136.214844 45.941406 136.503906 62.476562 136.5625 64.796875 L 144.28125 64.796875 C 144.257812 58.25 144.128906 44.242188 144.128906 44.242188 C 144.199219 43.160156 144.492188 42.972656 144.824219 41.957031 C 145.296875 40.519531 146.035156 39.160156 146.710938 37.796875 C 147.214844 36.777344 147.695312 35.722656 148.375 34.824219 C 149.480469 33.367188 150.730469 32.011719 151.945312 30.632812 C 152.367188 30.152344 152.214844 29.839844 151.695312 29.738281 C 151.320312 29.667969 150.855469 29.722656 150.515625 29.890625 C 150.164062 30.0625 149.921875 30.453125 149.617188 30.730469 C 148.449219 31.785156 147.285156 32.847656 146.09375 33.878906 C 145.933594 34.019531 145.554688 34.113281 145.417969 34.023438 C 145.265625 33.917969 145.230469 33.582031 145.222656 33.34375 C 145.214844 33.175781 145.328125 33 145.394531 32.832031 C 146.289062 30.667969 147.1875 28.503906 148.070312 26.375 C 148.234375 25.972656 148.066406 25.507812 147.679688 25.3125 C 147.035156 24.992188 146.507812 25.292969 146.070312 26.109375 C 145.152344 27.816406 144.285156 29.550781 143.378906 31.265625 C 143.375 31.28125 143.367188 31.292969 143.359375 31.304688 C 142.929688 31.894531 142.785156 31.871094 142.714844 31.828125 C 142.714844 31.828125 142.570312 31.78125 142.585938 31.636719 C 142.609375 31.417969 142.621094 31.203125 142.664062 30.992188 C 143.121094 28.675781 143.585938 26.363281 144.046875 24.046875 C 144.140625 23.585938 144.152344 23.097656 143.601562 22.960938 C 143.078125 22.832031 142.421875 22.71875 142.152344 23.359375 C 141.484375 24.957031 140.996094 26.582031 140.453125 28.222656 C 140.117188 29.226562 139.859375 30.289062 139.59375 31.320312 C 139.542969 31.523438 139.21875 31.757812 138.992188 31.785156 C 138.761719 31.816406 138.398438 31.683594 138.273438 31.496094 C 137.972656 31.058594 137.910156 30.441406 137.730469 29.972656 C 137.125 28.382812 136.648438 26.746094 136.421875 25.058594 C 136.300781 24.179688 135.984375 23.570312 135.132812 23.683594 C 134.410156 23.777344 134.308594 24.332031 134.347656 24.90625 C 134.441406 26.289062 134.5625 27.667969 134.683594 29.046875 C 134.71875 29.460938 134.835938 29.875 134.929688 30.261719 C 135.332031 31.898438 135.351562 33.148438 135.054688 34.578125 C 134.773438 35.933594 133.546875 36.511719 132.554688 35.871094 C 131.5625 35.230469 130.59375 34.546875 129.589844 33.925781 C 128.25 33.089844 126.847656 32.640625 125.347656 33.542969 C 125.15625 33.65625 124.921875 33.910156 124.933594 34.085938 C 124.941406 34.285156 125.167969 34.535156 125.367188 34.644531 " fill-opacity="1" fill-rule="nonzero"/></g><g clip-path="url(#f1db47130f)"><path fill="#fdd158" d="M 66.734375 50.222656 C 67.109375 50.714844 67.375 51.292969 67.648438 51.851562 C 68.023438 52.601562 68.429688 53.34375 68.6875 54.136719 C 68.871094 54.691406 69.03125 54.796875 69.070312 55.390625 C 69.070312 55.390625 69.03125 60.796875 69.007812 62.539062 L 73.300781 62.539062 C 73.328125 60.882812 73.421875 56.320312 73.445312 55.699219 C 73.472656 54.921875 74.03125 54.460938 74.539062 54 C 75.394531 53.234375 76.328125 52.566406 77.023438 51.617188 C 77.328125 51.203125 77.847656 50.933594 78.300781 50.644531 C 78.636719 50.433594 79.027344 50.308594 79.382812 50.121094 C 79.492188 50.0625 79.617188 49.921875 79.621094 49.816406 C 79.625 49.71875 79.496094 49.578125 79.394531 49.515625 C 78.570312 49.019531 77.796875 49.269531 77.0625 49.726562 C 76.507812 50.070312 75.976562 50.441406 75.429688 50.796875 C 74.886719 51.148438 74.210938 50.828125 74.058594 50.085938 C 73.894531 49.300781 73.835938 48.515625 74.058594 47.617188 C 74.113281 47.402344 74.394531 45.535156 74.445312 44.777344 C 74.46875 44.460938 74.414062 44.15625 74.015625 44.105469 C 73.546875 44.042969 73.371094 44.378906 73.308594 44.863281 C 73.179688 45.789062 72.910156 46.6875 72.585938 47.566406 C 72.488281 47.824219 72.453125 48.15625 72.289062 48.394531 C 72.21875 48.496094 72.019531 48.570312 71.894531 48.554688 C 71.769531 48.539062 71.589844 48.410156 71.5625 48.296875 C 71.417969 47.730469 71.273438 47.148438 71.089844 46.597656 C 70.792969 45.695312 70.523438 44.804688 70.15625 43.929688 C 70.007812 43.578125 69.648438 43.640625 69.359375 43.710938 C 69.058594 43.785156 69.066406 44.050781 69.117188 44.304688 C 69.367188 45.574219 69.625 46.84375 69.875 48.117188 C 69.898438 48.234375 69.90625 48.351562 69.917969 48.46875 C 69.925781 48.550781 69.847656 48.574219 69.847656 48.574219 C 69.808594 48.597656 69.730469 48.613281 69.492188 48.289062 C 69.488281 48.28125 69.484375 48.273438 69.480469 48.269531 C 68.984375 47.328125 68.507812 46.375 68.003906 45.4375 C 67.761719 44.988281 67.476562 44.824219 67.121094 45 C 66.90625 45.105469 66.8125 45.359375 66.902344 45.582031 C 67.390625 46.75 67.882812 47.9375 68.375 49.125 C 68.414062 49.21875 68.472656 49.316406 68.46875 49.40625 C 68.464844 49.539062 68.445312 49.722656 68.359375 49.78125 C 68.285156 49.832031 68.078125 49.777344 67.992188 49.703125 C 67.335938 49.136719 66.695312 48.554688 66.054688 47.972656 C 65.886719 47.820312 65.753906 47.605469 65.5625 47.511719 C 65.375 47.421875 65.117188 47.390625 64.910156 47.429688 C 64.625 47.484375 64.542969 47.65625 64.777344 47.921875 C 65.441406 48.675781 66.128906 49.417969 66.734375 50.222656 " fill-opacity="1" fill-rule="nonzero"/></g><g clip-path="url(#b49de420f5)"><path fill="#f15839" d="M 25.367188 47.046875 C 25.820312 47.644531 26.144531 48.351562 26.480469 49.03125 C 26.933594 49.945312 27.429688 50.855469 27.746094 51.816406 C 27.96875 52.496094 28.167969 52.621094 28.210938 53.347656 C 28.210938 53.347656 28.160156 60.191406 28.128906 62.539062 L 33.363281 62.539062 C 33.394531 60.359375 33.515625 54.484375 33.542969 53.726562 C 33.582031 52.777344 34.257812 52.214844 34.882812 51.652344 C 35.921875 50.71875 37.0625 49.90625 37.90625 48.746094 C 38.277344 48.242188 38.914062 47.914062 39.464844 47.5625 C 39.875 47.300781 40.351562 47.152344 40.78125 46.921875 C 40.914062 46.851562 41.070312 46.683594 41.074219 46.550781 C 41.082031 46.433594 40.925781 46.261719 40.796875 46.1875 C 39.792969 45.582031 38.851562 45.882812 37.953125 46.441406 C 37.28125 46.859375 36.632812 47.316406 35.96875 47.746094 C 35.304688 48.175781 34.480469 47.785156 34.292969 46.878906 C 34.09375 45.921875 34.105469 45.085938 34.375 43.992188 C 34.441406 43.734375 34.519531 43.457031 34.542969 43.179688 C 34.621094 42.257812 34.703125 41.332031 34.765625 40.410156 C 34.792969 40.023438 34.726562 39.652344 34.238281 39.589844 C 33.667969 39.515625 33.457031 39.921875 33.378906 40.511719 C 33.222656 41.640625 32.894531 42.738281 32.496094 43.808594 C 32.378906 44.121094 32.335938 44.527344 32.136719 44.820312 C 32.054688 44.941406 31.808594 45.03125 31.652344 45.011719 C 31.503906 44.992188 31.285156 44.835938 31.25 44.699219 C 31.074219 44.011719 30.898438 43.300781 30.675781 42.628906 C 30.3125 41.527344 29.984375 40.441406 29.539062 39.375 C 29.355469 38.945312 28.917969 39.019531 28.566406 39.109375 C 28.195312 39.199219 28.207031 39.523438 28.265625 39.832031 C 28.578125 41.382812 28.886719 42.929688 29.195312 44.480469 C 29.222656 44.621094 29.230469 44.765625 29.246094 44.910156 C 29.257812 45.007812 29.160156 45.039062 29.160156 45.039062 C 29.113281 45.070312 29.015625 45.082031 28.730469 44.6875 C 28.722656 44.679688 28.71875 44.671875 28.714844 44.664062 C 28.105469 43.515625 27.527344 42.355469 26.914062 41.214844 C 26.621094 40.667969 26.269531 40.464844 25.835938 40.679688 C 25.574219 40.808594 25.460938 41.121094 25.570312 41.390625 C 26.164062 42.816406 26.765625 44.261719 27.363281 45.710938 C 27.410156 45.824219 27.484375 45.941406 27.480469 46.054688 C 27.472656 46.214844 27.449219 46.4375 27.347656 46.507812 C 27.257812 46.570312 27.003906 46.507812 26.898438 46.414062 C 26.097656 45.722656 25.316406 45.011719 24.535156 44.304688 C 24.332031 44.117188 24.167969 43.859375 23.933594 43.742188 C 23.707031 43.628906 23.394531 43.59375 23.144531 43.640625 C 22.792969 43.710938 22.695312 43.917969 22.976562 44.242188 C 23.789062 45.160156 24.625 46.070312 25.367188 47.046875 " fill-opacity="1" fill-rule="nonzero"/></g><g clip-path="url(#3b7b5a3c28)"><path fill="#e467b4" d="M 38.589844 51.953125 C 38.972656 52.160156 39.398438 52.292969 39.761719 52.523438 C 40.257812 52.835938 40.824219 53.128906 41.152344 53.582031 C 41.90625 54.613281 42.925781 55.339844 43.851562 56.175781 C 44.410156 56.675781 45.015625 57.175781 45.046875 58.023438 C 45.070312 58.699219 45.132812 61.710938 45.148438 62.539062 L 49.824219 62.539062 C 49.816406 62.234375 49.804688 57.683594 49.804688 57.683594 C 49.84375 57.039062 50.019531 56.925781 50.21875 56.320312 C 50.5 55.460938 50.941406 54.652344 51.347656 53.835938 C 51.648438 53.230469 51.9375 52.597656 52.34375 52.0625 C 53.003906 51.191406 53.75 50.382812 54.472656 49.5625 C 54.726562 49.273438 54.636719 49.085938 54.328125 49.027344 C 54.101562 48.984375 53.824219 49.015625 53.621094 49.117188 C 53.410156 49.21875 53.265625 49.453125 53.082031 49.617188 C 52.386719 50.25 51.6875 50.882812 50.976562 51.5 C 50.882812 51.582031 50.65625 51.636719 50.574219 51.582031 C 50.480469 51.523438 50.460938 51.320312 50.457031 51.179688 C 50.453125 51.078125 50.519531 50.972656 50.558594 50.871094 C 51.09375 49.582031 51.628906 48.289062 52.160156 47.019531 C 52.257812 46.777344 52.15625 46.5 51.925781 46.382812 C 51.539062 46.195312 51.226562 46.371094 50.964844 46.859375 C 50.414062 47.878906 49.898438 48.914062 49.355469 49.9375 C 49.351562 49.945312 49.347656 49.953125 49.34375 49.960938 C 49.085938 50.3125 49 50.300781 48.957031 50.273438 C 48.957031 50.273438 48.871094 50.246094 48.878906 50.160156 C 48.894531 50.03125 48.902344 49.902344 48.925781 49.773438 C 49.199219 48.390625 49.476562 47.011719 49.753906 45.628906 C 49.808594 45.355469 49.816406 45.0625 49.488281 44.980469 C 49.175781 44.90625 48.78125 44.835938 48.621094 45.21875 C 48.222656 46.171875 47.929688 47.140625 47.605469 48.121094 C 47.40625 48.722656 47.25 49.355469 47.09375 49.96875 C 47.0625 50.089844 46.867188 50.230469 46.734375 50.25 C 46.59375 50.265625 46.375 50.1875 46.300781 50.078125 C 46.125 49.816406 46.085938 49.449219 45.976562 49.167969 C 45.617188 48.214844 45.332031 47.238281 45.195312 46.230469 C 45.125 45.707031 44.9375 45.34375 44.425781 45.410156 C 43.992188 45.46875 43.933594 45.800781 43.957031 46.140625 C 44.011719 46.964844 44.085938 47.789062 44.15625 48.613281 C 44.175781 48.859375 44.246094 49.109375 44.304688 49.339844 C 44.546875 50.316406 44.554688 51.0625 44.378906 51.914062 C 44.210938 52.722656 43.476562 53.070312 42.882812 52.6875 C 42.292969 52.304688 41.710938 51.898438 41.113281 51.523438 C 40.308594 51.027344 39.472656 50.757812 38.574219 51.296875 C 38.460938 51.363281 38.324219 51.515625 38.328125 51.621094 C 38.332031 51.738281 38.46875 51.890625 38.589844 51.953125 " fill-opacity="1" fill-rule="nonzero"/></g><g clip-path="url(#5ff11face4)"><path fill="#55a899" d="M 49.078125 41.539062 C 49.527344 41.777344 50.023438 41.933594 50.449219 42.203125 C 51.023438 42.570312 51.6875 42.914062 52.070312 43.4375 C 52.953125 44.644531 54.136719 45.488281 55.21875 46.464844 C 55.871094 47.046875 56.574219 47.632812 56.613281 48.621094 C 56.644531 49.40625 56.84375 60.925781 56.886719 62.539062 L 62.269531 62.539062 C 62.253906 57.980469 62.164062 48.226562 62.164062 48.226562 C 62.210938 47.472656 62.417969 47.339844 62.648438 46.632812 C 62.976562 45.632812 63.492188 44.6875 63.964844 43.734375 C 64.316406 43.027344 64.652344 42.292969 65.125 41.667969 C 65.894531 40.652344 66.765625 39.707031 67.613281 38.746094 C 67.90625 38.414062 67.800781 38.195312 67.4375 38.125 C 67.175781 38.074219 66.851562 38.113281 66.613281 38.230469 C 66.371094 38.351562 66.203125 38.621094 65.988281 38.8125 C 65.175781 39.550781 64.363281 40.289062 63.53125 41.007812 C 63.417969 41.105469 63.15625 41.171875 63.0625 41.105469 C 62.953125 41.035156 62.929688 40.800781 62.925781 40.636719 C 62.917969 40.519531 62.996094 40.394531 63.046875 40.277344 C 63.667969 38.769531 64.292969 37.265625 64.910156 35.78125 C 65.027344 35.5 64.910156 35.175781 64.636719 35.042969 C 64.1875 34.820312 63.820312 35.027344 63.515625 35.597656 C 62.875 36.785156 62.273438 37.996094 61.640625 39.1875 C 61.636719 39.199219 61.628906 39.207031 61.625 39.214844 C 61.328125 39.625 61.226562 39.609375 61.175781 39.578125 C 61.175781 39.578125 61.074219 39.546875 61.085938 39.445312 C 61.101562 39.296875 61.113281 39.144531 61.140625 38.996094 C 61.460938 37.382812 61.785156 35.773438 62.105469 34.160156 C 62.167969 33.839844 62.179688 33.5 61.792969 33.40625 C 61.429688 33.316406 60.972656 33.234375 60.785156 33.683594 C 60.316406 34.796875 59.976562 35.925781 59.597656 37.070312 C 59.367188 37.769531 59.183594 38.507812 59 39.226562 C 58.964844 39.367188 58.738281 39.53125 58.582031 39.550781 C 58.417969 39.570312 58.164062 39.480469 58.078125 39.351562 C 57.871094 39.042969 57.824219 38.617188 57.699219 38.289062 C 57.277344 37.179688 56.945312 36.039062 56.785156 34.863281 C 56.703125 34.253906 56.484375 33.828125 55.890625 33.90625 C 55.382812 33.972656 55.3125 34.359375 55.339844 34.757812 C 55.40625 35.722656 55.492188 36.683594 55.574219 37.644531 C 55.597656 37.929688 55.679688 38.21875 55.746094 38.488281 C 56.027344 39.628906 56.039062 40.5 55.832031 41.496094 C 55.636719 42.4375 54.78125 42.84375 54.089844 42.394531 C 53.398438 41.949219 52.722656 41.472656 52.023438 41.039062 C 51.085938 40.460938 50.109375 40.144531 49.0625 40.773438 C 48.933594 40.851562 48.769531 41.027344 48.773438 41.152344 C 48.78125 41.289062 48.941406 41.464844 49.078125 41.539062 " fill-opacity="1" fill-rule="nonzero"/></g><g clip-path="url(#94216c0c9e)"><path fill="#fdd158" d="M 240.605469 59.957031 C 241.140625 60.664062 241.519531 61.496094 241.917969 62.296875 C 242.449219 63.375 243.03125 64.441406 243.402344 65.578125 C 243.664062 66.375 243.898438 66.523438 243.953125 67.378906 C 243.953125 67.378906 243.894531 75.140625 243.863281 77.644531 L 250.019531 77.644531 C 250.058594 75.261719 250.191406 68.714844 250.226562 67.824219 C 250.265625 66.707031 251.0625 66.042969 251.796875 65.382812 C 253.023438 64.28125 254.363281 63.324219 255.359375 61.960938 C 255.792969 61.367188 256.539062 60.976562 257.191406 60.566406 C 257.671875 60.257812 258.234375 60.082031 258.738281 59.8125 C 258.894531 59.730469 259.074219 59.527344 259.082031 59.375 C 259.089844 59.234375 258.90625 59.035156 258.753906 58.945312 C 257.574219 58.234375 256.46875 58.589844 255.410156 59.246094 C 254.621094 59.738281 253.855469 60.273438 253.074219 60.78125 C 252.292969 61.285156 251.324219 60.828125 251.105469 59.761719 C 250.871094 58.632812 250.789062 57.503906 251.105469 56.214844 C 251.183594 55.910156 251.589844 53.226562 251.660156 52.140625 C 251.691406 51.6875 251.613281 51.25 251.042969 51.175781 C 250.371094 51.085938 250.121094 51.566406 250.027344 52.261719 C 249.847656 53.59375 249.460938 54.882812 248.992188 56.144531 C 248.855469 56.511719 248.800781 56.992188 248.570312 57.335938 C 248.46875 57.480469 248.183594 57.585938 248 57.5625 C 247.824219 57.539062 247.566406 57.355469 247.527344 57.191406 C 247.316406 56.382812 247.113281 55.542969 246.851562 54.753906 C 246.421875 53.460938 246.039062 52.179688 245.511719 50.921875 C 245.300781 50.414062 244.78125 50.503906 244.371094 50.605469 C 243.933594 50.714844 243.945312 51.097656 244.015625 51.460938 C 244.378906 53.285156 244.746094 55.109375 245.105469 56.933594 C 245.140625 57.101562 245.148438 57.273438 245.167969 57.441406 C 245.179688 57.554688 245.066406 57.59375 245.066406 57.59375 C 245.011719 57.628906 244.898438 57.644531 244.558594 57.179688 C 244.554688 57.171875 244.546875 57.160156 244.542969 57.152344 C 243.828125 55.800781 243.148438 54.433594 242.421875 53.085938 C 242.078125 52.445312 241.664062 52.207031 241.15625 52.457031 C 240.851562 52.609375 240.714844 52.976562 240.847656 53.292969 C 241.542969 54.972656 242.25 56.679688 242.953125 58.382812 C 243.007812 58.515625 243.097656 58.65625 243.09375 58.789062 C 243.082031 58.976562 243.058594 59.242188 242.9375 59.324219 C 242.828125 59.394531 242.53125 59.320312 242.40625 59.210938 C 241.464844 58.398438 240.546875 57.5625 239.628906 56.726562 C 239.386719 56.511719 239.195312 56.203125 238.921875 56.066406 C 238.652344 55.933594 238.285156 55.890625 237.988281 55.949219 C 237.578125 56.027344 237.460938 56.273438 237.792969 56.652344 C 238.75 57.738281 239.734375 58.804688 240.605469 59.957031 " fill-opacity="1" fill-rule="nonzero"/></g><g clip-path="url(#495ab9ebf4)"><path fill="#f15839" d="M 181.28125 55.398438 C 181.933594 56.257812 182.398438 57.273438 182.882812 58.25 C 183.53125 59.5625 184.242188 60.867188 184.695312 62.25 C 185.011719 63.222656 185.296875 63.40625 185.363281 64.445312 C 185.363281 64.445312 185.285156 74.273438 185.246094 77.644531 L 192.75 77.644531 C 192.796875 74.511719 192.96875 66.074219 193.007812 64.988281 C 193.0625 63.625 194.035156 62.816406 194.925781 62.011719 C 196.417969 60.667969 198.054688 59.503906 199.265625 57.839844 C 199.796875 57.113281 200.707031 56.640625 201.5 56.136719 C 202.085938 55.765625 202.773438 55.550781 203.390625 55.222656 C 203.578125 55.121094 203.800781 54.875 203.808594 54.6875 C 203.816406 54.515625 203.59375 54.273438 203.410156 54.164062 C 201.96875 53.296875 200.621094 53.730469 199.332031 54.53125 C 198.367188 55.128906 197.4375 55.785156 196.484375 56.402344 C 195.53125 57.019531 194.351562 56.460938 194.082031 55.160156 C 193.796875 53.785156 193.816406 52.585938 194.203125 51.011719 C 194.292969 50.640625 194.40625 50.242188 194.441406 49.84375 C 194.554688 48.519531 194.671875 47.195312 194.761719 45.867188 C 194.796875 45.316406 194.703125 44.785156 194.007812 44.691406 C 193.1875 44.582031 192.882812 45.171875 192.769531 46.015625 C 192.550781 47.636719 192.078125 49.214844 191.507812 50.746094 C 191.339844 51.199219 191.273438 51.78125 190.992188 52.199219 C 190.871094 52.378906 190.519531 52.507812 190.296875 52.476562 C 190.082031 52.449219 189.769531 52.222656 189.71875 52.027344 C 189.464844 51.039062 189.214844 50.015625 188.898438 49.054688 C 188.375 47.476562 187.90625 45.914062 187.261719 44.382812 C 187.003906 43.765625 186.375 43.875 185.871094 44 C 185.339844 44.128906 185.355469 44.597656 185.441406 45.042969 C 185.886719 47.265625 186.332031 49.488281 186.769531 51.710938 C 186.8125 51.917969 186.824219 52.125 186.847656 52.332031 C 186.859375 52.46875 186.71875 52.515625 186.71875 52.515625 C 186.652344 52.558594 186.515625 52.578125 186.101562 52.011719 C 186.097656 52 186.089844 51.988281 186.082031 51.976562 C 185.210938 50.332031 184.378906 48.664062 183.5 47.023438 C 183.078125 46.238281 182.574219 45.949219 181.957031 46.257812 C 181.582031 46.441406 181.417969 46.886719 181.578125 47.273438 C 182.425781 49.320312 183.285156 51.402344 184.144531 53.480469 C 184.214844 53.640625 184.320312 53.8125 184.3125 53.972656 C 184.304688 54.203125 184.269531 54.527344 184.125 54.625 C 183.992188 54.710938 183.628906 54.621094 183.476562 54.488281 C 182.332031 53.496094 181.210938 52.476562 180.089844 51.460938 C 179.796875 51.195312 179.566406 50.820312 179.226562 50.65625 C 178.898438 50.492188 178.453125 50.441406 178.09375 50.511719 C 177.59375 50.605469 177.449219 50.910156 177.855469 51.371094 C 179.019531 52.691406 180.21875 53.992188 181.28125 55.398438 " fill-opacity="1" fill-rule="nonzero"/></g><g clip-path="url(#df4df0f7f9)"><path fill="#e467b4" d="M 200.242188 62.445312 C 200.792969 62.738281 201.402344 62.929688 201.925781 63.261719 C 202.632812 63.710938 203.445312 64.132812 203.917969 64.78125 C 205 66.265625 206.460938 67.304688 207.789062 68.503906 C 208.589844 69.222656 209.457031 69.945312 209.503906 71.160156 C 209.539062 72.128906 209.628906 76.453125 209.648438 77.644531 L 216.351562 77.644531 C 216.34375 77.207031 216.324219 70.675781 216.324219 70.675781 C 216.382812 69.746094 216.636719 69.582031 216.921875 68.714844 C 217.324219 67.480469 217.957031 66.320312 218.539062 65.148438 C 218.96875 64.277344 219.382812 63.371094 219.964844 62.601562 C 220.914062 61.351562 221.980469 60.1875 223.023438 59.007812 C 223.382812 58.597656 223.253906 58.328125 222.808594 58.242188 C 222.488281 58.179688 222.089844 58.226562 221.796875 58.371094 C 221.496094 58.519531 221.289062 58.851562 221.027344 59.089844 C 220.027344 59.996094 219.027344 60.90625 218.007812 61.789062 C 217.871094 61.910156 217.546875 61.992188 217.429688 61.914062 C 217.296875 61.824219 217.269531 61.535156 217.261719 61.332031 C 217.253906 61.1875 217.347656 61.035156 217.410156 60.890625 C 218.175781 59.035156 218.945312 57.183594 219.699219 55.355469 C 219.84375 55.011719 219.699219 54.613281 219.367188 54.449219 C 218.8125 54.171875 218.363281 54.429688 217.988281 55.128906 C 217.199219 56.59375 216.457031 58.082031 215.683594 59.550781 C 215.675781 59.5625 215.671875 59.574219 215.664062 59.582031 C 215.296875 60.089844 215.171875 60.070312 215.113281 60.03125 C 215.113281 60.03125 214.988281 59.992188 215 59.867188 C 215.019531 59.683594 215.03125 59.496094 215.066406 59.316406 C 215.460938 57.332031 215.859375 55.347656 216.253906 53.363281 C 216.332031 52.96875 216.34375 52.550781 215.871094 52.433594 C 215.421875 52.324219 214.859375 52.226562 214.628906 52.773438 C 214.054688 54.144531 213.636719 55.535156 213.171875 56.941406 C 212.886719 57.800781 212.664062 58.714844 212.4375 59.597656 C 212.390625 59.769531 212.113281 59.972656 211.921875 59.996094 C 211.722656 60.023438 211.410156 59.90625 211.304688 59.75 C 211.046875 59.375 210.992188 58.84375 210.839844 58.441406 C 210.320312 57.078125 209.914062 55.675781 209.714844 54.230469 C 209.613281 53.476562 209.34375 52.953125 208.613281 53.050781 C 207.992188 53.132812 207.90625 53.605469 207.9375 54.101562 C 208.019531 55.285156 208.125 56.464844 208.226562 57.648438 C 208.257812 58.003906 208.355469 58.359375 208.4375 58.6875 C 208.785156 60.09375 208.800781 61.164062 208.546875 62.390625 C 208.304688 63.550781 207.253906 64.046875 206.402344 63.5 C 205.550781 62.945312 204.722656 62.363281 203.859375 61.828125 C 202.710938 61.113281 201.507812 60.726562 200.222656 61.5 C 200.0625 61.597656 199.859375 61.816406 199.867188 61.96875 C 199.875 62.136719 200.070312 62.355469 200.242188 62.445312 " fill-opacity="1" fill-rule="nonzero"/></g><g clip-path="url(#8ab62fc735)"><path fill="#55a899" d="M 215.285156 47.492188 C 215.925781 47.835938 216.640625 48.058594 217.25 48.445312 C 218.074219 48.96875 219.023438 49.460938 219.578125 50.21875 C 220.839844 51.949219 222.539062 53.160156 224.09375 54.558594 C 225.023438 55.398438 226.035156 56.238281 226.089844 57.65625 C 226.132812 58.789062 226.421875 75.328125 226.480469 77.644531 L 234.199219 77.644531 C 234.175781 71.097656 234.046875 57.089844 234.046875 57.089844 C 234.113281 56.007812 234.410156 55.820312 234.742188 54.804688 C 235.214844 53.367188 235.953125 52.011719 236.628906 50.644531 C 237.132812 49.625 237.613281 48.570312 238.292969 47.675781 C 239.398438 46.214844 240.648438 44.859375 241.859375 43.480469 C 242.285156 43.003906 242.132812 42.6875 241.613281 42.589844 C 241.238281 42.515625 240.773438 42.570312 240.433594 42.738281 C 240.082031 42.914062 239.839844 43.300781 239.535156 43.578125 C 238.367188 44.636719 237.199219 45.695312 236.011719 46.730469 C 235.851562 46.867188 235.472656 46.960938 235.335938 46.871094 C 235.183594 46.765625 235.148438 46.429688 235.140625 46.191406 C 235.132812 46.023438 235.242188 45.847656 235.3125 45.679688 C 236.207031 43.515625 237.105469 41.351562 237.988281 39.222656 C 238.152344 38.820312 237.984375 38.355469 237.59375 38.160156 C 236.949219 37.839844 236.425781 38.140625 235.988281 38.957031 C 235.070312 40.664062 234.203125 42.402344 233.296875 44.117188 C 233.292969 44.128906 233.285156 44.140625 233.277344 44.152344 C 232.847656 44.742188 232.703125 44.71875 232.632812 44.675781 C 232.632812 44.675781 232.488281 44.628906 232.503906 44.484375 C 232.527344 44.269531 232.539062 44.050781 232.582031 43.839844 C 233.039062 41.523438 233.503906 39.210938 233.964844 36.898438 C 234.054688 36.433594 234.070312 35.949219 233.515625 35.8125 C 232.996094 35.683594 232.339844 35.566406 232.070312 36.207031 C 231.402344 37.804688 230.914062 39.429688 230.367188 41.074219 C 230.035156 42.074219 229.777344 43.140625 229.511719 44.167969 C 229.460938 44.371094 229.136719 44.605469 228.910156 44.636719 C 228.679688 44.664062 228.316406 44.53125 228.1875 44.347656 C 227.890625 43.90625 227.828125 43.292969 227.648438 42.820312 C 227.042969 41.230469 226.566406 39.59375 226.335938 37.90625 C 226.21875 37.027344 225.902344 36.417969 225.050781 36.53125 C 224.328125 36.628906 224.226562 37.179688 224.265625 37.753906 C 224.355469 39.136719 224.480469 40.515625 224.601562 41.894531 C 224.636719 42.308594 224.75 42.722656 224.847656 43.109375 C 225.25 44.746094 225.269531 45.996094 224.972656 47.425781 C 224.691406 48.78125 223.464844 49.363281 222.472656 48.71875 C 221.480469 48.078125 220.511719 47.398438 219.507812 46.773438 C 218.167969 45.9375 216.765625 45.488281 215.265625 46.390625 C 215.074219 46.503906 214.839844 46.757812 214.847656 46.9375 C 214.859375 47.132812 215.085938 47.386719 215.285156 47.492188 " fill-opacity="1" fill-rule="nonzero"/></g></svg>