<svg xmlns="http://www.w3.org/2000/svg" xmlns:xlink="http://www.w3.org/1999/xlink" width="566" zoomAndPan="magnify" viewBox="0 0 425.25 56.999996" height="75" preserveAspectRatio="xMidYMid meet" version="1.0"><defs><clipPath id="b624274827"><path d="M 0 0.0507812 L 424.5 0.0507812 L 424.5 56.949219 L 0 56.949219 Z M 0 0.0507812 " clip-rule="nonzero"/></clipPath><clipPath id="1feb0abff5"><path d="M 398.097656 32.414062 L 419.605469 32.414062 L 419.605469 56.949219 L 398.097656 56.949219 Z M 398.097656 32.414062 " clip-rule="nonzero"/></clipPath><clipPath id="f523a0e1bb"><path d="M 338.136719 25.75 L 364.371094 25.75 L 364.371094 56.949219 L 338.136719 56.949219 Z M 338.136719 25.75 " clip-rule="nonzero"/></clipPath><clipPath id="5776ac17c9"><path d="M 360.296875 34.203125 L 383.757812 34.203125 L 383.757812 56.949219 L 360.296875 56.949219 Z M 360.296875 34.203125 " clip-rule="nonzero"/></clipPath><clipPath id="b052e5131d"><path d="M 375.285156 17.621094 L 402.660156 17.621094 L 402.660156 56.949219 L 375.285156 56.949219 Z M 375.285156 17.621094 " clip-rule="nonzero"/></clipPath><clipPath id="f1170929f8"><path d="M 312.796875 39.308594 L 328.777344 39.308594 L 328.777344 56.949219 L 312.796875 56.949219 Z M 312.796875 39.308594 " clip-rule="nonzero"/></clipPath><clipPath id="0eae0cf74b"><path d="M 268.242188 34.3125 L 287.734375 34.3125 L 287.734375 56.949219 L 268.242188 56.949219 Z M 268.242188 34.3125 " clip-rule="nonzero"/></clipPath><clipPath id="9ae2eed494"><path d="M 284.707031 40.652344 L 302.140625 40.652344 L 302.140625 56.949219 L 284.707031 56.949219 Z M 284.707031 40.652344 " clip-rule="nonzero"/></clipPath><clipPath id="c92d81e761"><path d="M 295.84375 28.214844 L 316.183594 28.214844 L 316.183594 56.949219 L 295.84375 56.949219 Z M 295.84375 28.214844 " clip-rule="nonzero"/></clipPath><clipPath id="3e146a261c"><path d="M 144.207031 37.65625 L 165.710938 37.65625 L 165.710938 56.949219 L 144.207031 56.949219 Z M 144.207031 37.65625 " clip-rule="nonzero"/></clipPath><clipPath id="d6fc8648da"><path d="M 84.25 31 L 110.480469 31 L 110.480469 56.949219 L 84.25 56.949219 Z M 84.25 31 " clip-rule="nonzero"/></clipPath><clipPath id="6eec8edfe2"><path d="M 106.40625 39.445312 L 129.867188 39.445312 L 129.867188 56.949219 L 106.40625 56.949219 Z M 106.40625 39.445312 " clip-rule="nonzero"/></clipPath><clipPath id="b467dc70c0"><path d="M 121.394531 22.863281 L 148.765625 22.863281 L 148.765625 56.949219 L 121.394531 56.949219 Z M 121.394531 22.863281 " clip-rule="nonzero"/></clipPath><clipPath id="fb5366d27d"><path d="M 64.625 43.636719 L 79.621094 43.636719 L 79.621094 56.949219 L 64.625 56.949219 Z M 64.625 43.636719 " clip-rule="nonzero"/></clipPath><clipPath id="c9f85bfd1a"><path d="M 22.8125 39 L 41.105469 39 L 41.105469 56.949219 L 22.8125 56.949219 Z M 22.8125 39 " clip-rule="nonzero"/></clipPath><clipPath id="7824d99161"><path d="M 38.265625 44.882812 L 54.625 44.882812 L 54.625 56.949219 L 38.265625 56.949219 Z M 38.265625 44.882812 " clip-rule="nonzero"/></clipPath><clipPath id="5f1870999e"><path d="M 48.71875 33.335938 L 67.804688 33.335938 L 67.804688 56.949219 L 48.71875 56.949219 Z M 48.71875 33.335938 " clip-rule="nonzero"/></clipPath><clipPath id="bfb2eeae3a"><path d="M 242.5 26 L 268.351562 26 L 268.351562 56.949219 L 242.5 56.949219 Z M 242.5 26 " clip-rule="nonzero"/></clipPath><clipPath id="560878abeb"><path d="M 170.429688 17.882812 L 201.960938 17.882812 L 201.960938 56.949219 L 170.429688 56.949219 Z M 170.429688 17.882812 " clip-rule="nonzero"/></clipPath><clipPath id="ff0b71c9b0"><path d="M 197.0625 28.148438 L 225.265625 28.148438 L 225.265625 56.949219 L 197.0625 56.949219 Z M 197.0625 28.148438 " clip-rule="nonzero"/></clipPath><clipPath id="9802f5099d"><path d="M 215.082031 8.011719 L 247.984375 8.011719 L 247.984375 56.949219 L 215.082031 56.949219 Z M 215.082031 8.011719 " clip-rule="nonzero"/></clipPath></defs><g clip-path="url(#b624274827)"><path fill="#ffffff" d="M 0 0.0507812 L 424.5 0.0507812 L 424.5 56.949219 L 0 56.949219 Z M 0 0.0507812 " fill-opacity="1" fill-rule="nonzero"/><path fill="#ffffff" d="M 0 0.0507812 L 424.5 0.0507812 L 424.5 56.949219 L 0 56.949219 Z M 0 0.0507812 " fill-opacity="1" fill-rule="nonzero"/></g><g clip-path="url(#1feb0abff5)"><path fill="#fdd158" d="M 401.128906 41.867188 C 401.664062 42.574219 402.042969 43.40625 402.4375 44.207031 C 402.972656 45.28125 403.554688 46.351562 403.925781 47.484375 C 404.1875 48.285156 404.421875 48.433594 404.472656 49.289062 C 404.472656 49.289062 404.417969 57.050781 404.386719 59.550781 L 410.542969 59.550781 C 410.582031 57.171875 410.714844 50.625 410.746094 49.734375 C 410.789062 48.617188 411.585938 47.953125 412.320312 47.292969 C 413.546875 46.191406 414.886719 45.234375 415.878906 43.871094 C 416.316406 43.273438 417.0625 42.886719 417.714844 42.472656 C 418.195312 42.167969 418.753906 41.992188 419.261719 41.722656 C 419.417969 41.636719 419.597656 41.4375 419.605469 41.285156 C 419.613281 41.144531 419.429688 40.945312 419.277344 40.855469 C 418.097656 40.140625 416.992188 40.496094 415.933594 41.15625 C 415.144531 41.648438 414.378906 42.183594 413.597656 42.691406 C 412.816406 43.195312 411.847656 42.738281 411.628906 41.671875 C 411.394531 40.542969 411.3125 39.414062 411.628906 38.125 C 411.703125 37.820312 412.113281 35.136719 412.183594 34.046875 C 412.214844 33.59375 412.136719 33.160156 411.566406 33.082031 C 410.890625 32.996094 410.644531 33.476562 410.550781 34.167969 C 410.371094 35.5 409.984375 36.792969 409.515625 38.050781 C 409.375 38.421875 409.324219 38.902344 409.09375 39.242188 C 408.992188 39.386719 408.707031 39.496094 408.523438 39.46875 C 408.347656 39.449219 408.089844 39.261719 408.046875 39.101562 C 407.839844 38.292969 407.636719 37.453125 407.375 36.664062 C 406.945312 35.367188 406.558594 34.089844 406.035156 32.828125 C 405.820312 32.324219 405.304688 32.414062 404.890625 32.515625 C 404.457031 32.625 404.46875 33.007812 404.539062 33.371094 C 404.902344 35.195312 405.269531 37.019531 405.628906 38.84375 C 405.664062 39.011719 405.671875 39.179688 405.691406 39.351562 C 405.703125 39.464844 405.589844 39.5 405.589844 39.5 C 405.535156 39.539062 405.417969 39.554688 405.082031 39.089844 C 405.074219 39.078125 405.070312 39.070312 405.066406 39.0625 C 404.351562 37.710938 403.667969 36.339844 402.945312 34.996094 C 402.601562 34.351562 402.1875 34.117188 401.679688 34.367188 C 401.371094 34.519531 401.238281 34.886719 401.367188 35.203125 C 402.066406 36.882812 402.769531 38.585938 403.476562 40.292969 C 403.53125 40.425781 403.621094 40.566406 403.613281 40.699219 C 403.605469 40.886719 403.578125 41.152344 403.457031 41.230469 C 403.351562 41.304688 403.054688 41.230469 402.925781 41.121094 C 401.988281 40.308594 401.070312 39.46875 400.148438 38.636719 C 399.910156 38.417969 399.71875 38.113281 399.441406 37.976562 C 399.171875 37.84375 398.808594 37.800781 398.511719 37.855469 C 398.101562 37.9375 397.984375 38.183594 398.316406 38.5625 C 399.273438 39.648438 400.253906 40.714844 401.128906 41.867188 " fill-opacity="1" fill-rule="nonzero"/></g><g clip-path="url(#f523a0e1bb)"><path fill="#f15839" d="M 341.800781 37.304688 C 342.453125 38.167969 342.914062 39.183594 343.398438 40.160156 C 344.046875 41.472656 344.757812 42.773438 345.210938 44.15625 C 345.53125 45.132812 345.816406 45.3125 345.878906 46.355469 C 345.878906 46.355469 345.804688 56.179688 345.765625 59.550781 L 353.269531 59.550781 C 353.316406 56.421875 353.488281 47.984375 353.527344 46.898438 C 353.578125 45.535156 354.550781 44.726562 355.445312 43.921875 C 356.9375 42.578125 358.574219 41.410156 359.785156 39.75 C 360.316406 39.023438 361.226562 38.550781 362.019531 38.046875 C 362.605469 37.675781 363.292969 37.460938 363.90625 37.128906 C 364.097656 37.027344 364.320312 36.785156 364.328125 36.597656 C 364.335938 36.425781 364.113281 36.183594 363.929688 36.070312 C 362.488281 35.203125 361.140625 35.640625 359.851562 36.441406 C 358.886719 37.039062 357.957031 37.691406 357 38.3125 C 356.050781 38.925781 354.871094 38.367188 354.601562 37.066406 C 354.316406 35.695312 354.332031 34.492188 354.722656 32.917969 C 354.8125 32.550781 354.925781 32.152344 354.960938 31.753906 C 355.074219 30.429688 355.191406 29.101562 355.28125 27.777344 C 355.316406 27.222656 355.222656 26.691406 354.523438 26.601562 C 353.703125 26.492188 353.402344 27.078125 353.289062 27.925781 C 353.066406 29.546875 352.597656 31.121094 352.023438 32.65625 C 351.855469 33.109375 351.792969 33.691406 351.511719 34.109375 C 351.390625 34.285156 351.039062 34.414062 350.816406 34.386719 C 350.601562 34.359375 350.289062 34.132812 350.238281 33.9375 C 349.984375 32.949219 349.734375 31.925781 349.414062 30.964844 C 348.890625 29.386719 348.421875 27.824219 347.78125 26.289062 C 347.523438 25.675781 346.890625 25.785156 346.390625 25.90625 C 345.859375 26.039062 345.871094 26.507812 345.960938 26.949219 C 346.402344 29.175781 346.847656 31.398438 347.289062 33.621094 C 347.328125 33.824219 347.339844 34.035156 347.363281 34.242188 C 347.378906 34.378906 347.238281 34.425781 347.238281 34.425781 C 347.171875 34.46875 347.03125 34.488281 346.621094 33.921875 C 346.613281 33.910156 346.605469 33.898438 346.601562 33.886719 C 345.730469 32.238281 344.898438 30.570312 344.015625 28.929688 C 343.597656 28.148438 343.09375 27.859375 342.472656 28.164062 C 342.097656 28.351562 341.933594 28.796875 342.09375 29.183594 C 342.941406 31.230469 343.804688 33.308594 344.664062 35.390625 C 344.730469 35.550781 344.839844 35.71875 344.832031 35.882812 C 344.820312 36.109375 344.789062 36.433594 344.640625 36.535156 C 344.511719 36.621094 344.148438 36.53125 343.992188 36.398438 C 342.851562 35.40625 341.730469 34.386719 340.609375 33.371094 C 340.316406 33.105469 340.082031 32.730469 339.746094 32.5625 C 339.417969 32.402344 338.972656 32.351562 338.609375 32.417969 C 338.109375 32.515625 337.964844 32.816406 338.371094 33.277344 C 339.539062 34.601562 340.738281 35.902344 341.800781 37.304688 " fill-opacity="1" fill-rule="nonzero"/></g><g clip-path="url(#5776ac17c9)"><path fill="#e467b4" d="M 360.761719 44.355469 C 361.3125 44.648438 361.921875 44.839844 362.445312 45.171875 C 363.152344 45.621094 363.964844 46.042969 364.4375 46.691406 C 365.519531 48.171875 366.980469 49.214844 368.308594 50.414062 C 369.109375 51.132812 369.976562 51.851562 370.023438 53.066406 C 370.058594 54.039062 370.148438 58.363281 370.167969 59.550781 L 376.875 59.550781 C 376.863281 59.117188 376.84375 52.582031 376.84375 52.582031 C 376.902344 51.65625 377.15625 51.492188 377.441406 50.625 C 377.84375 49.390625 378.480469 48.226562 379.058594 47.054688 C 379.492188 46.183594 379.902344 45.28125 380.484375 44.511719 C 381.433594 43.257812 382.503906 42.097656 383.542969 40.917969 C 383.90625 40.507812 383.777344 40.238281 383.332031 40.152344 C 383.007812 40.089844 382.609375 40.136719 382.316406 40.28125 C 382.015625 40.429688 381.808594 40.761719 381.546875 41 C 380.546875 41.90625 379.546875 42.816406 378.527344 43.699219 C 378.390625 43.820312 378.066406 43.902344 377.949219 43.820312 C 377.816406 43.734375 377.789062 43.445312 377.78125 43.238281 C 377.773438 43.097656 377.871094 42.945312 377.929688 42.800781 C 378.695312 40.945312 379.464844 39.09375 380.222656 37.265625 C 380.363281 36.921875 380.21875 36.523438 379.886719 36.355469 C 379.332031 36.082031 378.882812 36.339844 378.507812 37.039062 C 377.722656 38.503906 376.980469 39.992188 376.203125 41.460938 C 376.195312 41.472656 376.191406 41.480469 376.183594 41.492188 C 375.816406 41.996094 375.691406 41.976562 375.632812 41.941406 C 375.632812 41.941406 375.507812 41.898438 375.519531 41.777344 C 375.539062 41.589844 375.550781 41.40625 375.589844 41.222656 C 375.980469 39.238281 376.378906 37.257812 376.773438 35.273438 C 376.851562 34.875 376.867188 34.457031 376.390625 34.339844 C 375.941406 34.230469 375.378906 34.132812 375.148438 34.683594 C 374.574219 36.050781 374.15625 37.445312 373.691406 38.851562 C 373.40625 39.710938 373.183594 40.625 372.957031 41.503906 C 372.914062 41.679688 372.632812 41.882812 372.441406 41.90625 C 372.242188 41.933594 371.929688 41.816406 371.824219 41.660156 C 371.566406 41.28125 371.511719 40.753906 371.359375 40.351562 C 370.839844 38.988281 370.433594 37.582031 370.234375 36.136719 C 370.132812 35.386719 369.863281 34.863281 369.132812 34.960938 C 368.511719 35.042969 368.425781 35.515625 368.457031 36.007812 C 368.539062 37.191406 368.644531 38.375 368.746094 39.558594 C 368.777344 39.914062 368.875 40.265625 368.957031 40.597656 C 369.304688 42 369.320312 43.074219 369.066406 44.296875 C 368.824219 45.457031 367.773438 45.957031 366.921875 45.40625 C 366.070312 44.855469 365.242188 44.273438 364.378906 43.738281 C 363.230469 43.023438 362.027344 42.636719 360.742188 43.410156 C 360.578125 43.507812 360.378906 43.726562 360.386719 43.878906 C 360.394531 44.046875 360.589844 44.261719 360.761719 44.355469 " fill-opacity="1" fill-rule="nonzero"/></g><g clip-path="url(#b052e5131d)"><path fill="#55a899" d="M 375.804688 29.398438 C 376.449219 29.742188 377.160156 29.96875 377.769531 30.355469 C 378.597656 30.878906 379.546875 31.371094 380.097656 32.125 C 381.359375 33.855469 383.058594 35.070312 384.613281 36.46875 C 385.542969 37.308594 386.554688 38.148438 386.609375 39.566406 C 386.652344 40.699219 386.945312 57.234375 387 59.550781 L 394.71875 59.550781 C 394.699219 53.007812 394.570312 39 394.570312 39 C 394.636719 37.917969 394.933594 37.730469 395.265625 36.714844 C 395.738281 35.277344 396.476562 33.917969 397.152344 32.554688 C 397.65625 31.535156 398.136719 30.480469 398.816406 29.582031 C 399.921875 28.125 401.171875 26.769531 402.382812 25.390625 C 402.804688 24.910156 402.65625 24.597656 402.136719 24.496094 C 401.761719 24.425781 401.296875 24.480469 400.953125 24.648438 C 400.601562 24.820312 400.363281 25.210938 400.058594 25.488281 C 398.890625 26.542969 397.722656 27.605469 396.53125 28.636719 C 396.371094 28.777344 395.996094 28.871094 395.859375 28.777344 C 395.707031 28.675781 395.671875 28.339844 395.660156 28.101562 C 395.652344 27.933594 395.765625 27.757812 395.835938 27.585938 C 396.730469 25.425781 397.625 23.261719 398.507812 21.128906 C 398.675781 20.730469 398.507812 20.261719 398.117188 20.070312 C 397.472656 19.75 396.949219 20.050781 396.507812 20.867188 C 395.589844 22.574219 394.726562 24.308594 393.820312 26.023438 C 393.8125 26.035156 393.804688 26.050781 393.796875 26.0625 C 393.371094 26.652344 393.226562 26.628906 393.15625 26.582031 C 393.15625 26.582031 393.007812 26.535156 393.023438 26.394531 C 393.046875 26.175781 393.0625 25.960938 393.101562 25.75 C 393.5625 23.433594 394.027344 21.121094 394.484375 18.804688 C 394.578125 18.34375 394.59375 17.855469 394.039062 17.71875 C 393.519531 17.589844 392.859375 17.476562 392.589844 18.117188 C 391.921875 19.714844 391.433594 21.339844 390.890625 22.980469 C 390.558594 23.984375 390.296875 25.046875 390.035156 26.078125 C 389.980469 26.28125 389.65625 26.515625 389.429688 26.542969 C 389.199219 26.574219 388.835938 26.441406 388.710938 26.253906 C 388.414062 25.816406 388.347656 25.199219 388.167969 24.730469 C 387.5625 23.140625 387.089844 21.5 386.859375 19.816406 C 386.738281 18.9375 386.425781 18.328125 385.570312 18.441406 C 384.847656 18.535156 384.746094 19.089844 384.785156 19.664062 C 384.878906 21.046875 385 22.425781 385.121094 23.804688 C 385.15625 24.21875 385.273438 24.632812 385.367188 25.019531 C 385.773438 26.65625 385.789062 27.90625 385.492188 29.335938 C 385.210938 30.6875 383.984375 31.269531 382.992188 30.628906 C 382 29.984375 381.03125 29.304688 380.027344 28.683594 C 378.6875 27.847656 377.285156 27.398438 375.785156 28.300781 C 375.59375 28.414062 375.363281 28.667969 375.371094 28.84375 C 375.378906 29.039062 375.605469 29.292969 375.804688 29.398438 " fill-opacity="1" fill-rule="nonzero"/></g><g clip-path="url(#f1170929f8)"><path fill="#fdd158" d="M 315.046875 46.398438 C 315.445312 46.929688 315.726562 47.554688 316.019531 48.15625 C 316.417969 48.960938 316.847656 49.761719 317.125 50.613281 C 317.320312 51.214844 317.492188 51.324219 317.53125 51.964844 C 317.53125 51.964844 317.492188 57.785156 317.46875 59.664062 L 322.042969 59.664062 C 322.070312 57.878906 322.167969 52.96875 322.195312 52.300781 C 322.226562 51.460938 322.820312 50.964844 323.363281 50.46875 C 324.273438 49.640625 325.269531 48.925781 326.007812 47.902344 C 326.332031 47.457031 326.886719 47.164062 327.371094 46.855469 C 327.726562 46.625 328.144531 46.492188 328.523438 46.289062 C 328.636719 46.226562 328.773438 46.078125 328.777344 45.960938 C 328.78125 45.855469 328.644531 45.707031 328.535156 45.640625 C 327.65625 45.105469 326.835938 45.371094 326.050781 45.867188 C 325.460938 46.234375 324.894531 46.636719 324.3125 47.015625 C 323.730469 47.394531 323.011719 47.050781 322.847656 46.253906 C 322.675781 45.40625 322.613281 44.558594 322.851562 43.59375 C 322.90625 43.363281 323.207031 41.351562 323.261719 40.535156 C 323.285156 40.195312 323.226562 39.871094 322.800781 39.8125 C 322.300781 39.746094 322.117188 40.105469 322.046875 40.628906 C 321.914062 41.625 321.628906 42.59375 321.277344 43.539062 C 321.175781 43.816406 321.136719 44.175781 320.964844 44.433594 C 320.890625 44.539062 320.679688 44.621094 320.542969 44.601562 C 320.410156 44.585938 320.21875 44.445312 320.1875 44.328125 C 320.035156 43.71875 319.882812 43.089844 319.6875 42.496094 C 319.367188 41.527344 319.082031 40.566406 318.691406 39.621094 C 318.535156 39.242188 318.148438 39.308594 317.84375 39.386719 C 317.519531 39.46875 317.527344 39.753906 317.582031 40.027344 C 317.851562 41.394531 318.125 42.761719 318.390625 44.132812 C 318.417969 44.257812 318.421875 44.386719 318.4375 44.511719 C 318.445312 44.597656 318.363281 44.625 318.363281 44.625 C 318.320312 44.652344 318.234375 44.664062 317.984375 44.316406 C 317.980469 44.308594 317.976562 44.300781 317.972656 44.296875 C 317.441406 43.28125 316.933594 42.253906 316.398438 41.246094 C 316.140625 40.765625 315.832031 40.585938 315.457031 40.773438 C 315.226562 40.890625 315.128906 41.164062 315.226562 41.402344 C 315.742188 42.660156 316.269531 43.941406 316.792969 45.21875 C 316.832031 45.320312 316.898438 45.421875 316.894531 45.523438 C 316.886719 45.664062 316.867188 45.863281 316.777344 45.921875 C 316.699219 45.976562 316.476562 45.921875 316.382812 45.839844 C 315.6875 45.230469 315.003906 44.601562 314.320312 43.976562 C 314.140625 43.8125 314 43.582031 313.792969 43.480469 C 313.59375 43.382812 313.324219 43.351562 313.101562 43.390625 C 312.796875 43.453125 312.710938 43.636719 312.957031 43.921875 C 313.667969 44.734375 314.398438 45.535156 315.046875 46.398438 " fill-opacity="1" fill-rule="nonzero"/></g><g clip-path="url(#0eae0cf74b)"><path fill="#f15839" d="M 270.960938 42.980469 C 271.449219 43.625 271.789062 44.386719 272.152344 45.121094 C 272.632812 46.105469 273.160156 47.082031 273.5 48.117188 C 273.734375 48.847656 273.945312 48.984375 273.996094 49.765625 C 273.996094 49.765625 273.9375 57.136719 273.90625 59.664062 L 279.484375 59.664062 C 279.519531 57.316406 279.648438 50.988281 279.675781 50.171875 C 279.714844 49.152344 280.4375 48.546875 281.101562 47.941406 C 282.210938 46.933594 283.425781 46.058594 284.328125 44.8125 C 284.722656 44.265625 285.398438 43.914062 285.988281 43.535156 C 286.421875 43.253906 286.933594 43.09375 287.390625 42.847656 C 287.53125 42.769531 287.695312 42.589844 287.703125 42.449219 C 287.707031 42.316406 287.542969 42.136719 287.40625 42.054688 C 286.335938 41.402344 285.332031 41.730469 284.375 42.328125 C 283.660156 42.777344 282.96875 43.269531 282.257812 43.734375 C 281.550781 44.195312 280.675781 43.777344 280.472656 42.800781 C 280.261719 41.769531 280.277344 40.871094 280.5625 39.6875 C 280.632812 39.410156 280.714844 39.113281 280.742188 38.816406 C 280.824219 37.820312 280.914062 36.828125 280.980469 35.832031 C 281.007812 35.417969 280.933594 35.019531 280.417969 34.949219 C 279.808594 34.867188 279.585938 35.308594 279.5 35.941406 C 279.335938 37.160156 278.984375 38.339844 278.558594 39.492188 C 278.4375 39.832031 278.386719 40.269531 278.179688 40.582031 C 278.089844 40.714844 277.828125 40.8125 277.664062 40.789062 C 277.503906 40.769531 277.269531 40.597656 277.234375 40.453125 C 277.042969 39.710938 276.859375 38.945312 276.621094 38.222656 C 276.234375 37.039062 275.882812 35.867188 275.40625 34.71875 C 275.214844 34.253906 274.746094 34.335938 274.375 34.429688 C 273.976562 34.527344 273.988281 34.878906 274.054688 35.210938 C 274.382812 36.878906 274.714844 38.546875 275.042969 40.214844 C 275.070312 40.367188 275.082031 40.523438 275.097656 40.679688 C 275.109375 40.785156 275.003906 40.816406 275.003906 40.816406 C 274.953125 40.851562 274.851562 40.867188 274.546875 40.441406 C 274.539062 40.433594 274.535156 40.421875 274.53125 40.414062 C 273.882812 39.179688 273.265625 37.929688 272.609375 36.699219 C 272.296875 36.109375 271.921875 35.894531 271.464844 36.125 C 271.183594 36.261719 271.0625 36.597656 271.183594 36.886719 C 271.8125 38.421875 272.453125 39.980469 273.089844 41.542969 C 273.140625 41.664062 273.21875 41.789062 273.214844 41.910156 C 273.207031 42.082031 273.183594 42.324219 273.074219 42.398438 C 272.976562 42.464844 272.707031 42.398438 272.59375 42.296875 C 271.742188 41.554688 270.910156 40.789062 270.078125 40.027344 C 269.859375 39.828125 269.6875 39.546875 269.4375 39.421875 C 269.191406 39.300781 268.859375 39.261719 268.59375 39.3125 C 268.222656 39.386719 268.113281 39.613281 268.414062 39.957031 C 269.28125 40.949219 270.171875 41.925781 270.960938 42.980469 " fill-opacity="1" fill-rule="nonzero"/></g><g clip-path="url(#9ae2eed494)"><path fill="#e467b4" d="M 285.050781 48.265625 C 285.460938 48.484375 285.914062 48.628906 286.304688 48.878906 C 286.828125 49.214844 287.433594 49.53125 287.785156 50.019531 C 288.589844 51.128906 289.671875 51.910156 290.660156 52.808594 C 291.253906 53.347656 291.898438 53.890625 291.933594 54.800781 C 291.960938 55.527344 292.027344 58.769531 292.042969 59.664062 L 297.023438 59.664062 C 297.015625 59.335938 297.003906 54.4375 297.003906 54.4375 C 297.046875 53.742188 297.234375 53.621094 297.445312 52.96875 C 297.746094 52.042969 298.21875 51.171875 298.648438 50.292969 C 298.96875 49.636719 299.273438 48.960938 299.707031 48.382812 C 300.414062 47.445312 301.207031 46.574219 301.980469 45.6875 C 302.25 45.378906 302.152344 45.175781 301.824219 45.113281 C 301.582031 45.066406 301.285156 45.101562 301.070312 45.210938 C 300.847656 45.320312 300.691406 45.570312 300.5 45.75 C 299.753906 46.429688 299.011719 47.109375 298.253906 47.773438 C 298.152344 47.863281 297.910156 47.925781 297.824219 47.867188 C 297.726562 47.800781 297.703125 47.582031 297.699219 47.429688 C 297.695312 47.320312 297.765625 47.207031 297.808594 47.101562 C 298.378906 45.707031 298.949219 44.320312 299.511719 42.949219 C 299.617188 42.691406 299.511719 42.390625 299.261719 42.265625 C 298.851562 42.0625 298.515625 42.253906 298.238281 42.777344 C 297.652344 43.878906 297.101562 44.992188 296.527344 46.09375 C 296.523438 46.101562 296.515625 46.109375 296.511719 46.117188 C 296.238281 46.496094 296.148438 46.484375 296.101562 46.453125 C 296.101562 46.453125 296.007812 46.425781 296.019531 46.332031 C 296.035156 46.191406 296.042969 46.054688 296.070312 45.917969 C 296.359375 44.429688 296.65625 42.941406 296.949219 41.453125 C 297.007812 41.15625 297.019531 40.84375 296.664062 40.753906 C 296.332031 40.671875 295.914062 40.601562 295.742188 41.011719 C 295.316406 42.039062 295.007812 43.082031 294.660156 44.136719 C 294.449219 44.78125 294.28125 45.46875 294.113281 46.128906 C 294.082031 46.257812 293.875 46.410156 293.730469 46.429688 C 293.582031 46.449219 293.351562 46.363281 293.269531 46.242188 C 293.082031 45.960938 293.039062 45.566406 292.925781 45.261719 C 292.539062 44.238281 292.238281 43.1875 292.089844 42.101562 C 292.015625 41.539062 291.816406 41.148438 291.273438 41.21875 C 290.808594 41.28125 290.746094 41.636719 290.773438 42.007812 C 290.832031 42.894531 290.910156 43.78125 290.984375 44.667969 C 291.007812 44.933594 291.082031 45.199219 291.140625 45.449219 C 291.398438 46.5 291.410156 47.304688 291.222656 48.222656 C 291.042969 49.09375 290.261719 49.46875 289.628906 49.054688 C 288.996094 48.640625 288.378906 48.203125 287.742188 47.804688 C 286.886719 47.265625 285.992188 46.976562 285.039062 47.558594 C 284.917969 47.628906 284.769531 47.792969 284.773438 47.910156 C 284.78125 48.035156 284.925781 48.195312 285.050781 48.265625 " fill-opacity="1" fill-rule="nonzero"/></g><g clip-path="url(#c92d81e761)"><path fill="#55a899" d="M 296.230469 37.050781 C 296.707031 37.308594 297.238281 37.476562 297.691406 37.765625 C 298.304688 38.160156 299.007812 38.527344 299.417969 39.09375 C 300.355469 40.390625 301.621094 41.304688 302.773438 42.351562 C 303.464844 42.980469 304.21875 43.609375 304.257812 44.675781 C 304.289062 45.523438 304.507812 57.925781 304.550781 59.664062 L 310.285156 59.664062 C 310.269531 54.753906 310.171875 44.25 310.171875 44.25 C 310.222656 43.4375 310.441406 43.296875 310.691406 42.535156 C 311.039062 41.457031 311.589844 40.4375 312.09375 39.414062 C 312.464844 38.652344 312.824219 37.859375 313.328125 37.1875 C 314.152344 36.09375 315.078125 35.074219 315.980469 34.042969 C 316.292969 33.683594 316.183594 33.449219 315.796875 33.371094 C 315.515625 33.316406 315.171875 33.359375 314.917969 33.484375 C 314.65625 33.617188 314.476562 33.90625 314.25 34.113281 C 313.382812 34.90625 312.515625 35.703125 311.632812 36.476562 C 311.511719 36.582031 311.234375 36.652344 311.128906 36.582031 C 311.015625 36.507812 310.992188 36.253906 310.984375 36.074219 C 310.980469 35.949219 311.0625 35.816406 311.113281 35.691406 C 311.777344 34.066406 312.445312 32.445312 313.101562 30.847656 C 313.222656 30.546875 313.097656 30.195312 312.808594 30.050781 C 312.332031 29.8125 311.941406 30.039062 311.613281 30.648438 C 310.933594 31.929688 310.289062 33.230469 309.617188 34.519531 C 309.613281 34.527344 309.605469 34.535156 309.601562 34.546875 C 309.28125 34.988281 309.175781 34.972656 309.121094 34.9375 C 309.121094 34.9375 309.015625 34.902344 309.027344 34.792969 C 309.042969 34.632812 309.054688 34.46875 309.082031 34.3125 C 309.425781 32.574219 309.769531 30.839844 310.113281 29.105469 C 310.179688 28.757812 310.191406 28.390625 309.777344 28.289062 C 309.390625 28.191406 308.902344 28.105469 308.703125 28.585938 C 308.207031 29.785156 307.84375 31.003906 307.4375 32.234375 C 307.191406 32.988281 307 33.785156 306.804688 34.558594 C 306.765625 34.710938 306.523438 34.886719 306.355469 34.90625 C 306.183594 34.929688 305.914062 34.828125 305.820312 34.691406 C 305.597656 34.363281 305.550781 33.898438 305.417969 33.546875 C 304.96875 32.355469 304.613281 31.125 304.445312 29.859375 C 304.355469 29.203125 304.121094 28.746094 303.488281 28.832031 C 302.949219 28.902344 302.875 29.316406 302.902344 29.746094 C 302.972656 30.785156 303.0625 31.820312 303.152344 32.851562 C 303.179688 33.164062 303.265625 33.472656 303.335938 33.761719 C 303.636719 34.992188 303.648438 35.929688 303.429688 37 C 303.21875 38.015625 302.308594 38.453125 301.570312 37.972656 C 300.835938 37.488281 300.113281 36.980469 299.367188 36.511719 C 298.371094 35.886719 297.328125 35.546875 296.214844 36.222656 C 296.074219 36.308594 295.902344 36.5 295.90625 36.632812 C 295.914062 36.78125 296.082031 36.96875 296.230469 37.050781 " fill-opacity="1" fill-rule="nonzero"/></g><g clip-path="url(#3e146a261c)"><path fill="#fdd158" d="M 147.234375 47.109375 C 147.769531 47.816406 148.148438 48.648438 148.546875 49.449219 C 149.078125 50.523438 149.660156 51.59375 150.03125 52.726562 C 150.292969 53.527344 150.527344 53.675781 150.582031 54.53125 C 150.582031 54.53125 150.523438 62.292969 150.492188 64.796875 L 156.648438 64.796875 C 156.6875 62.414062 156.820312 55.867188 156.855469 54.976562 C 156.894531 53.859375 157.691406 53.195312 158.425781 52.535156 C 159.652344 51.433594 160.992188 50.476562 161.984375 49.113281 C 162.421875 48.515625 163.167969 48.128906 163.820312 47.714844 C 164.300781 47.410156 164.859375 47.234375 165.367188 46.964844 C 165.523438 46.878906 165.703125 46.679688 165.710938 46.527344 C 165.71875 46.386719 165.535156 46.1875 165.382812 46.097656 C 164.203125 45.386719 163.097656 45.742188 162.039062 46.398438 C 161.25 46.890625 160.484375 47.425781 159.703125 47.933594 C 158.921875 48.4375 157.953125 47.980469 157.734375 46.914062 C 157.5 45.785156 157.417969 44.65625 157.734375 43.367188 C 157.8125 43.0625 158.21875 40.378906 158.289062 39.292969 C 158.320312 38.835938 158.242188 38.402344 157.671875 38.328125 C 156.996094 38.238281 156.75 38.71875 156.65625 39.414062 C 156.476562 40.742188 156.089844 42.035156 155.621094 43.292969 C 155.484375 43.664062 155.429688 44.144531 155.199219 44.484375 C 155.097656 44.632812 154.8125 44.738281 154.628906 44.714844 C 154.453125 44.691406 154.195312 44.503906 154.15625 44.34375 C 153.945312 43.535156 153.742188 42.695312 153.480469 41.90625 C 153.050781 40.609375 152.667969 39.332031 152.140625 38.070312 C 151.925781 37.566406 151.410156 37.65625 151 37.757812 C 150.5625 37.867188 150.574219 38.25 150.644531 38.613281 C 151.007812 40.4375 151.375 42.261719 151.734375 44.085938 C 151.769531 44.253906 151.777344 44.425781 151.796875 44.59375 C 151.808594 44.707031 151.695312 44.742188 151.695312 44.742188 C 151.640625 44.78125 151.523438 44.796875 151.1875 44.332031 C 151.183594 44.324219 151.175781 44.3125 151.171875 44.304688 C 150.457031 42.953125 149.773438 41.585938 149.050781 40.238281 C 148.707031 39.597656 148.292969 39.359375 147.785156 39.609375 C 147.476562 39.761719 147.34375 40.128906 147.476562 40.445312 C 148.171875 42.125 148.878906 43.832031 149.582031 45.535156 C 149.636719 45.667969 149.726562 45.808594 149.71875 45.941406 C 149.710938 46.128906 149.683594 46.394531 149.566406 46.472656 C 149.457031 46.546875 149.160156 46.472656 149.035156 46.363281 C 148.09375 45.550781 147.175781 44.714844 146.257812 43.878906 C 146.015625 43.660156 145.824219 43.355469 145.546875 43.21875 C 145.28125 43.085938 144.914062 43.042969 144.617188 43.097656 C 144.207031 43.179688 144.089844 43.425781 144.421875 43.804688 C 145.378906 44.890625 146.363281 45.957031 147.234375 47.109375 " fill-opacity="1" fill-rule="nonzero"/></g><g clip-path="url(#d6fc8648da)"><path fill="#f15839" d="M 87.910156 42.546875 C 88.5625 43.410156 89.027344 44.425781 89.507812 45.402344 C 90.160156 46.714844 90.871094 48.015625 91.324219 49.398438 C 91.640625 50.375 91.925781 50.554688 91.992188 51.597656 C 91.992188 51.597656 91.914062 61.421875 91.875 64.796875 L 99.378906 64.796875 C 99.425781 61.664062 99.597656 53.226562 99.636719 52.140625 C 99.691406 50.777344 100.660156 49.96875 101.554688 49.164062 C 103.046875 47.820312 104.683594 46.652344 105.894531 44.992188 C 106.425781 44.265625 107.335938 43.792969 108.128906 43.289062 C 108.714844 42.917969 109.402344 42.703125 110.015625 42.371094 C 110.207031 42.269531 110.429688 42.027344 110.4375 41.839844 C 110.445312 41.667969 110.222656 41.425781 110.039062 41.3125 C 108.597656 40.449219 107.25 40.882812 105.960938 41.683594 C 104.996094 42.28125 104.066406 42.933594 103.113281 43.554688 C 102.160156 44.167969 100.980469 43.609375 100.710938 42.308594 C 100.425781 40.9375 100.445312 39.734375 100.832031 38.160156 C 100.921875 37.792969 101.035156 37.394531 101.070312 36.996094 C 101.183594 35.671875 101.300781 34.34375 101.390625 33.019531 C 101.425781 32.464844 101.332031 31.933594 100.636719 31.84375 C 99.8125 31.734375 99.511719 32.320312 99.398438 33.167969 C 99.179688 34.789062 98.707031 36.363281 98.136719 37.898438 C 97.96875 38.351562 97.902344 38.933594 97.621094 39.351562 C 97.5 39.527344 97.148438 39.65625 96.925781 39.628906 C 96.710938 39.601562 96.398438 39.375 96.347656 39.179688 C 96.09375 38.191406 95.84375 37.167969 95.527344 36.207031 C 95.003906 34.628906 94.535156 33.066406 93.890625 31.53125 C 93.632812 30.917969 93 31.027344 92.5 31.148438 C 91.96875 31.28125 91.984375 31.75 92.070312 32.191406 C 92.515625 34.417969 92.960938 36.640625 93.398438 38.863281 C 93.441406 39.066406 93.453125 39.277344 93.476562 39.484375 C 93.488281 39.621094 93.347656 39.667969 93.347656 39.667969 C 93.28125 39.710938 93.144531 39.730469 92.730469 39.164062 C 92.722656 39.152344 92.714844 39.140625 92.710938 39.128906 C 91.839844 37.480469 91.007812 35.8125 90.128906 34.171875 C 89.707031 33.390625 89.203125 33.101562 88.585938 33.40625 C 88.210938 33.59375 88.046875 34.039062 88.207031 34.425781 C 89.054688 36.472656 89.914062 38.550781 90.773438 40.632812 C 90.839844 40.792969 90.949219 40.960938 90.941406 41.125 C 90.933594 41.351562 90.898438 41.675781 90.753906 41.777344 C 90.621094 41.863281 90.257812 41.773438 90.105469 41.640625 C 88.960938 40.648438 87.839844 39.628906 86.71875 38.613281 C 86.425781 38.347656 86.195312 37.972656 85.855469 37.804688 C 85.527344 37.644531 85.082031 37.59375 84.722656 37.660156 C 84.222656 37.757812 84.078125 38.058594 84.484375 38.519531 C 85.648438 39.84375 86.847656 41.144531 87.910156 42.546875 " fill-opacity="1" fill-rule="nonzero"/></g><g clip-path="url(#6eec8edfe2)"><path fill="#e467b4" d="M 106.871094 49.597656 C 107.421875 49.890625 108.03125 50.082031 108.554688 50.414062 C 109.261719 50.863281 110.074219 51.285156 110.546875 51.933594 C 111.628906 53.414062 113.089844 54.457031 114.417969 55.65625 C 115.21875 56.375 116.085938 57.09375 116.132812 58.3125 C 116.167969 59.28125 116.253906 63.605469 116.277344 64.796875 L 122.980469 64.796875 C 122.96875 64.359375 122.953125 57.824219 122.953125 57.824219 C 123.011719 56.898438 123.265625 56.734375 123.550781 55.867188 C 123.953125 54.632812 124.585938 53.46875 125.167969 52.300781 C 125.597656 51.425781 126.011719 50.523438 126.59375 49.753906 C 127.542969 48.5 128.609375 47.339844 129.652344 46.160156 C 130.011719 45.75 129.882812 45.480469 129.4375 45.394531 C 129.117188 45.332031 128.71875 45.378906 128.425781 45.523438 C 128.125 45.671875 127.917969 46.003906 127.65625 46.242188 C 126.65625 47.148438 125.65625 48.058594 124.636719 48.941406 C 124.5 49.0625 124.175781 49.144531 124.058594 49.0625 C 123.925781 48.976562 123.898438 48.6875 123.890625 48.484375 C 123.882812 48.339844 123.976562 48.1875 124.039062 48.042969 C 124.804688 46.1875 125.574219 44.335938 126.328125 42.507812 C 126.472656 42.164062 126.328125 41.765625 125.996094 41.597656 C 125.441406 41.324219 124.992188 41.582031 124.617188 42.28125 C 123.828125 43.746094 123.085938 45.234375 122.3125 46.703125 C 122.304688 46.714844 122.296875 46.722656 122.292969 46.734375 C 121.925781 47.238281 121.800781 47.21875 121.742188 47.183594 C 121.742188 47.183594 121.617188 47.140625 121.628906 47.019531 C 121.648438 46.832031 121.660156 46.648438 121.695312 46.464844 C 122.089844 44.480469 122.488281 42.5 122.882812 40.515625 C 122.960938 40.117188 122.972656 39.703125 122.5 39.582031 C 122.050781 39.472656 121.488281 39.375 121.257812 39.925781 C 120.683594 41.292969 120.265625 42.6875 119.800781 44.09375 C 119.515625 44.953125 119.292969 45.867188 119.066406 46.75 C 119.019531 46.921875 118.742188 47.125 118.550781 47.148438 C 118.351562 47.175781 118.039062 47.058594 117.929688 46.902344 C 117.675781 46.523438 117.621094 45.996094 117.46875 45.59375 C 116.949219 44.230469 116.542969 42.828125 116.34375 41.378906 C 116.242188 40.628906 115.972656 40.105469 115.242188 40.203125 C 114.621094 40.285156 114.535156 40.757812 114.566406 41.25 C 114.648438 42.433594 114.75 43.617188 114.855469 44.800781 C 114.886719 45.15625 114.984375 45.511719 115.066406 45.839844 C 115.414062 47.242188 115.425781 48.316406 115.171875 49.539062 C 114.933594 50.703125 113.882812 51.199219 113.03125 50.648438 C 112.179688 50.097656 111.351562 49.515625 110.488281 48.980469 C 109.339844 48.265625 108.136719 47.878906 106.851562 48.652344 C 106.691406 48.75 106.488281 48.96875 106.496094 49.121094 C 106.503906 49.289062 106.699219 49.503906 106.871094 49.597656 " fill-opacity="1" fill-rule="nonzero"/></g><g clip-path="url(#b467dc70c0)"><path fill="#55a899" d="M 121.914062 34.644531 C 122.554688 34.984375 123.269531 35.210938 123.878906 35.597656 C 124.703125 36.121094 125.652344 36.613281 126.203125 37.367188 C 127.46875 39.097656 129.167969 40.3125 130.722656 41.710938 C 131.652344 42.550781 132.664062 43.390625 132.71875 44.808594 C 132.761719 45.941406 133.050781 62.476562 133.109375 64.796875 L 140.828125 64.796875 C 140.804688 58.25 140.675781 44.242188 140.675781 44.242188 C 140.742188 43.160156 141.039062 42.972656 141.371094 41.957031 C 141.84375 40.519531 142.582031 39.160156 143.257812 37.796875 C 143.761719 36.777344 144.242188 35.722656 144.921875 34.824219 C 146.027344 33.367188 147.277344 32.011719 148.488281 30.632812 C 148.914062 30.152344 148.761719 29.839844 148.242188 29.738281 C 147.867188 29.667969 147.402344 29.722656 147.0625 29.890625 C 146.710938 30.0625 146.46875 30.453125 146.164062 30.730469 C 144.996094 31.785156 143.828125 32.847656 142.640625 33.878906 C 142.476562 34.019531 142.101562 34.113281 141.964844 34.023438 C 141.8125 33.917969 141.777344 33.582031 141.769531 33.34375 C 141.761719 33.175781 141.871094 33 141.941406 32.832031 C 142.835938 30.667969 143.734375 28.503906 144.617188 26.375 C 144.78125 25.972656 144.613281 25.507812 144.222656 25.3125 C 143.578125 24.992188 143.054688 25.292969 142.617188 26.109375 C 141.699219 27.816406 140.832031 29.550781 139.925781 31.265625 C 139.921875 31.28125 139.914062 31.292969 139.90625 31.304688 C 139.476562 31.894531 139.332031 31.871094 139.261719 31.828125 C 139.261719 31.828125 139.117188 31.78125 139.132812 31.636719 C 139.15625 31.417969 139.167969 31.203125 139.210938 30.992188 C 139.667969 28.675781 140.132812 26.363281 140.59375 24.046875 C 140.683594 23.585938 140.699219 23.097656 140.144531 22.960938 C 139.625 22.832031 138.964844 22.71875 138.699219 23.359375 C 138.03125 24.957031 137.542969 26.582031 136.996094 28.222656 C 136.664062 29.226562 136.40625 30.289062 136.140625 31.320312 C 136.089844 31.523438 135.761719 31.757812 135.539062 31.785156 C 135.304688 31.816406 134.941406 31.683594 134.816406 31.496094 C 134.519531 31.058594 134.453125 30.441406 134.277344 29.972656 C 133.671875 28.382812 133.195312 26.746094 132.964844 25.058594 C 132.847656 24.179688 132.53125 23.570312 131.679688 23.683594 C 130.957031 23.777344 130.855469 24.332031 130.894531 24.90625 C 130.984375 26.289062 131.109375 27.667969 131.226562 29.046875 C 131.265625 29.460938 131.378906 29.875 131.476562 30.261719 C 131.878906 31.898438 131.898438 33.148438 131.601562 34.578125 C 131.320312 35.933594 130.09375 36.511719 129.101562 35.871094 C 128.109375 35.230469 127.140625 34.546875 126.136719 33.925781 C 124.792969 33.089844 123.394531 32.640625 121.894531 33.542969 C 121.703125 33.65625 121.46875 33.910156 121.476562 34.085938 C 121.488281 34.285156 121.714844 34.535156 121.914062 34.644531 " fill-opacity="1" fill-rule="nonzero"/></g><g clip-path="url(#fb5366d27d)"><path fill="#fdd158" d="M 66.734375 50.222656 C 67.109375 50.714844 67.375 51.292969 67.648438 51.851562 C 68.023438 52.601562 68.429688 53.34375 68.6875 54.136719 C 68.871094 54.691406 69.03125 54.796875 69.070312 55.390625 C 69.070312 55.390625 69.03125 60.796875 69.007812 62.539062 L 73.300781 62.539062 C 73.328125 60.882812 73.421875 56.320312 73.445312 55.699219 C 73.472656 54.921875 74.03125 54.460938 74.539062 54 C 75.394531 53.234375 76.328125 52.566406 77.023438 51.617188 C 77.328125 51.203125 77.847656 50.933594 78.300781 50.644531 C 78.636719 50.433594 79.027344 50.308594 79.382812 50.121094 C 79.492188 50.0625 79.617188 49.921875 79.621094 49.816406 C 79.625 49.71875 79.496094 49.578125 79.394531 49.515625 C 78.570312 49.019531 77.796875 49.269531 77.0625 49.726562 C 76.507812 50.070312 75.976562 50.441406 75.429688 50.796875 C 74.886719 51.148438 74.210938 50.828125 74.058594 50.085938 C 73.894531 49.300781 73.835938 48.515625 74.058594 47.617188 C 74.113281 47.402344 74.394531 45.535156 74.445312 44.777344 C 74.46875 44.460938 74.414062 44.15625 74.015625 44.105469 C 73.546875 44.042969 73.371094 44.378906 73.308594 44.863281 C 73.179688 45.789062 72.910156 46.6875 72.585938 47.566406 C 72.488281 47.824219 72.453125 48.15625 72.289062 48.394531 C 72.21875 48.496094 72.019531 48.570312 71.894531 48.554688 C 71.769531 48.539062 71.589844 48.410156 71.5625 48.296875 C 71.417969 47.730469 71.273438 47.148438 71.089844 46.597656 C 70.792969 45.695312 70.523438 44.804688 70.15625 43.929688 C 70.007812 43.578125 69.648438 43.640625 69.359375 43.710938 C 69.058594 43.785156 69.066406 44.050781 69.117188 44.304688 C 69.367188 45.574219 69.625 46.84375 69.875 48.117188 C 69.898438 48.234375 69.90625 48.351562 69.917969 48.46875 C 69.925781 48.550781 69.847656 48.574219 69.847656 48.574219 C 69.808594 48.597656 69.730469 48.613281 69.492188 48.289062 C 69.488281 48.28125 69.484375 48.273438 69.480469 48.269531 C 68.984375 47.328125 68.507812 46.375 68.003906 45.4375 C 67.761719 44.988281 67.476562 44.824219 67.121094 45 C 66.90625 45.105469 66.8125 45.359375 66.902344 45.582031 C 67.390625 46.75 67.882812 47.9375 68.375 49.125 C 68.414062 49.21875 68.472656 49.316406 68.46875 49.40625 C 68.464844 49.539062 68.445312 49.722656 68.359375 49.78125 C 68.285156 49.832031 68.078125 49.777344 67.992188 49.703125 C 67.335938 49.136719 66.695312 48.554688 66.054688 47.972656 C 65.886719 47.820312 65.753906 47.605469 65.5625 47.511719 C 65.375 47.421875 65.117188 47.390625 64.910156 47.429688 C 64.625 47.484375 64.542969 47.65625 64.777344 47.921875 C 65.441406 48.675781 66.128906 49.417969 66.734375 50.222656 " fill-opacity="1" fill-rule="nonzero"/></g><g clip-path="url(#c9f85bfd1a)"><path fill="#f15839" d="M 25.367188 47.046875 C 25.820312 47.644531 26.144531 48.351562 26.480469 49.03125 C 26.933594 49.945312 27.429688 50.855469 27.746094 51.816406 C 27.96875 52.496094 28.167969 52.621094 28.210938 53.347656 C 28.210938 53.347656 28.160156 60.191406 28.128906 62.539062 L 33.363281 62.539062 C 33.394531 60.359375 33.515625 54.484375 33.542969 53.726562 C 33.582031 52.777344 34.257812 52.214844 34.882812 51.652344 C 35.921875 50.71875 37.0625 49.90625 37.90625 48.746094 C 38.277344 48.242188 38.914062 47.914062 39.464844 47.5625 C 39.875 47.300781 40.351562 47.152344 40.78125 46.921875 C 40.914062 46.851562 41.070312 46.683594 41.074219 46.550781 C 41.082031 46.433594 40.925781 46.261719 40.796875 46.1875 C 39.792969 45.582031 38.851562 45.882812 37.953125 46.441406 C 37.28125 46.859375 36.632812 47.316406 35.96875 47.746094 C 35.304688 48.175781 34.480469 47.785156 34.292969 46.878906 C 34.09375 45.921875 34.105469 45.085938 34.375 43.992188 C 34.441406 43.734375 34.519531 43.457031 34.542969 43.179688 C 34.621094 42.257812 34.703125 41.332031 34.765625 40.410156 C 34.792969 40.023438 34.726562 39.652344 34.238281 39.589844 C 33.667969 39.515625 33.457031 39.921875 33.378906 40.511719 C 33.222656 41.640625 32.894531 42.738281 32.496094 43.808594 C 32.378906 44.121094 32.335938 44.527344 32.136719 44.820312 C 32.054688 44.941406 31.808594 45.03125 31.652344 45.011719 C 31.503906 44.992188 31.285156 44.835938 31.25 44.699219 C 31.074219 44.011719 30.898438 43.300781 30.675781 42.628906 C 30.3125 41.527344 29.984375 40.441406 29.539062 39.375 C 29.355469 38.945312 28.917969 39.019531 28.566406 39.109375 C 28.195312 39.199219 28.207031 39.523438 28.265625 39.832031 C 28.578125 41.382812 28.886719 42.929688 29.195312 44.480469 C 29.222656 44.621094 29.230469 44.765625 29.246094 44.910156 C 29.257812 45.007812 29.160156 45.039062 29.160156 45.039062 C 29.113281 45.070312 29.015625 45.082031 28.730469 44.6875 C 28.722656 44.679688 28.71875 44.671875 28.714844 44.664062 C 28.105469 43.515625 27.527344 42.355469 26.914062 41.214844 C 26.621094 40.667969 26.269531 40.464844 25.835938 40.679688 C 25.574219 40.808594 25.460938 41.121094 25.570312 41.390625 C 26.164062 42.816406 26.765625 44.261719 27.363281 45.710938 C 27.410156 45.824219 27.484375 45.941406 27.480469 46.054688 C 27.472656 46.214844 27.449219 46.4375 27.347656 46.507812 C 27.257812 46.570312 27.003906 46.507812 26.898438 46.414062 C 26.097656 45.722656 25.316406 45.011719 24.535156 44.304688 C 24.332031 44.117188 24.167969 43.859375 23.933594 43.742188 C 23.707031 43.628906 23.394531 43.59375 23.144531 43.640625 C 22.792969 43.710938 22.695312 43.917969 22.976562 44.242188 C 23.789062 45.160156 24.625 46.070312 25.367188 47.046875 " fill-opacity="1" fill-rule="nonzero"/></g><g clip-path="url(#7824d99161)"><path fill="#e467b4" d="M 38.589844 51.953125 C 38.972656 52.160156 39.398438 52.292969 39.761719 52.523438 C 40.257812 52.835938 40.824219 53.128906 41.152344 53.582031 C 41.90625 54.613281 42.925781 55.339844 43.851562 56.175781 C 44.410156 56.675781 45.015625 57.175781 45.046875 58.023438 C 45.070312 58.699219 45.132812 61.710938 45.148438 62.539062 L 49.824219 62.539062 C 49.816406 62.234375 49.804688 57.683594 49.804688 57.683594 C 49.84375 57.039062 50.019531 56.925781 50.21875 56.320312 C 50.5 55.460938 50.941406 54.652344 51.347656 53.835938 C 51.648438 53.230469 51.9375 52.597656 52.34375 52.0625 C 53.003906 51.191406 53.75 50.382812 54.472656 49.5625 C 54.726562 49.273438 54.636719 49.085938 54.328125 49.027344 C 54.101562 48.984375 53.824219 49.015625 53.621094 49.117188 C 53.410156 49.21875 53.265625 49.453125 53.082031 49.617188 C 52.386719 50.25 51.6875 50.882812 50.976562 51.5 C 50.882812 51.582031 50.65625 51.636719 50.574219 51.582031 C 50.480469 51.523438 50.460938 51.320312 50.457031 51.179688 C 50.453125 51.078125 50.519531 50.972656 50.558594 50.871094 C 51.09375 49.582031 51.628906 48.289062 52.160156 47.019531 C 52.257812 46.777344 52.15625 46.5 51.925781 46.382812 C 51.539062 46.195312 51.226562 46.371094 50.964844 46.859375 C 50.414062 47.878906 49.898438 48.914062 49.355469 49.9375 C 49.351562 49.945312 49.347656 49.953125 49.34375 49.960938 C 49.085938 50.3125 49 50.300781 48.957031 50.273438 C 48.957031 50.273438 48.871094 50.246094 48.878906 50.160156 C 48.894531 50.03125 48.902344 49.902344 48.925781 49.773438 C 49.199219 48.390625 49.476562 47.011719 49.753906 45.628906 C 49.808594 45.355469 49.816406 45.0625 49.488281 44.980469 C 49.175781 44.90625 48.78125 44.835938 48.621094 45.21875 C 48.222656 46.171875 47.929688 47.140625 47.605469 48.121094 C 47.40625 48.722656 47.25 49.355469 47.09375 49.96875 C 47.0625 50.089844 46.867188 50.230469 46.734375 50.25 C 46.59375 50.265625 46.375 50.1875 46.300781 50.078125 C 46.125 49.816406 46.085938 49.449219 45.976562 49.167969 C 45.617188 48.214844 45.332031 47.238281 45.195312 46.230469 C 45.125 45.707031 44.9375 45.34375 44.425781 45.410156 C 43.992188 45.46875 43.933594 45.800781 43.957031 46.140625 C 44.011719 46.964844 44.085938 47.789062 44.15625 48.613281 C 44.175781 48.859375 44.246094 49.109375 44.304688 49.339844 C 44.546875 50.316406 44.554688 51.0625 44.378906 51.914062 C 44.210938 52.722656 43.476562 53.070312 42.882812 52.6875 C 42.292969 52.304688 41.710938 51.898438 41.113281 51.523438 C 40.308594 51.027344 39.472656 50.757812 38.574219 51.296875 C 38.460938 51.363281 38.324219 51.515625 38.328125 51.621094 C 38.332031 51.738281 38.46875 51.890625 38.589844 51.953125 " fill-opacity="1" fill-rule="nonzero"/></g><g clip-path="url(#5f1870999e)"><path fill="#55a899" d="M 49.078125 41.539062 C 49.527344 41.777344 50.023438 41.933594 50.449219 42.203125 C 51.023438 42.570312 51.6875 42.914062 52.070312 43.4375 C 52.953125 44.644531 54.136719 45.488281 55.21875 46.464844 C 55.871094 47.046875 56.574219 47.632812 56.613281 48.621094 C 56.644531 49.40625 56.84375 60.925781 56.886719 62.539062 L 62.269531 62.539062 C 62.253906 57.980469 62.164062 48.226562 62.164062 48.226562 C 62.210938 47.472656 62.417969 47.339844 62.648438 46.632812 C 62.976562 45.632812 63.492188 44.6875 63.964844 43.734375 C 64.316406 43.027344 64.652344 42.292969 65.125 41.667969 C 65.894531 40.652344 66.765625 39.707031 67.613281 38.746094 C 67.90625 38.414062 67.800781 38.195312 67.4375 38.125 C 67.175781 38.074219 66.851562 38.113281 66.613281 38.230469 C 66.371094 38.351562 66.203125 38.621094 65.988281 38.8125 C 65.175781 39.550781 64.363281 40.289062 63.53125 41.007812 C 63.417969 41.105469 63.15625 41.171875 63.0625 41.105469 C 62.953125 41.035156 62.929688 40.800781 62.925781 40.636719 C 62.917969 40.519531 62.996094 40.394531 63.046875 40.277344 C 63.667969 38.769531 64.292969 37.265625 64.910156 35.78125 C 65.027344 35.5 64.910156 35.175781 64.636719 35.042969 C 64.1875 34.820312 63.820312 35.027344 63.515625 35.597656 C 62.875 36.785156 62.273438 37.996094 61.640625 39.1875 C 61.636719 39.199219 61.628906 39.207031 61.625 39.214844 C 61.328125 39.625 61.226562 39.609375 61.175781 39.578125 C 61.175781 39.578125 61.074219 39.546875 61.085938 39.445312 C 61.101562 39.296875 61.113281 39.144531 61.140625 38.996094 C 61.460938 37.382812 61.785156 35.773438 62.105469 34.160156 C 62.167969 33.839844 62.179688 33.5 61.792969 33.40625 C 61.429688 33.316406 60.972656 33.234375 60.785156 33.683594 C 60.316406 34.796875 59.976562 35.925781 59.597656 37.070312 C 59.367188 37.769531 59.183594 38.507812 59 39.226562 C 58.964844 39.367188 58.738281 39.53125 58.582031 39.550781 C 58.417969 39.570312 58.164062 39.480469 58.078125 39.351562 C 57.871094 39.042969 57.824219 38.617188 57.699219 38.289062 C 57.277344 37.179688 56.945312 36.039062 56.785156 34.863281 C 56.703125 34.253906 56.484375 33.828125 55.890625 33.90625 C 55.382812 33.972656 55.3125 34.359375 55.339844 34.757812 C 55.40625 35.722656 55.492188 36.683594 55.574219 37.644531 C 55.597656 37.929688 55.679688 38.21875 55.746094 38.488281 C 56.027344 39.628906 56.039062 40.5 55.832031 41.496094 C 55.636719 42.4375 54.78125 42.84375 54.089844 42.394531 C 53.398438 41.949219 52.722656 41.472656 52.023438 41.039062 C 51.085938 40.460938 50.109375 40.144531 49.0625 40.773438 C 48.933594 40.851562 48.769531 41.027344 48.773438 41.152344 C 48.78125 41.289062 48.941406 41.464844 49.078125 41.539062 " fill-opacity="1" fill-rule="nonzero"/></g><g clip-path="url(#bfb2eeae3a)"><path fill="#fdd158" d="M 246.140625 37.453125 C 246.785156 38.3125 247.238281 39.324219 247.714844 40.296875 C 248.355469 41.605469 249.058594 42.902344 249.503906 44.277344 C 249.816406 45.25 250.097656 45.429688 250.164062 46.464844 C 250.164062 46.464844 250.09375 55.890625 250.054688 58.929688 L 257.457031 58.929688 C 257.503906 56.039062 257.664062 48.089844 257.703125 47.007812 C 257.753906 45.652344 258.710938 44.847656 259.59375 44.042969 C 261.066406 42.707031 262.675781 41.542969 263.875 39.886719 C 264.394531 39.164062 265.292969 38.695312 266.074219 38.191406 C 266.652344 37.820312 267.328125 37.609375 267.9375 37.28125 C 268.125 37.175781 268.34375 36.933594 268.351562 36.75 C 268.359375 36.578125 268.136719 36.335938 267.957031 36.226562 C 266.535156 35.363281 265.210938 35.792969 263.9375 36.589844 C 262.988281 37.1875 262.070312 37.839844 261.128906 38.457031 C 260.191406 39.070312 259.027344 38.511719 258.761719 37.21875 C 258.480469 35.847656 258.382812 34.476562 258.765625 32.910156 C 258.855469 32.542969 259.34375 29.285156 259.429688 27.960938 C 259.464844 27.410156 259.371094 26.882812 258.6875 26.789062 C 257.878906 26.683594 257.582031 27.269531 257.46875 28.109375 C 257.25 29.726562 256.785156 31.292969 256.222656 32.824219 C 256.054688 33.273438 255.992188 33.855469 255.714844 34.269531 C 255.59375 34.445312 255.25 34.574219 255.03125 34.546875 C 254.816406 34.519531 254.507812 34.292969 254.457031 34.097656 C 254.207031 33.113281 253.964844 32.09375 253.648438 31.136719 C 253.132812 29.566406 252.671875 28.011719 252.035156 26.480469 C 251.78125 25.867188 251.160156 25.976562 250.664062 26.101562 C 250.140625 26.230469 250.15625 26.699219 250.242188 27.140625 C 250.679688 29.355469 251.117188 31.570312 251.550781 33.785156 C 251.589844 33.988281 251.601562 34.195312 251.625 34.402344 C 251.640625 34.539062 251.503906 34.582031 251.503906 34.582031 C 251.4375 34.625 251.296875 34.648438 250.894531 34.082031 C 250.886719 34.070312 250.878906 34.058594 250.871094 34.050781 C 250.015625 32.40625 249.195312 30.746094 248.324219 29.113281 C 247.910156 28.332031 247.414062 28.042969 246.804688 28.347656 C 246.433594 28.535156 246.273438 28.980469 246.429688 29.363281 C 247.265625 31.402344 248.117188 33.472656 248.964844 35.542969 C 249.03125 35.707031 249.136719 35.875 249.128906 36.035156 C 249.117188 36.265625 249.085938 36.585938 248.941406 36.683594 C 248.8125 36.773438 248.453125 36.683594 248.304688 36.550781 C 247.175781 35.5625 246.070312 34.546875 244.964844 33.535156 C 244.675781 33.269531 244.445312 32.898438 244.113281 32.730469 C 243.792969 32.570312 243.351562 32.519531 242.996094 32.585938 C 242.503906 32.683594 242.359375 32.984375 242.761719 33.441406 C 243.910156 34.761719 245.09375 36.058594 246.140625 37.453125 " fill-opacity="1" fill-rule="nonzero"/></g><g clip-path="url(#560878abeb)"><path fill="#f15839" d="M 174.832031 31.917969 C 175.613281 32.964844 176.171875 34.195312 176.753906 35.382812 C 177.535156 36.976562 178.386719 38.558594 178.933594 40.238281 C 179.316406 41.421875 179.65625 41.640625 179.734375 42.90625 C 179.734375 42.90625 179.644531 54.835938 179.59375 58.929688 L 188.617188 58.929688 C 188.671875 55.128906 188.878906 44.886719 188.925781 43.566406 C 188.988281 41.910156 190.15625 40.929688 191.234375 39.953125 C 193.027344 38.320312 194.992188 36.902344 196.449219 34.882812 C 197.085938 34.003906 198.183594 33.429688 199.136719 32.816406 C 199.839844 32.363281 200.664062 32.105469 201.402344 31.703125 C 201.632812 31.582031 201.898438 31.285156 201.90625 31.054688 C 201.917969 30.847656 201.648438 30.554688 201.429688 30.417969 C 199.695312 29.367188 198.078125 29.894531 196.527344 30.867188 C 195.371094 31.59375 194.25 32.386719 193.101562 33.136719 C 191.957031 33.886719 190.542969 33.207031 190.21875 31.628906 C 189.875 29.960938 189.894531 28.503906 190.363281 26.589844 C 190.472656 26.140625 190.605469 25.660156 190.648438 25.175781 C 190.785156 23.566406 190.925781 21.957031 191.03125 20.34375 C 191.078125 19.675781 190.960938 19.03125 190.125 18.917969 C 189.140625 18.785156 188.777344 19.5 188.640625 20.527344 C 188.375 22.496094 187.808594 24.410156 187.121094 26.273438 C 186.917969 26.820312 186.84375 27.527344 186.503906 28.035156 C 186.355469 28.25 185.9375 28.40625 185.667969 28.371094 C 185.410156 28.339844 185.03125 28.0625 184.972656 27.828125 C 184.667969 26.628906 184.367188 25.386719 183.984375 24.214844 C 183.355469 22.300781 182.792969 20.40625 182.019531 18.539062 C 181.710938 17.792969 180.949219 17.925781 180.347656 18.078125 C 179.707031 18.234375 179.726562 18.804688 179.832031 19.34375 C 180.363281 22.042969 180.898438 24.742188 181.429688 27.441406 C 181.476562 27.691406 181.492188 27.945312 181.519531 28.195312 C 181.535156 28.363281 181.367188 28.417969 181.367188 28.417969 C 181.289062 28.46875 181.121094 28.496094 180.625 27.808594 C 180.617188 27.792969 180.609375 27.78125 180.601562 27.765625 C 179.554688 25.765625 178.554688 23.742188 177.496094 21.746094 C 176.988281 20.796875 176.382812 20.445312 175.640625 20.816406 C 175.191406 21.042969 174.992188 21.585938 175.183594 22.054688 C 176.203125 24.539062 177.238281 27.066406 178.273438 29.589844 C 178.355469 29.785156 178.484375 29.992188 178.472656 30.1875 C 178.460938 30.464844 178.421875 30.859375 178.246094 30.980469 C 178.089844 31.085938 177.652344 30.976562 177.46875 30.8125 C 176.09375 29.609375 174.746094 28.371094 173.398438 27.136719 C 173.046875 26.816406 172.765625 26.363281 172.359375 26.160156 C 171.96875 25.964844 171.429688 25.898438 170.996094 25.984375 C 170.398438 26.101562 170.222656 26.46875 170.710938 27.027344 C 172.113281 28.632812 173.554688 30.214844 174.832031 31.917969 " fill-opacity="1" fill-rule="nonzero"/></g><g clip-path="url(#ff0b71c9b0)"><path fill="#e467b4" d="M 197.621094 40.476562 C 198.285156 40.832031 199.015625 41.066406 199.644531 41.46875 C 200.496094 42.015625 201.472656 42.527344 202.042969 43.3125 C 203.34375 45.113281 205.097656 46.378906 206.695312 47.832031 C 207.65625 48.707031 208.695312 49.582031 208.753906 51.058594 C 208.796875 52.234375 208.902344 57.484375 208.929688 58.929688 L 216.988281 58.929688 C 216.972656 58.402344 216.953125 50.46875 216.953125 50.46875 C 217.023438 49.339844 217.328125 49.144531 217.667969 48.089844 C 218.15625 46.589844 218.917969 45.179688 219.613281 43.757812 C 220.132812 42.699219 220.628906 41.601562 221.328125 40.667969 C 222.46875 39.144531 223.753906 37.734375 225.003906 36.304688 C 225.4375 35.804688 225.285156 35.476562 224.75 35.371094 C 224.363281 35.296875 223.882812 35.355469 223.53125 35.527344 C 223.167969 35.710938 222.921875 36.113281 222.605469 36.402344 C 221.402344 37.503906 220.203125 38.605469 218.976562 39.679688 C 218.808594 39.828125 218.421875 39.925781 218.28125 39.828125 C 218.125 39.722656 218.089844 39.371094 218.078125 39.125 C 218.070312 38.949219 218.183594 38.765625 218.257812 38.589844 C 219.179688 36.335938 220.101562 34.085938 221.011719 31.867188 C 221.183594 31.453125 221.011719 30.964844 220.609375 30.765625 C 219.945312 30.433594 219.402344 30.746094 218.953125 31.59375 C 218.007812 33.371094 217.113281 35.175781 216.179688 36.960938 C 216.175781 36.976562 216.167969 36.988281 216.160156 37 C 215.71875 37.613281 215.566406 37.589844 215.496094 37.542969 C 215.496094 37.542969 215.347656 37.496094 215.363281 37.347656 C 215.386719 37.121094 215.398438 36.894531 215.441406 36.675781 C 215.914062 34.265625 216.394531 31.855469 216.867188 29.449219 C 216.960938 28.96875 216.976562 28.460938 216.40625 28.316406 C 215.871094 28.183594 215.191406 28.066406 214.914062 28.734375 C 214.226562 30.394531 213.722656 32.085938 213.164062 33.792969 C 212.820312 34.839844 212.554688 35.945312 212.28125 37.015625 C 212.226562 37.230469 211.890625 37.472656 211.660156 37.503906 C 211.421875 37.535156 211.046875 37.394531 210.917969 37.203125 C 210.609375 36.746094 210.542969 36.105469 210.359375 35.613281 C 209.734375 33.957031 209.246094 32.253906 209.007812 30.5 C 208.886719 29.585938 208.5625 28.949219 207.683594 29.070312 C 206.9375 29.167969 206.832031 29.746094 206.875 30.34375 C 206.96875 31.78125 207.09375 33.214844 207.21875 34.652344 C 207.253906 35.082031 207.375 35.511719 207.472656 35.914062 C 207.890625 37.617188 207.90625 38.917969 207.601562 40.40625 C 207.3125 41.816406 206.046875 42.421875 205.027344 41.753906 C 204.003906 41.085938 203.003906 40.378906 201.972656 39.726562 C 200.589844 38.859375 199.144531 38.390625 197.597656 39.328125 C 197.402344 39.449219 197.164062 39.710938 197.171875 39.898438 C 197.179688 40.101562 197.417969 40.367188 197.621094 40.476562 " fill-opacity="1" fill-rule="nonzero"/></g><g clip-path="url(#9802f5099d)"><path fill="#55a899" d="M 215.703125 22.316406 C 216.476562 22.734375 217.332031 23.007812 218.066406 23.476562 C 219.058594 24.113281 220.199219 24.710938 220.863281 25.628906 C 222.378906 27.730469 224.425781 29.203125 226.289062 30.902344 C 227.410156 31.917969 228.625 32.941406 228.691406 34.664062 C 228.742188 36.035156 229.089844 56.117188 229.160156 58.929688 L 238.4375 58.929688 C 238.414062 50.984375 238.257812 33.976562 238.257812 33.976562 C 238.339844 32.660156 238.695312 32.429688 239.09375 31.199219 C 239.660156 29.453125 240.546875 27.804688 241.363281 26.144531 C 241.96875 24.910156 242.546875 23.628906 243.363281 22.539062 C 244.691406 20.765625 246.191406 19.121094 247.648438 17.449219 C 248.15625 16.867188 247.976562 16.484375 247.351562 16.363281 C 246.902344 16.277344 246.34375 16.34375 245.933594 16.546875 C 245.507812 16.757812 245.21875 17.230469 244.851562 17.566406 C 243.449219 18.851562 242.046875 20.136719 240.617188 21.390625 C 240.421875 21.558594 239.972656 21.675781 239.804688 21.5625 C 239.621094 21.4375 239.582031 21.027344 239.570312 20.738281 C 239.5625 20.535156 239.695312 20.320312 239.777344 20.117188 C 240.855469 17.488281 241.933594 14.863281 242.992188 12.277344 C 243.191406 11.789062 242.992188 11.222656 242.523438 10.988281 C 241.746094 10.601562 241.117188 10.964844 240.589844 11.957031 C 239.484375 14.027344 238.445312 16.136719 237.355469 18.21875 C 237.347656 18.234375 237.339844 18.25 237.328125 18.261719 C 236.816406 18.980469 236.640625 18.953125 236.558594 18.898438 C 236.558594 18.898438 236.382812 18.839844 236.402344 18.667969 C 236.429688 18.40625 236.445312 18.140625 236.496094 17.882812 C 237.046875 15.074219 237.605469 12.261719 238.15625 9.453125 C 238.269531 8.890625 238.285156 8.300781 237.621094 8.132812 C 236.992188 7.976562 236.203125 7.839844 235.878906 8.617188 C 235.078125 10.558594 234.488281 12.527344 233.835938 14.523438 C 233.433594 15.742188 233.125 17.035156 232.804688 18.28125 C 232.742188 18.527344 232.351562 18.816406 232.082031 18.851562 C 231.804688 18.886719 231.367188 18.722656 231.214844 18.5 C 230.855469 17.964844 230.777344 17.21875 230.5625 16.644531 C 229.835938 14.714844 229.265625 12.726562 228.988281 10.679688 C 228.84375 9.613281 228.46875 8.871094 227.441406 9.011719 C 226.574219 9.125 226.453125 9.796875 226.5 10.496094 C 226.609375 12.171875 226.757812 13.847656 226.902344 15.523438 C 226.941406 16.027344 227.082031 16.527344 227.199219 16.996094 C 227.683594 18.984375 227.703125 20.503906 227.347656 22.238281 C 227.011719 23.882812 225.535156 24.589844 224.34375 23.808594 C 223.152344 23.03125 221.984375 22.203125 220.777344 21.445312 C 219.167969 20.433594 217.480469 19.886719 215.679688 20.980469 C 215.449219 21.121094 215.171875 21.425781 215.179688 21.644531 C 215.191406 21.882812 215.464844 22.1875 215.703125 22.316406 " fill-opacity="1" fill-rule="nonzero"/></g></svg>