<svg xmlns="http://www.w3.org/2000/svg" xmlns:xlink="http://www.w3.org/1999/xlink" width="75" zoomAndPan="magnify" viewBox="0 0 56.879997 56.999997" height="75" preserveAspectRatio="xMidYMid meet" version="1.0"><defs><g/><clipPath id="b1113caaaa"><path d="M 25 1.105469 L 44 1.105469 L 44 18 L 25 18 Z M 25 1.105469 " clip-rule="nonzero"/></clipPath><clipPath id="54b0e14ce5"><path d="M 12 39 L 32 39 L 32 55.742188 L 12 55.742188 Z M 12 39 " clip-rule="nonzero"/></clipPath></defs><g clip-path="url(#b1113caaaa)"><path fill="#333391" d="M 36.609375 7.914062 C 36.558594 8.410156 36.445312 8.90625 36.300781 9.390625 C 36.296875 9.410156 36.292969 9.425781 36.285156 9.441406 C 35.996094 9.375 35.710938 9.320312 35.421875 9.273438 C 34.824219 9.1875 34.230469 9.148438 33.644531 9.140625 C 33.0625 9.132812 32.488281 9.164062 31.921875 9.210938 C 31.644531 9.242188 31.359375 9.269531 31.085938 9.308594 L 30.6875 9.359375 C 30.570312 9.378906 30.457031 9.390625 30.34375 9.402344 C 30.121094 9.421875 29.910156 9.433594 29.714844 9.429688 C 29.519531 9.425781 29.34375 9.402344 29.183594 9.367188 C 29.140625 9.359375 29.105469 9.34375 29.066406 9.335938 C 29.03125 9.324219 28.992188 9.316406 28.957031 9.300781 C 28.886719 9.277344 28.820312 9.234375 28.75 9.203125 C 28.714844 9.1875 28.683594 9.164062 28.652344 9.144531 L 28.601562 9.113281 L 28.574219 9.097656 L 28.550781 9.078125 C 28.488281 9.023438 28.421875 8.980469 28.363281 8.914062 C 28.238281 8.800781 28.132812 8.652344 28.023438 8.5 C 27.925781 8.339844 27.828125 8.167969 27.757812 7.976562 C 27.679688 7.792969 27.625 7.59375 27.574219 7.390625 C 27.535156 7.183594 27.496094 6.976562 27.488281 6.765625 C 27.476562 6.660156 27.480469 6.558594 27.476562 6.453125 C 27.476562 6.398438 27.484375 6.347656 27.484375 6.296875 C 27.488281 6.246094 27.488281 6.195312 27.496094 6.144531 C 27.511719 6.039062 27.527344 5.933594 27.539062 5.832031 L 27.609375 5.523438 C 27.71875 5.125 27.894531 4.742188 28.136719 4.398438 C 28.378906 4.054688 28.683594 3.746094 29.035156 3.496094 C 29.390625 3.242188 29.789062 3.039062 30.21875 2.898438 L 30.542969 2.808594 C 30.597656 2.789062 30.652344 2.78125 30.710938 2.769531 L 30.878906 2.738281 L 30.960938 2.722656 C 30.988281 2.714844 31.015625 2.714844 31.046875 2.710938 L 31.21875 2.691406 C 31.273438 2.683594 31.332031 2.675781 31.386719 2.671875 C 31.445312 2.667969 31.503906 2.664062 31.566406 2.660156 C 31.800781 2.652344 32.042969 2.652344 32.28125 2.667969 C 32.402344 2.675781 32.523438 2.683594 32.648438 2.699219 C 32.707031 2.703125 32.761719 2.710938 32.824219 2.71875 C 32.882812 2.726562 32.941406 2.734375 32.996094 2.746094 C 33.230469 2.78125 33.457031 2.835938 33.675781 2.902344 C 33.898438 2.96875 34.113281 3.050781 34.320312 3.152344 C 35.148438 3.546875 35.832031 4.222656 36.21875 5.074219 C 36.417969 5.5 36.539062 5.964844 36.605469 6.445312 C 36.632812 6.683594 36.648438 6.929688 36.652344 7.175781 C 36.648438 7.417969 36.636719 7.667969 36.609375 7.914062 Z M 40.445312 11.492188 C 40.332031 11.398438 40.214844 11.308594 40.097656 11.21875 C 40.039062 11.175781 39.972656 11.128906 39.910156 11.085938 L 39.71875 10.949219 L 39.523438 10.816406 C 39.460938 10.769531 39.390625 10.734375 39.324219 10.691406 L 38.921875 10.449219 C 38.371094 10.148438 37.796875 9.894531 37.207031 9.695312 C 37.148438 9.675781 37.089844 9.660156 37.03125 9.644531 C 37.03125 9.640625 37.03125 9.640625 37.03125 9.640625 C 37.222656 9.125 37.382812 8.59375 37.480469 8.042969 C 37.535156 7.769531 37.566406 7.488281 37.585938 7.207031 C 37.605469 6.925781 37.605469 6.640625 37.59375 6.355469 C 37.554688 5.785156 37.449219 5.207031 37.234375 4.65625 C 37.132812 4.378906 37.003906 4.109375 36.851562 3.855469 C 36.703125 3.597656 36.527344 3.351562 36.328125 3.125 C 35.941406 2.667969 35.460938 2.285156 34.941406 1.988281 C 34.683594 1.839844 34.410156 1.714844 34.132812 1.605469 C 33.855469 1.5 33.570312 1.410156 33.28125 1.34375 C 33.210938 1.328125 33.136719 1.3125 33.066406 1.296875 C 32.996094 1.285156 32.921875 1.269531 32.851562 1.257812 C 32.710938 1.230469 32.566406 1.210938 32.425781 1.191406 C 32.140625 1.15625 31.851562 1.132812 31.558594 1.125 C 31.484375 1.121094 31.410156 1.121094 31.339844 1.121094 C 31.265625 1.121094 31.1875 1.125 31.113281 1.128906 L 30.890625 1.136719 C 30.851562 1.140625 30.8125 1.140625 30.777344 1.144531 L 30.664062 1.160156 L 30.4375 1.1875 C 30.363281 1.195312 30.289062 1.203125 30.214844 1.21875 C 30.066406 1.25 29.917969 1.277344 29.769531 1.3125 C 29.175781 1.460938 28.601562 1.699219 28.070312 2.023438 C 27.539062 2.351562 27.054688 2.769531 26.652344 3.261719 C 26.246094 3.753906 25.929688 4.324219 25.71875 4.929688 C 25.671875 5.082031 25.621094 5.234375 25.578125 5.386719 L 25.480469 5.855469 C 25.460938 5.933594 25.457031 6.011719 25.445312 6.09375 C 25.433594 6.171875 25.421875 6.253906 25.417969 6.332031 C 25.40625 6.492188 25.390625 6.652344 25.394531 6.8125 C 25.390625 7.128906 25.417969 7.445312 25.460938 7.761719 C 25.511719 8.078125 25.578125 8.394531 25.679688 8.703125 C 25.773438 9.015625 25.910156 9.324219 26.066406 9.625 C 26.238281 9.921875 26.421875 10.214844 26.667969 10.484375 C 26.78125 10.621094 26.917969 10.746094 27.050781 10.871094 L 27.101562 10.914062 L 27.265625 11.042969 C 27.34375 11.097656 27.414062 11.160156 27.492188 11.207031 C 27.65625 11.304688 27.8125 11.40625 27.988281 11.484375 C 28.070312 11.527344 28.160156 11.558594 28.246094 11.597656 C 28.332031 11.628906 28.417969 11.660156 28.507812 11.6875 C 28.855469 11.796875 29.203125 11.863281 29.535156 11.894531 C 29.867188 11.929688 30.1875 11.933594 30.492188 11.925781 C 30.644531 11.917969 30.796875 11.914062 30.945312 11.902344 L 31.148438 11.886719 L 31.332031 11.875 C 31.585938 11.859375 31.832031 11.855469 32.078125 11.84375 C 32.570312 11.835938 33.054688 11.847656 33.53125 11.882812 C 34.003906 11.925781 34.464844 11.988281 34.910156 12.085938 C 34.960938 12.097656 35.007812 12.109375 35.054688 12.121094 C 34.773438 12.585938 34.464844 13.039062 34.132812 13.480469 C 33.820312 13.898438 33.492188 14.304688 33.144531 14.699219 C 32.796875 15.09375 32.433594 15.476562 32.0625 15.847656 C 31.980469 15.929688 31.898438 16.011719 31.8125 16.09375 C 31.722656 16.183594 31.847656 16.320312 31.941406 16.242188 C 32.035156 16.164062 32.125 16.085938 32.214844 16.007812 C 32.613281 15.660156 33.007812 15.300781 33.386719 14.925781 C 33.761719 14.550781 34.128906 14.160156 34.480469 13.753906 C 34.882812 13.285156 35.265625 12.796875 35.621094 12.28125 C 35.8125 12.34375 36.003906 12.410156 36.1875 12.484375 C 36.589844 12.652344 36.972656 12.859375 37.339844 13.089844 L 37.601562 13.277344 C 37.644531 13.308594 37.691406 13.335938 37.734375 13.371094 L 37.859375 13.472656 L 37.988281 13.574219 C 38.027344 13.609375 38.070312 13.640625 38.113281 13.679688 C 38.203125 13.757812 38.289062 13.835938 38.375 13.914062 C 38.71875 14.234375 39.046875 14.566406 39.351562 14.921875 C 39.929688 15.589844 40.429688 16.316406 40.832031 17.070312 L 43.875 15.320312 C 43.265625 14.347656 42.554688 13.464844 41.765625 12.671875 C 41.347656 12.25 40.90625 11.859375 40.445312 11.492188 " fill-opacity="1" fill-rule="nonzero"/></g><path fill="#333391" d="M 46.722656 8.019531 C 45.894531 6.585938 44.054688 6.09375 42.613281 6.921875 C 41.175781 7.75 40.683594 9.585938 41.515625 11.019531 C 42.34375 12.457031 44.183594 12.949219 45.621094 12.117188 C 47.0625 11.289062 47.554688 9.457031 46.722656 8.019531 " fill-opacity="1" fill-rule="nonzero"/><path fill="#e9187e" d="M 48.832031 25.726562 C 48.742188 25.445312 48.648438 25.167969 48.542969 24.894531 C 48.320312 24.335938 48.058594 23.804688 47.773438 23.292969 C 47.484375 22.789062 47.171875 22.304688 46.847656 21.84375 C 46.683594 21.613281 46.519531 21.382812 46.347656 21.164062 L 46.101562 20.847656 C 46.027344 20.753906 45.960938 20.664062 45.894531 20.574219 C 45.765625 20.390625 45.648438 20.214844 45.554688 20.042969 C 45.464844 19.871094 45.394531 19.707031 45.34375 19.550781 C 45.332031 19.511719 45.324219 19.472656 45.3125 19.4375 C 45.304688 19.398438 45.292969 19.359375 45.289062 19.324219 C 45.273438 19.25 45.277344 19.171875 45.269531 19.097656 C 45.265625 19.058594 45.273438 19.019531 45.273438 18.980469 L 45.273438 18.890625 L 45.28125 18.863281 C 45.296875 18.78125 45.300781 18.699219 45.328125 18.617188 C 45.363281 18.453125 45.4375 18.285156 45.515625 18.117188 C 45.609375 17.953125 45.707031 17.785156 45.835938 17.628906 C 45.960938 17.464844 46.105469 17.316406 46.257812 17.175781 C 46.414062 17.035156 46.578125 16.898438 46.753906 16.785156 C 46.839844 16.726562 46.933594 16.675781 47.019531 16.621094 C 47.066406 16.59375 47.113281 16.574219 47.160156 16.550781 C 47.207031 16.527344 47.25 16.5 47.300781 16.484375 C 47.398438 16.445312 47.492188 16.402344 47.589844 16.363281 L 47.890625 16.269531 C 48.296875 16.164062 48.714844 16.128906 49.132812 16.164062 C 49.554688 16.199219 49.972656 16.308594 50.367188 16.488281 C 50.765625 16.667969 51.140625 16.910156 51.476562 17.210938 L 51.71875 17.445312 C 51.761719 17.484375 51.792969 17.53125 51.832031 17.570312 L 51.945312 17.699219 L 52 17.765625 C 52.019531 17.785156 52.035156 17.808594 52.054688 17.832031 L 52.15625 17.972656 C 52.1875 18.019531 52.226562 18.0625 52.257812 18.109375 C 52.292969 18.160156 52.324219 18.207031 52.355469 18.257812 C 52.480469 18.457031 52.601562 18.664062 52.707031 18.882812 C 52.761719 18.988281 52.816406 19.097656 52.863281 19.210938 C 52.890625 19.265625 52.910156 19.320312 52.933594 19.371094 C 52.957031 19.425781 52.980469 19.480469 53 19.535156 C 53.082031 19.753906 53.148438 19.976562 53.203125 20.203125 C 53.253906 20.425781 53.292969 20.65625 53.308594 20.882812 C 53.378906 21.796875 53.136719 22.722656 52.585938 23.484375 C 52.316406 23.867188 51.976562 24.207031 51.589844 24.503906 C 51.398438 24.648438 51.195312 24.785156 50.980469 24.910156 C 50.765625 25.03125 50.546875 25.144531 50.316406 25.242188 C 49.859375 25.445312 49.375 25.597656 48.882812 25.714844 C 48.867188 25.71875 48.847656 25.722656 48.832031 25.726562 Z M 49.027344 26.46875 C 49.03125 26.46875 49.03125 26.46875 49.03125 26.46875 C 49.574219 26.378906 50.117188 26.25 50.640625 26.058594 C 50.90625 25.96875 51.164062 25.855469 51.421875 25.734375 C 51.675781 25.609375 51.921875 25.46875 52.164062 25.3125 C 52.640625 24.996094 53.085938 24.613281 53.460938 24.15625 C 53.648438 23.925781 53.816406 23.683594 53.964844 23.421875 C 54.109375 23.164062 54.234375 22.890625 54.335938 22.605469 C 54.535156 22.039062 54.628906 21.4375 54.628906 20.839844 C 54.628906 20.539062 54.601562 20.242188 54.554688 19.949219 C 54.507812 19.652344 54.441406 19.363281 54.355469 19.082031 C 54.335938 19.011719 54.3125 18.941406 54.289062 18.871094 C 54.265625 18.804688 54.242188 18.730469 54.21875 18.664062 C 54.167969 18.53125 54.117188 18.398438 54.0625 18.265625 C 53.953125 18 53.828125 17.738281 53.6875 17.480469 C 53.652344 17.417969 53.617188 17.355469 53.578125 17.289062 C 53.542969 17.226562 53.5 17.164062 53.460938 17.101562 L 53.339844 16.910156 C 53.316406 16.878906 53.300781 16.847656 53.277344 16.816406 L 53.210938 16.726562 L 53.074219 16.546875 C 53.027344 16.488281 52.984375 16.425781 52.933594 16.371094 C 52.832031 16.257812 52.730469 16.140625 52.628906 16.03125 C 52.203125 15.59375 51.710938 15.214844 51.160156 14.917969 C 50.613281 14.621094 50.007812 14.410156 49.378906 14.3125 C 48.746094 14.210938 48.09375 14.21875 47.464844 14.339844 C 47.308594 14.375 47.152344 14.410156 46.996094 14.449219 L 46.542969 14.597656 C 46.464844 14.617188 46.390625 14.65625 46.316406 14.683594 C 46.242188 14.714844 46.164062 14.742188 46.09375 14.78125 C 45.949219 14.851562 45.804688 14.917969 45.667969 15 C 45.386719 15.15625 45.128906 15.339844 44.875 15.53125 C 44.628906 15.734375 44.386719 15.949219 44.167969 16.195312 C 43.945312 16.429688 43.746094 16.703125 43.5625 16.988281 C 43.390625 17.285156 43.226562 17.589844 43.117188 17.933594 C 43.054688 18.101562 43.015625 18.28125 42.976562 18.460938 L 42.960938 18.527344 L 42.949219 18.597656 L 42.929688 18.734375 C 42.921875 18.828125 42.90625 18.917969 42.902344 19.011719 C 42.898438 19.199219 42.886719 19.386719 42.90625 19.578125 C 42.914062 19.671875 42.929688 19.761719 42.941406 19.855469 C 42.957031 19.945312 42.96875 20.039062 42.992188 20.128906 C 43.070312 20.484375 43.1875 20.816406 43.324219 21.121094 C 43.460938 21.421875 43.617188 21.703125 43.777344 21.964844 C 43.859375 22.09375 43.941406 22.21875 44.023438 22.339844 L 44.136719 22.507812 L 44.242188 22.664062 C 44.382812 22.871094 44.507812 23.085938 44.640625 23.292969 C 44.894531 23.714844 45.128906 24.136719 45.332031 24.566406 C 45.535156 24.996094 45.707031 25.429688 45.847656 25.859375 C 45.863281 25.90625 45.875 25.953125 45.890625 26 C 45.34375 25.992188 44.796875 25.953125 44.25 25.886719 C 43.730469 25.824219 43.210938 25.742188 42.695312 25.640625 C 42.179688 25.539062 41.667969 25.417969 41.160156 25.28125 C 41.046875 25.25 40.933594 25.21875 40.820312 25.1875 C 40.699219 25.152344 40.640625 25.332031 40.757812 25.375 C 40.871094 25.414062 40.980469 25.453125 41.09375 25.492188 C 41.597656 25.664062 42.105469 25.820312 42.621094 25.960938 C 43.136719 26.101562 43.65625 26.222656 44.183594 26.320312 C 44.792969 26.4375 45.410156 26.523438 46.035156 26.570312 C 46.078125 26.769531 46.113281 26.964844 46.140625 27.164062 C 46.195312 27.597656 46.210938 28.03125 46.191406 28.460938 L 46.160156 28.78125 C 46.152344 28.835938 46.152344 28.890625 46.144531 28.941406 L 46.09375 29.261719 C 46.085938 29.316406 46.078125 29.367188 46.0625 29.425781 C 46.039062 29.539062 46.019531 29.65625 45.992188 29.769531 C 45.890625 30.222656 45.761719 30.675781 45.605469 31.117188 C 45.316406 31.949219 44.9375 32.742188 44.480469 33.46875 L 47.523438 35.222656 C 48.0625 34.210938 48.472656 33.15625 48.765625 32.074219 C 48.921875 31.507812 49.042969 30.929688 49.132812 30.347656 C 49.15625 30.199219 49.175781 30.054688 49.195312 29.90625 C 49.203125 29.835938 49.210938 29.757812 49.21875 29.679688 L 49.257812 29.210938 C 49.265625 29.136719 49.261719 29.054688 49.265625 28.976562 L 49.273438 28.507812 C 49.261719 27.882812 49.191406 27.257812 49.070312 26.648438 C 49.058594 26.589844 49.042969 26.53125 49.027344 26.46875 " fill-opacity="1" fill-rule="nonzero"/><path fill="#e9187e" d="M 54.183594 29.9375 C 52.746094 29.105469 50.90625 29.597656 50.074219 31.035156 C 49.246094 32.46875 49.738281 34.304688 51.175781 35.132812 C 52.613281 35.960938 54.453125 35.46875 55.285156 34.035156 C 56.113281 32.597656 55.621094 30.765625 54.183594 29.9375 " fill-opacity="1" fill-rule="nonzero"/><path fill="#eb2c3b" d="M 49.679688 42.734375 L 49.597656 43.0625 C 49.585938 43.121094 49.566406 43.171875 49.546875 43.226562 L 49.492188 43.386719 L 49.464844 43.46875 C 49.453125 43.492188 49.441406 43.519531 49.429688 43.546875 L 49.363281 43.703125 C 49.339844 43.757812 49.316406 43.808594 49.292969 43.863281 C 49.265625 43.914062 49.242188 43.964844 49.214844 44.019531 C 49.105469 44.226562 48.980469 44.433594 48.847656 44.636719 C 48.78125 44.738281 48.710938 44.835938 48.640625 44.933594 C 48.605469 44.984375 48.570312 45.027344 48.535156 45.078125 C 48.5 45.125 48.464844 45.167969 48.425781 45.214844 C 48.277344 45.394531 48.117188 45.566406 47.949219 45.722656 C 47.777344 45.878906 47.601562 46.027344 47.410156 46.15625 C 46.652344 46.675781 45.726562 46.925781 44.792969 46.832031 C 44.324219 46.792969 43.859375 46.664062 43.410156 46.480469 C 43.1875 46.386719 42.96875 46.277344 42.753906 46.15625 C 42.539062 46.03125 42.332031 45.898438 42.128906 45.75 C 41.726562 45.457031 41.355469 45.113281 41.003906 44.746094 C 40.992188 44.734375 40.980469 44.71875 40.96875 44.707031 C 41.167969 44.492188 41.363281 44.269531 41.546875 44.042969 C 41.917969 43.570312 42.25 43.078125 42.550781 42.578125 C 42.847656 42.078125 43.109375 41.566406 43.347656 41.054688 C 43.460938 40.796875 43.582031 40.539062 43.683594 40.28125 L 43.839844 39.910156 C 43.882812 39.800781 43.925781 39.695312 43.972656 39.59375 C 44.066406 39.390625 44.160156 39.203125 44.261719 39.039062 C 44.363281 38.871094 44.472656 38.730469 44.585938 38.609375 C 44.613281 38.578125 44.640625 38.550781 44.667969 38.523438 C 44.699219 38.5 44.726562 38.46875 44.753906 38.445312 C 44.8125 38.394531 44.878906 38.359375 44.941406 38.316406 C 44.972656 38.292969 45.011719 38.28125 45.046875 38.257812 L 45.097656 38.230469 L 45.152344 38.207031 C 45.230469 38.179688 45.300781 38.144531 45.386719 38.125 C 45.546875 38.074219 45.730469 38.054688 45.914062 38.039062 C 46.105469 38.039062 46.300781 38.039062 46.5 38.074219 C 46.703125 38.097656 46.902344 38.148438 47.105469 38.207031 C 47.300781 38.277344 47.503906 38.347656 47.691406 38.445312 C 47.785156 38.488281 47.875 38.542969 47.964844 38.59375 C 48.011719 38.617188 48.054688 38.648438 48.097656 38.675781 C 48.140625 38.703125 48.1875 38.730469 48.226562 38.761719 C 48.308594 38.828125 48.390625 38.890625 48.476562 38.957031 L 48.707031 39.167969 C 49 39.464844 49.242188 39.808594 49.417969 40.1875 C 49.597656 40.570312 49.710938 40.984375 49.753906 41.417969 C 49.796875 41.847656 49.773438 42.296875 49.679688 42.734375 Z M 51.515625 41.316406 C 51.496094 40.695312 51.375 40.066406 51.148438 39.472656 C 50.921875 38.878906 50.585938 38.320312 50.167969 37.832031 C 50.0625 37.714844 49.953125 37.597656 49.839844 37.484375 L 49.484375 37.164062 C 49.425781 37.109375 49.359375 37.0625 49.296875 37.015625 C 49.230469 36.964844 49.167969 36.914062 49.101562 36.871094 C 48.96875 36.78125 48.835938 36.691406 48.695312 36.613281 C 48.421875 36.449219 48.132812 36.316406 47.835938 36.195312 C 47.539062 36.082031 47.230469 35.980469 46.910156 35.914062 C 46.59375 35.839844 46.257812 35.804688 45.917969 35.785156 C 45.574219 35.785156 45.226562 35.796875 44.875 35.875 C 44.699219 35.90625 44.519531 35.960938 44.347656 36.015625 L 44.28125 36.035156 L 44.214844 36.0625 L 44.085938 36.113281 C 44 36.152344 43.914062 36.183594 43.832031 36.230469 C 43.667969 36.320312 43.5 36.40625 43.34375 36.515625 C 43.265625 36.566406 43.191406 36.625 43.117188 36.683594 C 43.046875 36.742188 42.972656 36.800781 42.90625 36.863281 C 42.636719 37.109375 42.410156 37.378906 42.214844 37.648438 C 42.019531 37.917969 41.855469 38.191406 41.707031 38.460938 C 41.636719 38.597656 41.566406 38.730469 41.503906 38.863281 L 41.414062 39.042969 L 41.332031 39.210938 C 41.21875 39.4375 41.101562 39.652344 40.984375 39.871094 C 40.746094 40.300781 40.496094 40.714844 40.226562 41.105469 C 39.953125 41.496094 39.664062 41.859375 39.359375 42.199219 C 39.324219 42.234375 39.292969 42.269531 39.257812 42.304688 C 38.992188 41.828125 38.753906 41.335938 38.539062 40.832031 C 38.332031 40.351562 38.144531 39.859375 37.972656 39.363281 C 37.808594 38.867188 37.65625 38.363281 37.519531 37.855469 C 37.488281 37.742188 37.457031 37.628906 37.429688 37.515625 C 37.398438 37.394531 37.214844 37.433594 37.238281 37.558594 C 37.257812 37.671875 37.28125 37.789062 37.304688 37.90625 C 37.40625 38.425781 37.523438 38.945312 37.660156 39.460938 C 37.796875 39.972656 37.949219 40.484375 38.128906 40.988281 C 38.332031 41.574219 38.566406 42.148438 38.835938 42.714844 C 38.6875 42.847656 38.535156 42.980469 38.375 43.101562 C 38.027344 43.367188 37.660156 43.59375 37.277344 43.792969 L 36.980469 43.929688 C 36.929688 43.949219 36.882812 43.976562 36.832031 43.996094 L 36.679688 44.050781 L 36.53125 44.109375 C 36.476562 44.128906 36.429688 44.148438 36.375 44.167969 C 36.261719 44.203125 36.152344 44.242188 36.039062 44.277344 C 35.59375 44.414062 35.136719 44.53125 34.675781 44.617188 C 33.808594 44.78125 32.929688 44.851562 32.074219 44.820312 L 32.074219 48.324219 C 33.21875 48.285156 34.339844 48.113281 35.425781 47.828125 C 35.996094 47.679688 36.558594 47.492188 37.109375 47.277344 C 37.246094 47.226562 37.382812 47.167969 37.519531 47.113281 C 37.585938 47.085938 37.660156 47.050781 37.730469 47.019531 L 37.941406 46.917969 L 38.15625 46.820312 C 38.226562 46.785156 38.292969 46.746094 38.363281 46.710938 L 38.773438 46.480469 C 39.3125 46.15625 39.820312 45.785156 40.285156 45.378906 C 40.332031 45.335938 40.375 45.292969 40.421875 45.25 C 40.421875 45.253906 40.421875 45.253906 40.421875 45.253906 C 40.773438 45.675781 41.15625 46.078125 41.582031 46.441406 C 41.796875 46.621094 42.023438 46.789062 42.257812 46.949219 C 42.492188 47.105469 42.738281 47.25 42.996094 47.378906 C 43.507812 47.632812 44.0625 47.828125 44.648438 47.921875 C 44.9375 47.96875 45.234375 47.996094 45.535156 47.992188 C 45.832031 47.988281 46.132812 47.960938 46.429688 47.90625 C 47.019531 47.796875 47.589844 47.574219 48.109375 47.273438 C 48.371094 47.125 48.613281 46.949219 48.84375 46.765625 C 49.078125 46.578125 49.296875 46.375 49.496094 46.160156 C 49.550781 46.109375 49.597656 46.054688 49.644531 45.996094 C 49.695312 45.941406 49.746094 45.886719 49.789062 45.832031 C 49.882812 45.722656 49.972656 45.613281 50.058594 45.496094 C 50.234375 45.269531 50.398438 45.03125 50.550781 44.78125 C 50.589844 44.71875 50.628906 44.65625 50.664062 44.59375 C 50.703125 44.53125 50.734375 44.460938 50.769531 44.394531 L 50.875 44.195312 C 50.890625 44.160156 50.910156 44.128906 50.925781 44.09375 L 50.96875 43.992188 L 51.058594 43.785156 C 51.085938 43.714844 51.117188 43.644531 51.140625 43.574219 C 51.1875 43.429688 51.238281 43.285156 51.28125 43.140625 C 51.449219 42.554688 51.53125 41.941406 51.515625 41.316406 " fill-opacity="1" fill-rule="nonzero"/><path fill="#eb2c3b" d="M 36.984375 48.4375 C 35.320312 48.4375 33.976562 49.78125 33.976562 51.4375 C 33.976562 53.09375 35.320312 54.4375 36.984375 54.4375 C 38.644531 54.4375 39.988281 53.09375 39.988281 51.4375 C 39.988281 49.78125 38.644531 48.4375 36.984375 48.4375 " fill-opacity="1" fill-rule="nonzero"/><g clip-path="url(#54b0e14ce5)"><path fill="#ef8031" d="M 29.363281 50.546875 C 29.355469 50.601562 29.359375 50.652344 29.347656 50.703125 C 29.335938 50.808594 29.320312 50.910156 29.308594 51.015625 L 29.238281 51.320312 C 29.125 51.722656 28.949219 52.105469 28.707031 52.449219 C 28.46875 52.792969 28.164062 53.097656 27.808594 53.351562 C 27.457031 53.605469 27.058594 53.808594 26.628906 53.945312 L 26.304688 54.039062 C 26.25 54.058594 26.191406 54.066406 26.136719 54.078125 L 25.96875 54.109375 L 25.886719 54.125 C 25.855469 54.132812 25.828125 54.132812 25.800781 54.136719 L 25.628906 54.15625 C 25.574219 54.160156 25.515625 54.171875 25.457031 54.175781 C 25.398438 54.179688 25.339844 54.183594 25.28125 54.183594 C 25.042969 54.195312 24.804688 54.191406 24.5625 54.175781 C 24.441406 54.171875 24.320312 54.160156 24.199219 54.148438 C 24.136719 54.144531 24.082031 54.132812 24.023438 54.128906 C 23.964844 54.121094 23.90625 54.113281 23.847656 54.101562 C 23.617188 54.066406 23.390625 54.011719 23.167969 53.945312 C 22.949219 53.875 22.730469 53.792969 22.523438 53.695312 C 21.695312 53.300781 21.015625 52.625 20.628906 51.769531 C 20.429688 51.347656 20.304688 50.882812 20.242188 50.402344 C 20.210938 50.160156 20.195312 49.917969 20.195312 49.671875 C 20.199219 49.425781 20.207031 49.179688 20.234375 48.929688 C 20.289062 48.4375 20.398438 47.941406 20.542969 47.453125 C 20.546875 47.4375 20.554688 47.421875 20.558594 47.402344 C 20.847656 47.472656 21.136719 47.527344 21.425781 47.574219 C 22.023438 47.660156 22.613281 47.699219 23.199219 47.707031 C 23.785156 47.710938 24.355469 47.683594 24.921875 47.632812 C 25.203125 47.605469 25.484375 47.578125 25.761719 47.539062 L 26.160156 47.488281 C 26.277344 47.46875 26.390625 47.457031 26.503906 47.445312 C 26.722656 47.421875 26.933594 47.410156 27.128906 47.417969 C 27.324219 47.421875 27.503906 47.445312 27.664062 47.480469 C 27.703125 47.488281 27.742188 47.5 27.78125 47.507812 C 27.816406 47.523438 27.855469 47.53125 27.890625 47.546875 C 27.960938 47.570312 28.023438 47.613281 28.097656 47.640625 C 28.132812 47.65625 28.160156 47.683594 28.195312 47.703125 L 28.246094 47.734375 L 28.269531 47.75 L 28.292969 47.769531 C 28.355469 47.824219 28.425781 47.867188 28.480469 47.929688 C 28.609375 48.042969 28.714844 48.195312 28.820312 48.34375 C 28.917969 48.507812 29.015625 48.679688 29.085938 48.867188 C 29.167969 49.054688 29.222656 49.253906 29.269531 49.457031 C 29.3125 49.660156 29.347656 49.871094 29.359375 50.082031 C 29.371094 50.1875 29.367188 50.289062 29.367188 50.394531 C 29.371094 50.445312 29.363281 50.496094 29.363281 50.546875 Z M 31.386719 49.082031 C 31.332031 48.769531 31.269531 48.453125 31.164062 48.140625 C 31.070312 47.828125 30.933594 47.523438 30.777344 47.222656 C 30.609375 46.925781 30.421875 46.628906 30.179688 46.363281 C 30.066406 46.226562 29.929688 46.101562 29.796875 45.976562 L 29.742188 45.929688 L 29.578125 45.800781 C 29.503906 45.746094 29.433594 45.6875 29.351562 45.640625 C 29.191406 45.542969 29.03125 45.4375 28.859375 45.363281 C 28.773438 45.320312 28.6875 45.285156 28.601562 45.25 C 28.515625 45.21875 28.425781 45.183594 28.339844 45.15625 C 27.992188 45.046875 27.644531 44.984375 27.3125 44.949219 C 26.980469 44.917969 26.660156 44.914062 26.351562 44.921875 C 26.199219 44.925781 26.046875 44.933594 25.902344 44.945312 L 25.699219 44.957031 L 25.511719 44.96875 C 25.261719 44.988281 25.015625 44.992188 24.765625 45.003906 C 24.277344 45.007812 23.789062 45 23.316406 44.964844 C 22.84375 44.921875 22.378906 44.855469 21.933594 44.761719 C 21.886719 44.75 21.839844 44.738281 21.792969 44.726562 C 22.074219 44.257812 22.382812 43.804688 22.710938 43.367188 C 23.023438 42.949219 23.355469 42.542969 23.703125 42.148438 C 24.050781 41.753906 24.410156 41.371094 24.78125 40.996094 C 24.867188 40.914062 24.949219 40.832031 25.03125 40.75 C 25.125 40.664062 25 40.523438 24.902344 40.605469 C 24.8125 40.683594 24.722656 40.757812 24.632812 40.835938 C 24.230469 41.1875 23.839844 41.546875 23.460938 41.921875 C 23.082031 42.296875 22.71875 42.6875 22.367188 43.089844 C 21.960938 43.558594 21.578125 44.050781 21.226562 44.566406 C 21.03125 44.503906 20.84375 44.4375 20.65625 44.363281 C 20.253906 44.191406 19.871094 43.988281 19.507812 43.757812 L 19.242188 43.570312 C 19.199219 43.539062 19.152344 43.511719 19.113281 43.476562 L 18.984375 43.371094 L 18.859375 43.269531 C 18.816406 43.238281 18.777344 43.207031 18.730469 43.164062 C 18.644531 43.085938 18.554688 43.011719 18.46875 42.929688 C 18.125 42.613281 17.796875 42.277344 17.496094 41.925781 C 16.917969 41.257812 16.414062 40.53125 16.015625 39.773438 L 12.972656 41.527344 C 13.578125 42.5 14.289062 43.382812 15.082031 44.175781 C 15.496094 44.59375 15.9375 44.988281 16.398438 45.355469 C 16.511719 45.449219 16.632812 45.539062 16.75 45.628906 C 16.804688 45.671875 16.871094 45.71875 16.9375 45.761719 L 17.128906 45.898438 L 17.320312 46.03125 C 17.386719 46.074219 17.453125 46.113281 17.519531 46.15625 L 17.921875 46.398438 C 18.472656 46.699219 19.050781 46.949219 19.636719 47.148438 C 19.695312 47.167969 19.757812 47.183594 19.816406 47.203125 C 19.816406 47.203125 19.8125 47.207031 19.8125 47.207031 C 19.621094 47.71875 19.464844 48.253906 19.363281 48.804688 C 19.3125 49.078125 19.28125 49.359375 19.257812 49.640625 C 19.242188 49.921875 19.238281 50.207031 19.253906 50.492188 C 19.289062 51.0625 19.398438 51.640625 19.609375 52.191406 C 19.714844 52.464844 19.839844 52.734375 19.992188 52.992188 C 20.144531 53.25 20.320312 53.492188 20.515625 53.71875 C 20.90625 54.175781 21.382812 54.558594 21.902344 54.859375 C 22.164062 55.007812 22.4375 55.132812 22.714844 55.238281 C 22.992188 55.347656 23.277344 55.4375 23.5625 55.5 C 23.636719 55.519531 23.707031 55.535156 23.78125 55.546875 C 23.851562 55.5625 23.925781 55.578125 23.996094 55.589844 C 24.136719 55.613281 24.277344 55.636719 24.417969 55.652344 C 24.707031 55.691406 24.996094 55.714844 25.289062 55.722656 C 25.359375 55.726562 25.433594 55.726562 25.507812 55.726562 C 25.582031 55.726562 25.65625 55.722656 25.730469 55.71875 L 25.957031 55.707031 C 25.996094 55.707031 26.03125 55.707031 26.070312 55.699219 L 26.183594 55.6875 L 26.40625 55.660156 C 26.480469 55.648438 26.558594 55.644531 26.632812 55.625 C 26.78125 55.597656 26.929688 55.566406 27.078125 55.535156 C 27.667969 55.386719 28.246094 55.148438 28.777344 54.824219 C 29.308594 54.496094 29.792969 54.078125 30.195312 53.582031 C 30.597656 53.089844 30.914062 52.523438 31.128906 51.917969 C 31.175781 51.765625 31.222656 51.613281 31.269531 51.460938 L 31.367188 50.992188 C 31.386719 50.914062 31.390625 50.832031 31.402344 50.753906 C 31.410156 50.675781 31.425781 50.59375 31.429688 50.515625 C 31.441406 50.355469 31.453125 50.195312 31.449219 50.035156 C 31.457031 49.714844 31.425781 49.398438 31.386719 49.082031 " fill-opacity="1" fill-rule="nonzero"/></g><path fill="#ef8031" d="M 11.222656 44.726562 C 9.785156 45.554688 9.292969 47.390625 10.121094 48.828125 C 10.953125 50.261719 12.792969 50.753906 14.230469 49.925781 C 15.667969 49.097656 16.160156 47.261719 15.332031 45.824219 C 14.5 44.390625 12.660156 43.898438 11.222656 44.726562 " fill-opacity="1" fill-rule="nonzero"/><path fill="#91be4a" d="M 11.289062 36.804688 C 11.382812 36.972656 11.453125 37.140625 11.5 37.292969 C 11.515625 37.335938 11.523438 37.371094 11.535156 37.410156 C 11.539062 37.449219 11.550781 37.488281 11.558594 37.523438 C 11.574219 37.597656 11.566406 37.675781 11.578125 37.75 C 11.582031 37.789062 11.574219 37.828125 11.574219 37.867188 L 11.570312 37.925781 L 11.570312 37.957031 L 11.566406 37.984375 C 11.550781 38.066406 11.546875 38.148438 11.519531 38.226562 C 11.484375 38.394531 11.410156 38.5625 11.328125 38.730469 C 11.234375 38.894531 11.136719 39.0625 11.007812 39.21875 C 10.886719 39.378906 10.738281 39.527344 10.589844 39.671875 C 10.429688 39.808594 10.269531 39.945312 10.09375 40.058594 C 10.007812 40.121094 9.914062 40.171875 9.824219 40.226562 C 9.78125 40.253906 9.734375 40.273438 9.6875 40.296875 C 9.640625 40.320312 9.597656 40.347656 9.546875 40.363281 C 9.449219 40.402344 9.351562 40.441406 9.253906 40.484375 L 8.953125 40.574219 C 8.550781 40.679688 8.132812 40.71875 7.710938 40.683594 C 7.292969 40.644531 6.875 40.535156 6.476562 40.359375 C 6.082031 40.179688 5.707031 39.933594 5.371094 39.636719 L 5.128906 39.398438 C 5.085938 39.363281 5.050781 39.316406 5.011719 39.273438 L 4.902344 39.144531 L 4.84375 39.082031 C 4.824219 39.058594 4.808594 39.035156 4.792969 39.015625 L 4.691406 38.875 C 4.65625 38.828125 4.621094 38.785156 4.585938 38.738281 C 4.554688 38.6875 4.523438 38.640625 4.492188 38.589844 C 4.363281 38.390625 4.246094 38.183594 4.136719 37.964844 C 4.082031 37.859375 4.03125 37.746094 3.980469 37.636719 C 3.957031 37.582031 3.933594 37.527344 3.910156 37.472656 C 3.886719 37.417969 3.867188 37.367188 3.847656 37.308594 C 3.761719 37.09375 3.695312 36.867188 3.644531 36.644531 C 3.589844 36.417969 3.554688 36.191406 3.539062 35.960938 C 3.464844 35.050781 3.710938 34.125 4.257812 33.363281 C 4.527344 32.976562 4.871094 32.640625 5.253906 32.34375 C 5.449219 32.199219 5.652344 32.0625 5.863281 31.9375 C 6.078125 31.816406 6.300781 31.703125 6.527344 31.601562 C 6.984375 31.402344 7.46875 31.25 7.964844 31.132812 C 7.980469 31.125 8 31.125 8.015625 31.121094 C 8.101562 31.402344 8.199219 31.679688 8.300781 31.953125 C 8.527344 32.511719 8.789062 33.042969 9.070312 33.550781 C 9.359375 34.058594 9.671875 34.539062 9.996094 35.003906 C 10.164062 35.230469 10.328125 35.460938 10.5 35.679688 L 10.746094 36 C 10.816406 36.09375 10.886719 36.183594 10.953125 36.273438 C 11.082031 36.453125 11.195312 36.632812 11.289062 36.804688 Z M 16.085938 31.472656 C 15.976562 31.433594 15.863281 31.394531 15.753906 31.355469 C 15.25 31.183594 14.738281 31.023438 14.226562 30.882812 C 13.710938 30.746094 13.1875 30.625 12.664062 30.523438 C 12.054688 30.410156 11.4375 30.324219 10.8125 30.277344 C 10.769531 30.078125 10.734375 29.882812 10.703125 29.683594 C 10.652344 29.25 10.636719 28.816406 10.65625 28.386719 L 10.6875 28.066406 C 10.691406 28.011719 10.691406 27.957031 10.703125 27.90625 L 10.726562 27.746094 L 10.753906 27.585938 C 10.761719 27.53125 10.769531 27.480469 10.78125 27.421875 C 10.804688 27.304688 10.828125 27.191406 10.855469 27.078125 C 10.957031 26.621094 11.085938 26.171875 11.238281 25.730469 C 11.53125 24.898438 11.910156 24.101562 12.363281 23.378906 L 9.324219 21.625 C 8.785156 22.636719 8.371094 23.691406 8.078125 24.769531 C 7.921875 25.339844 7.800781 25.917969 7.714844 26.5 C 7.6875 26.644531 7.671875 26.792969 7.652344 26.9375 C 7.640625 27.007812 7.636719 27.089844 7.628906 27.167969 L 7.609375 27.402344 L 7.589844 27.632812 C 7.582031 27.710938 7.582031 27.789062 7.582031 27.867188 L 7.570312 28.339844 C 7.585938 28.964844 7.652344 29.585938 7.773438 30.195312 C 7.789062 30.257812 7.804688 30.316406 7.816406 30.375 C 7.816406 30.375 7.816406 30.375 7.8125 30.375 C 7.273438 30.46875 6.730469 30.597656 6.203125 30.785156 C 5.941406 30.878906 5.679688 30.992188 5.425781 31.113281 C 5.171875 31.238281 4.921875 31.378906 4.683594 31.535156 C 4.207031 31.851562 3.757812 32.234375 3.386719 32.691406 C 3.199219 32.921875 3.027344 33.164062 2.882812 33.421875 C 2.734375 33.683594 2.609375 33.957031 2.511719 34.238281 C 2.308594 34.804688 2.214844 35.410156 2.21875 36.007812 C 2.21875 36.308594 2.246094 36.605469 2.289062 36.898438 C 2.335938 37.191406 2.402344 37.480469 2.488281 37.765625 C 2.507812 37.835938 2.53125 37.90625 2.554688 37.972656 C 2.582031 38.042969 2.601562 38.113281 2.628906 38.179688 C 2.675781 38.3125 2.730469 38.449219 2.785156 38.578125 C 2.894531 38.84375 3.019531 39.105469 3.160156 39.363281 C 3.195312 39.429688 3.230469 39.492188 3.265625 39.554688 C 3.304688 39.621094 3.347656 39.683594 3.386719 39.746094 L 3.507812 39.933594 C 3.527344 39.964844 3.546875 40 3.570312 40.03125 L 3.636719 40.121094 L 3.773438 40.300781 C 3.820312 40.359375 3.863281 40.421875 3.914062 40.476562 C 4.015625 40.589844 4.113281 40.703125 4.21875 40.816406 C 4.640625 41.253906 5.136719 41.632812 5.683594 41.925781 C 6.234375 42.222656 6.839844 42.433594 7.46875 42.535156 C 8.097656 42.636719 8.75 42.625 9.382812 42.507812 C 9.539062 42.472656 9.695312 42.4375 9.851562 42.398438 L 10.304688 42.25 C 10.382812 42.226562 10.453125 42.191406 10.53125 42.164062 C 10.601562 42.128906 10.679688 42.101562 10.75 42.066406 C 10.894531 41.996094 11.039062 41.925781 11.175781 41.84375 C 11.457031 41.691406 11.714844 41.507812 11.972656 41.3125 C 12.21875 41.109375 12.460938 40.898438 12.679688 40.652344 C 12.902344 40.414062 13.097656 40.144531 13.28125 39.859375 C 13.457031 39.5625 13.617188 39.253906 13.730469 38.910156 C 13.792969 38.742188 13.832031 38.5625 13.871094 38.386719 L 13.886719 38.320312 L 13.898438 38.25 L 13.914062 38.113281 C 13.925781 38.019531 13.941406 37.929688 13.945312 37.832031 C 13.945312 37.648438 13.957031 37.460938 13.9375 37.269531 C 13.933594 37.175781 13.917969 37.082031 13.90625 36.988281 C 13.890625 36.898438 13.875 36.808594 13.855469 36.71875 C 13.777344 36.363281 13.65625 36.03125 13.519531 35.726562 C 13.382812 35.421875 13.226562 35.144531 13.066406 34.882812 C 12.988281 34.753906 12.90625 34.625 12.820312 34.503906 L 12.707031 34.335938 L 12.605469 34.179688 C 12.464844 33.972656 12.335938 33.761719 12.203125 33.554688 C 11.953125 33.132812 11.71875 32.707031 11.511719 32.28125 C 11.3125 31.851562 11.136719 31.417969 10.996094 30.984375 C 10.984375 30.9375 10.972656 30.890625 10.957031 30.84375 C 11.503906 30.855469 12.050781 30.894531 12.597656 30.960938 C 13.117188 31.023438 13.632812 31.105469 14.148438 31.207031 C 14.664062 31.308594 15.179688 31.429688 15.6875 31.566406 C 15.800781 31.59375 15.914062 31.625 16.027344 31.65625 C 16.148438 31.691406 16.207031 31.515625 16.085938 31.472656 " fill-opacity="1" fill-rule="nonzero"/><path fill="#91be4a" d="M 6.769531 25.8125 C 7.601562 24.378906 7.109375 22.542969 5.671875 21.714844 C 4.234375 20.886719 2.394531 21.378906 1.5625 22.8125 C 0.730469 24.246094 1.226562 26.082031 2.664062 26.910156 C 4.101562 27.738281 5.941406 27.246094 6.769531 25.8125 " fill-opacity="1" fill-rule="nonzero"/><path fill="#00a8de" d="M 15.300781 12.800781 C 14.925781 13.277344 14.59375 13.769531 14.296875 14.269531 C 14 14.769531 13.738281 15.28125 13.496094 15.792969 C 13.382812 16.050781 13.265625 16.308594 13.160156 16.566406 L 13.007812 16.9375 C 12.964844 17.046875 12.917969 17.152344 12.875 17.253906 C 12.78125 17.457031 12.683594 17.640625 12.582031 17.808594 C 12.480469 17.976562 12.371094 18.117188 12.261719 18.238281 C 12.234375 18.269531 12.203125 18.296875 12.175781 18.324219 C 12.148438 18.347656 12.121094 18.378906 12.089844 18.402344 C 12.035156 18.449219 11.964844 18.484375 11.902344 18.53125 C 11.871094 18.554688 11.835938 18.566406 11.800781 18.585938 L 11.75 18.613281 L 11.722656 18.628906 L 11.695312 18.640625 C 11.617188 18.667969 11.542969 18.703125 11.460938 18.71875 C 11.300781 18.773438 11.117188 18.789062 10.929688 18.804688 C 10.742188 18.808594 10.546875 18.808594 10.34375 18.773438 C 10.144531 18.75 9.941406 18.695312 9.742188 18.640625 C 9.542969 18.570312 9.34375 18.5 9.15625 18.402344 C 9.058594 18.359375 8.972656 18.304688 8.878906 18.253906 C 8.832031 18.230469 8.792969 18.199219 8.75 18.171875 C 8.707031 18.140625 8.660156 18.117188 8.621094 18.082031 C 8.539062 18.019531 8.453125 17.953125 8.371094 17.890625 L 8.140625 17.675781 C 7.847656 17.382812 7.605469 17.039062 7.425781 16.65625 C 7.246094 16.277344 7.132812 15.859375 7.089844 15.429688 C 7.046875 14.996094 7.070312 14.550781 7.164062 14.109375 L 7.246094 13.78125 C 7.257812 13.726562 7.28125 13.675781 7.300781 13.621094 L 7.355469 13.460938 L 7.382812 13.378906 C 7.390625 13.351562 7.40625 13.328125 7.414062 13.300781 L 7.484375 13.144531 C 7.507812 13.089844 7.527344 13.039062 7.554688 12.984375 C 7.578125 12.933594 7.605469 12.878906 7.632812 12.828125 C 7.742188 12.617188 7.863281 12.414062 7.996094 12.210938 C 8.0625 12.109375 8.132812 12.011719 8.203125 11.910156 C 8.242188 11.863281 8.277344 11.816406 8.3125 11.769531 C 8.347656 11.722656 8.382812 11.675781 8.421875 11.632812 C 8.566406 11.449219 8.726562 11.28125 8.898438 11.121094 C 9.066406 10.964844 9.246094 10.820312 9.4375 10.691406 C 10.191406 10.171875 11.121094 9.921875 12.054688 10.015625 C 12.523438 10.054688 12.988281 10.179688 13.4375 10.363281 C 13.660156 10.460938 13.878906 10.566406 14.09375 10.6875 C 14.304688 10.816406 14.515625 10.945312 14.714844 11.097656 C 15.117188 11.390625 15.492188 11.730469 15.84375 12.097656 C 15.855469 12.113281 15.867188 12.125 15.878906 12.140625 C 15.675781 12.355469 15.484375 12.574219 15.300781 12.800781 Z M 21.421875 9.019531 C 20.847656 9.167969 20.289062 9.351562 19.738281 9.566406 C 19.597656 9.621094 19.460938 9.675781 19.328125 9.734375 C 19.257812 9.761719 19.1875 9.796875 19.117188 9.828125 L 18.902344 9.929688 L 18.691406 10.027344 C 18.621094 10.058594 18.550781 10.101562 18.484375 10.136719 L 18.070312 10.363281 C 17.535156 10.691406 17.027344 11.058594 16.558594 11.46875 C 16.515625 11.511719 16.46875 11.554688 16.425781 11.59375 C 16.425781 11.59375 16.425781 11.59375 16.421875 11.59375 C 16.074219 11.167969 15.691406 10.765625 15.261719 10.40625 C 15.050781 10.222656 14.824219 10.058594 14.589844 9.898438 C 14.355469 9.742188 14.109375 9.597656 13.851562 9.46875 C 13.339844 9.210938 12.78125 9.015625 12.199219 8.925781 C 11.90625 8.875 11.609375 8.851562 11.3125 8.855469 C 11.011719 8.859375 10.714844 8.886719 10.417969 8.941406 C 9.824219 9.050781 9.253906 9.273438 8.738281 9.574219 C 8.476562 9.722656 8.230469 9.894531 8 10.082031 C 7.769531 10.269531 7.550781 10.46875 7.347656 10.683594 C 7.296875 10.738281 7.246094 10.792969 7.199219 10.847656 C 7.152344 10.902344 7.101562 10.960938 7.054688 11.015625 C 6.964844 11.125 6.875 11.234375 6.789062 11.347656 C 6.613281 11.578125 6.449219 11.816406 6.292969 12.0625 C 6.253906 12.125 6.21875 12.191406 6.179688 12.253906 C 6.144531 12.316406 6.109375 12.386719 6.074219 12.449219 L 5.972656 12.652344 C 5.957031 12.683594 5.9375 12.71875 5.921875 12.75 L 5.789062 13.0625 C 5.761719 13.132812 5.726562 13.199219 5.707031 13.273438 C 5.65625 13.417969 5.609375 13.5625 5.5625 13.707031 C 5.394531 14.289062 5.3125 14.90625 5.332031 15.527344 C 5.347656 16.152344 5.46875 16.777344 5.695312 17.375 C 5.921875 17.96875 6.257812 18.527344 6.675781 19.011719 C 6.785156 19.128906 6.894531 19.25 7.003906 19.363281 L 7.363281 19.683594 C 7.417969 19.734375 7.488281 19.78125 7.550781 19.832031 C 7.617188 19.878906 7.679688 19.933594 7.746094 19.976562 C 7.878906 20.0625 8.011719 20.15625 8.148438 20.234375 C 8.421875 20.398438 8.714844 20.53125 9.007812 20.652344 C 9.308594 20.765625 9.613281 20.867188 9.9375 20.933594 C 10.253906 21.007812 10.589844 21.042969 10.925781 21.058594 C 11.269531 21.0625 11.617188 21.046875 11.972656 20.972656 C 12.148438 20.941406 12.324219 20.886719 12.5 20.832031 L 12.566406 20.8125 L 12.628906 20.785156 L 12.757812 20.730469 C 12.84375 20.695312 12.933594 20.664062 13.015625 20.617188 C 13.179688 20.527344 13.347656 20.441406 13.503906 20.332031 C 13.582031 20.277344 13.652344 20.21875 13.730469 20.164062 C 13.800781 20.105469 13.871094 20.046875 13.9375 19.984375 C 14.207031 19.738281 14.4375 19.46875 14.632812 19.199219 C 14.828125 18.925781 14.992188 18.652344 15.136719 18.386719 C 15.210938 18.25 15.277344 18.117188 15.34375 17.984375 L 15.433594 17.800781 L 15.515625 17.636719 C 15.625 17.410156 15.746094 17.195312 15.859375 16.976562 C 16.101562 16.546875 16.351562 16.132812 16.621094 15.738281 C 16.890625 15.351562 17.179688 14.984375 17.484375 14.648438 C 17.519531 14.613281 17.554688 14.578125 17.589844 14.542969 C 17.851562 15.019531 18.089844 15.511719 18.308594 16.015625 C 18.515625 16.496094 18.703125 16.984375 18.871094 17.480469 C 19.039062 17.980469 19.191406 18.480469 19.328125 18.992188 C 19.359375 19.101562 19.386719 19.214844 19.417969 19.328125 C 19.449219 19.453125 19.628906 19.414062 19.609375 19.289062 C 19.585938 19.171875 19.566406 19.058594 19.542969 18.941406 C 19.441406 18.421875 19.324219 17.902344 19.1875 17.386719 C 19.050781 16.871094 18.894531 16.363281 18.71875 15.855469 C 18.515625 15.273438 18.277344 14.695312 18.007812 14.132812 C 18.160156 13.996094 18.3125 13.867188 18.46875 13.742188 C 18.820312 13.480469 19.1875 13.25 19.570312 13.054688 L 19.867188 12.917969 C 19.914062 12.894531 19.960938 12.871094 20.011719 12.851562 L 20.164062 12.796875 L 20.316406 12.738281 C 20.367188 12.71875 20.414062 12.699219 20.472656 12.679688 C 20.582031 12.640625 20.695312 12.605469 20.804688 12.570312 C 21.253906 12.433594 21.707031 12.316406 22.167969 12.230469 C 23.035156 12.0625 23.917969 11.996094 24.773438 12.027344 L 24.773438 8.523438 C 23.625 8.558594 22.503906 8.734375 21.421875 9.019531 " fill-opacity="1" fill-rule="nonzero"/><path fill="#00a8de" d="M 19.863281 8.410156 C 21.523438 8.410156 22.871094 7.066406 22.871094 5.410156 C 22.871094 3.75 21.523438 2.410156 19.863281 2.410156 C 18.203125 2.410156 16.855469 3.75 16.855469 5.410156 C 16.855469 7.066406 18.203125 8.410156 19.863281 8.410156 " fill-opacity="1" fill-rule="nonzero"/><g fill="#14520c" fill-opacity="1"><g transform="translate(13.220835, 26.686118)"><g><path d="M 0.25 -0.515625 C 0.164062 -0.617188 0.125 -0.710938 0.125 -0.796875 C 0.125 -0.878906 0.195312 -0.992188 0.34375 -1.140625 C 0.425781 -1.210938 0.515625 -1.25 0.609375 -1.25 C 0.703125 -1.25 0.828125 -1.164062 0.984375 -1 C 1.035156 -0.945312 1.101562 -0.894531 1.1875 -0.84375 C 1.28125 -0.789062 1.363281 -0.765625 1.4375 -0.765625 C 1.738281 -0.765625 1.890625 -0.890625 1.890625 -1.140625 C 1.890625 -1.222656 1.847656 -1.289062 1.765625 -1.34375 C 1.679688 -1.394531 1.578125 -1.429688 1.453125 -1.453125 C 1.328125 -1.472656 1.191406 -1.507812 1.046875 -1.5625 C 0.898438 -1.613281 0.757812 -1.671875 0.625 -1.734375 C 0.5 -1.804688 0.394531 -1.914062 0.3125 -2.0625 C 0.226562 -2.21875 0.1875 -2.40625 0.1875 -2.625 C 0.1875 -2.914062 0.296875 -3.171875 0.515625 -3.390625 C 0.734375 -3.609375 1.03125 -3.71875 1.40625 -3.71875 C 1.601562 -3.71875 1.785156 -3.691406 1.953125 -3.640625 C 2.117188 -3.585938 2.234375 -3.535156 2.296875 -3.484375 L 2.421875 -3.390625 C 2.523438 -3.285156 2.578125 -3.203125 2.578125 -3.140625 C 2.578125 -3.078125 2.535156 -2.984375 2.453125 -2.859375 C 2.335938 -2.691406 2.222656 -2.609375 2.109375 -2.609375 C 2.035156 -2.609375 1.945312 -2.644531 1.84375 -2.71875 C 1.832031 -2.71875 1.8125 -2.734375 1.78125 -2.765625 C 1.757812 -2.796875 1.734375 -2.816406 1.703125 -2.828125 C 1.640625 -2.867188 1.550781 -2.890625 1.4375 -2.890625 C 1.332031 -2.890625 1.242188 -2.863281 1.171875 -2.8125 C 1.097656 -2.757812 1.0625 -2.6875 1.0625 -2.59375 C 1.0625 -2.507812 1.101562 -2.4375 1.1875 -2.375 C 1.28125 -2.320312 1.390625 -2.285156 1.515625 -2.265625 C 1.640625 -2.242188 1.773438 -2.210938 1.921875 -2.171875 C 2.066406 -2.128906 2.203125 -2.078125 2.328125 -2.015625 C 2.460938 -1.960938 2.570312 -1.859375 2.65625 -1.703125 C 2.738281 -1.554688 2.78125 -1.375 2.78125 -1.15625 C 2.78125 -0.945312 2.734375 -0.757812 2.640625 -0.59375 C 2.554688 -0.425781 2.445312 -0.300781 2.3125 -0.21875 C 2.039062 -0.0390625 1.753906 0.046875 1.453125 0.046875 C 1.296875 0.046875 1.144531 0.03125 1 0 C 0.863281 -0.0390625 0.753906 -0.09375 0.671875 -0.15625 C 0.492188 -0.257812 0.367188 -0.359375 0.296875 -0.453125 Z M 0.25 -0.515625 "/></g></g></g><g fill="#14520c" fill-opacity="1"><g transform="translate(16.125348, 26.686118)"><g><path d="M 1.90625 -2.34375 C 1.925781 -2.53125 2.054688 -2.625 2.296875 -2.625 C 2.429688 -2.625 2.53125 -2.613281 2.59375 -2.59375 C 2.65625 -2.570312 2.695312 -2.535156 2.71875 -2.484375 C 2.738281 -2.441406 2.75 -2.398438 2.75 -2.359375 C 2.757812 -2.316406 2.765625 -2.257812 2.765625 -2.1875 L 2.765625 -0.4375 C 2.765625 -0.363281 2.757812 -0.304688 2.75 -0.265625 C 2.75 -0.234375 2.738281 -0.191406 2.71875 -0.140625 C 2.675781 -0.0546875 2.5625 -0.015625 2.375 -0.015625 C 2.195312 -0.015625 2.078125 -0.0351562 2.015625 -0.078125 C 1.953125 -0.117188 1.914062 -0.1875 1.90625 -0.28125 C 1.78125 -0.101562 1.570312 -0.015625 1.28125 -0.015625 C 1 -0.015625 0.734375 -0.144531 0.484375 -0.40625 C 0.242188 -0.664062 0.125 -0.96875 0.125 -1.3125 C 0.125 -1.664062 0.25 -1.972656 0.5 -2.234375 C 0.75 -2.492188 1.019531 -2.625 1.3125 -2.625 C 1.425781 -2.625 1.53125 -2.601562 1.625 -2.5625 C 1.71875 -2.519531 1.78125 -2.476562 1.8125 -2.4375 C 1.851562 -2.40625 1.882812 -2.375 1.90625 -2.34375 Z M 1 -1.296875 C 1 -1.191406 1.039062 -1.09375 1.125 -1 C 1.207031 -0.914062 1.3125 -0.875 1.4375 -0.875 C 1.5625 -0.875 1.664062 -0.921875 1.75 -1.015625 C 1.832031 -1.109375 1.875 -1.207031 1.875 -1.3125 C 1.875 -1.414062 1.832031 -1.515625 1.75 -1.609375 C 1.675781 -1.703125 1.570312 -1.75 1.4375 -1.75 C 1.300781 -1.75 1.191406 -1.703125 1.109375 -1.609375 C 1.035156 -1.515625 1 -1.410156 1 -1.296875 Z M 1 -1.296875 "/></g></g></g><g fill="#14520c" fill-opacity="1"><g transform="translate(19.094629, 26.686118)"><g><path d="M 1.65625 -2.625 C 1.988281 -2.625 2.265625 -2.492188 2.484375 -2.234375 C 2.710938 -1.984375 2.828125 -1.675781 2.828125 -1.3125 L 2.828125 -0.4375 C 2.828125 -0.363281 2.820312 -0.304688 2.8125 -0.265625 C 2.8125 -0.222656 2.796875 -0.179688 2.765625 -0.140625 C 2.722656 -0.046875 2.59375 0 2.375 0 C 2.144531 0 2.007812 -0.0625 1.96875 -0.1875 C 1.945312 -0.25 1.9375 -0.332031 1.9375 -0.4375 L 1.9375 -1.328125 C 1.9375 -1.460938 1.894531 -1.566406 1.8125 -1.640625 C 1.738281 -1.710938 1.632812 -1.75 1.5 -1.75 C 1.375 -1.75 1.269531 -1.707031 1.1875 -1.625 C 1.113281 -1.550781 1.078125 -1.453125 1.078125 -1.328125 L 1.078125 -0.4375 C 1.078125 -0.363281 1.070312 -0.304688 1.0625 -0.265625 C 1.0625 -0.222656 1.046875 -0.179688 1.015625 -0.140625 C 0.972656 -0.046875 0.847656 0 0.640625 0 C 0.421875 0 0.289062 -0.046875 0.25 -0.140625 C 0.226562 -0.191406 0.210938 -0.234375 0.203125 -0.265625 C 0.203125 -0.304688 0.203125 -0.363281 0.203125 -0.4375 L 0.203125 -2.203125 C 0.203125 -2.273438 0.203125 -2.332031 0.203125 -2.375 C 0.210938 -2.414062 0.226562 -2.457031 0.25 -2.5 C 0.300781 -2.582031 0.429688 -2.625 0.640625 -2.625 C 0.835938 -2.625 0.960938 -2.585938 1.015625 -2.515625 C 1.046875 -2.453125 1.0625 -2.382812 1.0625 -2.3125 C 1.070312 -2.332031 1.097656 -2.363281 1.140625 -2.40625 C 1.191406 -2.445312 1.238281 -2.484375 1.28125 -2.515625 C 1.394531 -2.585938 1.519531 -2.625 1.65625 -2.625 Z M 1.65625 -2.625 "/></g></g></g><g fill="#14520c" fill-opacity="1"><g transform="translate(22.113728, 26.686118)"><g/></g></g><g fill="#14520c" fill-opacity="1"><g transform="translate(23.374179, 26.686118)"><g><path d="M 1.078125 -0.734375 L 2.4375 -0.734375 C 2.550781 -0.734375 2.628906 -0.71875 2.671875 -0.6875 C 2.722656 -0.664062 2.753906 -0.628906 2.765625 -0.578125 C 2.785156 -0.523438 2.796875 -0.453125 2.796875 -0.359375 C 2.796875 -0.273438 2.785156 -0.207031 2.765625 -0.15625 C 2.753906 -0.101562 2.726562 -0.0664062 2.6875 -0.046875 C 2.625 -0.015625 2.539062 0 2.4375 0 L 0.640625 0 C 0.410156 0 0.273438 -0.0625 0.234375 -0.1875 C 0.210938 -0.238281 0.203125 -0.320312 0.203125 -0.4375 L 0.203125 -3.21875 C 0.203125 -3.289062 0.203125 -3.34375 0.203125 -3.375 C 0.210938 -3.414062 0.226562 -3.460938 0.25 -3.515625 C 0.300781 -3.609375 0.429688 -3.65625 0.640625 -3.65625 C 0.867188 -3.65625 1.007812 -3.59375 1.0625 -3.46875 C 1.070312 -3.414062 1.078125 -3.328125 1.078125 -3.203125 Z M 1.078125 -0.734375 "/></g></g></g><g fill="#14520c" fill-opacity="1"><g transform="translate(26.298622, 26.686118)"><g><path d="M 0.125 -1.3125 C 0.125 -1.707031 0.265625 -2.035156 0.546875 -2.296875 C 0.828125 -2.554688 1.144531 -2.6875 1.5 -2.6875 C 1.851562 -2.6875 2.164062 -2.554688 2.4375 -2.296875 C 2.71875 -2.035156 2.859375 -1.707031 2.859375 -1.3125 C 2.859375 -1.039062 2.785156 -0.796875 2.640625 -0.578125 C 2.503906 -0.367188 2.332031 -0.210938 2.125 -0.109375 C 1.925781 -0.00390625 1.71875 0.046875 1.5 0.046875 C 1.28125 0.046875 1.066406 -0.00390625 0.859375 -0.109375 C 0.648438 -0.222656 0.472656 -0.382812 0.328125 -0.59375 C 0.191406 -0.800781 0.125 -1.039062 0.125 -1.3125 Z M 1.15625 -0.953125 C 1.269531 -0.867188 1.378906 -0.828125 1.484375 -0.828125 C 1.597656 -0.828125 1.707031 -0.867188 1.8125 -0.953125 C 1.925781 -1.035156 1.984375 -1.15625 1.984375 -1.3125 C 1.984375 -1.476562 1.929688 -1.601562 1.828125 -1.6875 C 1.722656 -1.769531 1.609375 -1.8125 1.484375 -1.8125 C 1.367188 -1.8125 1.257812 -1.769531 1.15625 -1.6875 C 1.050781 -1.601562 1 -1.476562 1 -1.3125 C 1 -1.15625 1.050781 -1.035156 1.15625 -0.953125 Z M 1.15625 -0.953125 "/></g></g></g><g fill="#14520c" fill-opacity="1"><g transform="translate(29.287833, 26.686118)"><g><path d="M 1.984375 -2.59375 C 2.046875 -2.570312 2.097656 -2.535156 2.140625 -2.484375 C 2.179688 -2.441406 2.203125 -2.367188 2.203125 -2.265625 C 2.203125 -2.160156 2.171875 -2.039062 2.109375 -1.90625 C 2.046875 -1.78125 1.953125 -1.71875 1.828125 -1.71875 C 1.773438 -1.71875 1.71875 -1.726562 1.65625 -1.75 C 1.601562 -1.78125 1.53125 -1.796875 1.4375 -1.796875 C 1.351562 -1.796875 1.269531 -1.765625 1.1875 -1.703125 C 1.113281 -1.640625 1.078125 -1.566406 1.078125 -1.484375 L 1.078125 -0.4375 C 1.078125 -0.351562 1.070312 -0.289062 1.0625 -0.25 C 1.0625 -0.21875 1.046875 -0.175781 1.015625 -0.125 C 0.972656 -0.0390625 0.847656 0 0.640625 0 C 0.472656 0 0.359375 -0.0234375 0.296875 -0.078125 C 0.234375 -0.128906 0.203125 -0.203125 0.203125 -0.296875 C 0.203125 -0.328125 0.203125 -0.375 0.203125 -0.4375 L 0.203125 -2.1875 C 0.203125 -2.269531 0.203125 -2.328125 0.203125 -2.359375 C 0.210938 -2.398438 0.226562 -2.445312 0.25 -2.5 C 0.289062 -2.582031 0.421875 -2.625 0.640625 -2.625 C 0.835938 -2.625 0.960938 -2.585938 1.015625 -2.515625 C 1.046875 -2.460938 1.0625 -2.40625 1.0625 -2.34375 C 1.082031 -2.363281 1.109375 -2.390625 1.140625 -2.421875 C 1.171875 -2.460938 1.238281 -2.507812 1.34375 -2.5625 C 1.445312 -2.625 1.535156 -2.65625 1.609375 -2.65625 C 1.691406 -2.65625 1.757812 -2.648438 1.8125 -2.640625 C 1.863281 -2.628906 1.921875 -2.613281 1.984375 -2.59375 Z M 1.984375 -2.59375 "/></g></g></g><g fill="#14520c" fill-opacity="1"><g transform="translate(31.564613, 26.686118)"><g><path d="M 2.734375 -1.625 C 2.734375 -1.425781 2.679688 -1.273438 2.578125 -1.171875 C 2.472656 -1.078125 2.363281 -1.03125 2.25 -1.03125 L 1.0625 -1.03125 C 1.0625 -0.9375 1.113281 -0.859375 1.21875 -0.796875 C 1.332031 -0.734375 1.445312 -0.703125 1.5625 -0.703125 C 1.75 -0.703125 1.898438 -0.71875 2.015625 -0.75 L 2.0625 -0.78125 C 2.144531 -0.8125 2.210938 -0.828125 2.265625 -0.828125 C 2.367188 -0.828125 2.457031 -0.753906 2.53125 -0.609375 C 2.582031 -0.515625 2.609375 -0.4375 2.609375 -0.375 C 2.609375 -0.0820312 2.253906 0.0625 1.546875 0.0625 C 1.296875 0.0625 1.070312 0.0195312 0.875 -0.0625 C 0.6875 -0.144531 0.539062 -0.257812 0.4375 -0.40625 C 0.226562 -0.664062 0.125 -0.960938 0.125 -1.296875 C 0.125 -1.710938 0.257812 -2.046875 0.53125 -2.296875 C 0.800781 -2.554688 1.140625 -2.6875 1.546875 -2.6875 C 2.003906 -2.6875 2.34375 -2.519531 2.5625 -2.1875 C 2.675781 -2.019531 2.734375 -1.832031 2.734375 -1.625 Z M 1.6875 -1.484375 C 1.8125 -1.484375 1.875 -1.535156 1.875 -1.640625 C 1.875 -1.710938 1.84375 -1.769531 1.78125 -1.8125 C 1.71875 -1.863281 1.632812 -1.890625 1.53125 -1.890625 C 1.425781 -1.890625 1.316406 -1.84375 1.203125 -1.75 C 1.097656 -1.664062 1.046875 -1.578125 1.046875 -1.484375 Z M 1.6875 -1.484375 "/></g></g></g><g fill="#14520c" fill-opacity="1"><g transform="translate(34.419308, 26.686118)"><g><path d="M 1.65625 -2.625 C 1.988281 -2.625 2.265625 -2.492188 2.484375 -2.234375 C 2.710938 -1.984375 2.828125 -1.675781 2.828125 -1.3125 L 2.828125 -0.4375 C 2.828125 -0.363281 2.820312 -0.304688 2.8125 -0.265625 C 2.8125 -0.222656 2.796875 -0.179688 2.765625 -0.140625 C 2.722656 -0.046875 2.59375 0 2.375 0 C 2.144531 0 2.007812 -0.0625 1.96875 -0.1875 C 1.945312 -0.25 1.9375 -0.332031 1.9375 -0.4375 L 1.9375 -1.328125 C 1.9375 -1.460938 1.894531 -1.566406 1.8125 -1.640625 C 1.738281 -1.710938 1.632812 -1.75 1.5 -1.75 C 1.375 -1.75 1.269531 -1.707031 1.1875 -1.625 C 1.113281 -1.550781 1.078125 -1.453125 1.078125 -1.328125 L 1.078125 -0.4375 C 1.078125 -0.363281 1.070312 -0.304688 1.0625 -0.265625 C 1.0625 -0.222656 1.046875 -0.179688 1.015625 -0.140625 C 0.972656 -0.046875 0.847656 0 0.640625 0 C 0.421875 0 0.289062 -0.046875 0.25 -0.140625 C 0.226562 -0.191406 0.210938 -0.234375 0.203125 -0.265625 C 0.203125 -0.304688 0.203125 -0.363281 0.203125 -0.4375 L 0.203125 -2.203125 C 0.203125 -2.273438 0.203125 -2.332031 0.203125 -2.375 C 0.210938 -2.414062 0.226562 -2.457031 0.25 -2.5 C 0.300781 -2.582031 0.429688 -2.625 0.640625 -2.625 C 0.835938 -2.625 0.960938 -2.585938 1.015625 -2.515625 C 1.046875 -2.453125 1.0625 -2.382812 1.0625 -2.3125 C 1.070312 -2.332031 1.097656 -2.363281 1.140625 -2.40625 C 1.191406 -2.445312 1.238281 -2.484375 1.28125 -2.515625 C 1.394531 -2.585938 1.519531 -2.625 1.65625 -2.625 Z M 1.65625 -2.625 "/></g></g></g><g fill="#14520c" fill-opacity="1"><g transform="translate(37.438407, 26.686118)"><g><path d="M 1.515625 -0.875 L 2.359375 -0.875 C 2.492188 -0.875 2.585938 -0.859375 2.640625 -0.828125 C 2.703125 -0.796875 2.742188 -0.75 2.765625 -0.6875 C 2.785156 -0.625 2.796875 -0.539062 2.796875 -0.4375 C 2.796875 -0.332031 2.785156 -0.25 2.765625 -0.1875 C 2.742188 -0.125 2.707031 -0.078125 2.65625 -0.046875 C 2.613281 -0.0234375 2.570312 -0.0078125 2.53125 0 C 2.488281 0 2.429688 0 2.359375 0 L 0.5625 0 C 0.445312 0 0.34375 -0.0390625 0.25 -0.125 C 0.164062 -0.21875 0.125 -0.320312 0.125 -0.4375 C 0.125 -0.5625 0.164062 -0.664062 0.25 -0.75 C 0.34375 -0.832031 0.476562 -0.953125 0.65625 -1.109375 C 0.832031 -1.265625 0.992188 -1.40625 1.140625 -1.53125 C 1.285156 -1.664062 1.363281 -1.738281 1.375 -1.75 L 0.671875 -1.75 C 0.484375 -1.75 0.363281 -1.78125 0.3125 -1.84375 C 0.257812 -1.914062 0.234375 -2.007812 0.234375 -2.125 C 0.234375 -2.25 0.238281 -2.34375 0.25 -2.40625 C 0.269531 -2.46875 0.289062 -2.507812 0.3125 -2.53125 C 0.34375 -2.5625 0.378906 -2.585938 0.421875 -2.609375 C 0.472656 -2.617188 0.554688 -2.625 0.671875 -2.625 L 2.296875 -2.625 C 2.410156 -2.625 2.507812 -2.582031 2.59375 -2.5 C 2.6875 -2.414062 2.734375 -2.3125 2.734375 -2.1875 C 2.734375 -2.0625 2.679688 -1.953125 2.578125 -1.859375 C 2.484375 -1.765625 2.128906 -1.4375 1.515625 -0.875 Z M 1.515625 -0.875 "/></g></g></g><g fill="#14520c" fill-opacity="1"><g transform="translate(40.357864, 26.686118)"><g><path d="M 0.125 -1.3125 C 0.125 -1.707031 0.265625 -2.035156 0.546875 -2.296875 C 0.828125 -2.554688 1.144531 -2.6875 1.5 -2.6875 C 1.851562 -2.6875 2.164062 -2.554688 2.4375 -2.296875 C 2.71875 -2.035156 2.859375 -1.707031 2.859375 -1.3125 C 2.859375 -1.039062 2.785156 -0.796875 2.640625 -0.578125 C 2.503906 -0.367188 2.332031 -0.210938 2.125 -0.109375 C 1.925781 -0.00390625 1.71875 0.046875 1.5 0.046875 C 1.28125 0.046875 1.066406 -0.00390625 0.859375 -0.109375 C 0.648438 -0.222656 0.472656 -0.382812 0.328125 -0.59375 C 0.191406 -0.800781 0.125 -1.039062 0.125 -1.3125 Z M 1.15625 -0.953125 C 1.269531 -0.867188 1.378906 -0.828125 1.484375 -0.828125 C 1.597656 -0.828125 1.707031 -0.867188 1.8125 -0.953125 C 1.925781 -1.035156 1.984375 -1.15625 1.984375 -1.3125 C 1.984375 -1.476562 1.929688 -1.601562 1.828125 -1.6875 C 1.722656 -1.769531 1.609375 -1.8125 1.484375 -1.8125 C 1.367188 -1.8125 1.257812 -1.769531 1.15625 -1.6875 C 1.050781 -1.601562 1 -1.476562 1 -1.3125 C 1 -1.15625 1.050781 -1.035156 1.15625 -0.953125 Z M 1.15625 -0.953125 "/></g></g></g><g fill="#14520c" fill-opacity="1"><g transform="translate(21.199784, 33.328755)"><g><path d="M 0.25 -0.515625 C 0.164062 -0.617188 0.125 -0.710938 0.125 -0.796875 C 0.125 -0.878906 0.195312 -0.992188 0.34375 -1.140625 C 0.425781 -1.210938 0.515625 -1.25 0.609375 -1.25 C 0.703125 -1.25 0.828125 -1.164062 0.984375 -1 C 1.035156 -0.945312 1.101562 -0.894531 1.1875 -0.84375 C 1.28125 -0.789062 1.363281 -0.765625 1.4375 -0.765625 C 1.738281 -0.765625 1.890625 -0.890625 1.890625 -1.140625 C 1.890625 -1.222656 1.847656 -1.289062 1.765625 -1.34375 C 1.679688 -1.394531 1.578125 -1.429688 1.453125 -1.453125 C 1.328125 -1.472656 1.191406 -1.507812 1.046875 -1.5625 C 0.898438 -1.613281 0.757812 -1.671875 0.625 -1.734375 C 0.5 -1.804688 0.394531 -1.914062 0.3125 -2.0625 C 0.226562 -2.21875 0.1875 -2.40625 0.1875 -2.625 C 0.1875 -2.914062 0.296875 -3.171875 0.515625 -3.390625 C 0.734375 -3.609375 1.03125 -3.71875 1.40625 -3.71875 C 1.601562 -3.71875 1.785156 -3.691406 1.953125 -3.640625 C 2.117188 -3.585938 2.234375 -3.535156 2.296875 -3.484375 L 2.421875 -3.390625 C 2.523438 -3.285156 2.578125 -3.203125 2.578125 -3.140625 C 2.578125 -3.078125 2.535156 -2.984375 2.453125 -2.859375 C 2.335938 -2.691406 2.222656 -2.609375 2.109375 -2.609375 C 2.035156 -2.609375 1.945312 -2.644531 1.84375 -2.71875 C 1.832031 -2.71875 1.8125 -2.734375 1.78125 -2.765625 C 1.757812 -2.796875 1.734375 -2.816406 1.703125 -2.828125 C 1.640625 -2.867188 1.550781 -2.890625 1.4375 -2.890625 C 1.332031 -2.890625 1.242188 -2.863281 1.171875 -2.8125 C 1.097656 -2.757812 1.0625 -2.6875 1.0625 -2.59375 C 1.0625 -2.507812 1.101562 -2.4375 1.1875 -2.375 C 1.28125 -2.320312 1.390625 -2.285156 1.515625 -2.265625 C 1.640625 -2.242188 1.773438 -2.210938 1.921875 -2.171875 C 2.066406 -2.128906 2.203125 -2.078125 2.328125 -2.015625 C 2.460938 -1.960938 2.570312 -1.859375 2.65625 -1.703125 C 2.738281 -1.554688 2.78125 -1.375 2.78125 -1.15625 C 2.78125 -0.945312 2.734375 -0.757812 2.640625 -0.59375 C 2.554688 -0.425781 2.445312 -0.300781 2.3125 -0.21875 C 2.039062 -0.0390625 1.753906 0.046875 1.453125 0.046875 C 1.296875 0.046875 1.144531 0.03125 1 0 C 0.863281 -0.0390625 0.753906 -0.09375 0.671875 -0.15625 C 0.492188 -0.257812 0.367188 -0.359375 0.296875 -0.453125 Z M 0.25 -0.515625 "/></g></g></g><g fill="#14520c" fill-opacity="1"><g transform="translate(24.104297, 33.328755)"><g><path d="M 0.125 -1.3125 C 0.125 -1.707031 0.265625 -2.035156 0.546875 -2.296875 C 0.828125 -2.554688 1.144531 -2.6875 1.5 -2.6875 C 1.851562 -2.6875 2.164062 -2.554688 2.4375 -2.296875 C 2.71875 -2.035156 2.859375 -1.707031 2.859375 -1.3125 C 2.859375 -1.039062 2.785156 -0.796875 2.640625 -0.578125 C 2.503906 -0.367188 2.332031 -0.210938 2.125 -0.109375 C 1.925781 -0.00390625 1.71875 0.046875 1.5 0.046875 C 1.28125 0.046875 1.066406 -0.00390625 0.859375 -0.109375 C 0.648438 -0.222656 0.472656 -0.382812 0.328125 -0.59375 C 0.191406 -0.800781 0.125 -1.039062 0.125 -1.3125 Z M 1.15625 -0.953125 C 1.269531 -0.867188 1.378906 -0.828125 1.484375 -0.828125 C 1.597656 -0.828125 1.707031 -0.867188 1.8125 -0.953125 C 1.925781 -1.035156 1.984375 -1.15625 1.984375 -1.3125 C 1.984375 -1.476562 1.929688 -1.601562 1.828125 -1.6875 C 1.722656 -1.769531 1.609375 -1.8125 1.484375 -1.8125 C 1.367188 -1.8125 1.257812 -1.769531 1.15625 -1.6875 C 1.050781 -1.601562 1 -1.476562 1 -1.3125 C 1 -1.15625 1.050781 -1.035156 1.15625 -0.953125 Z M 1.15625 -0.953125 "/></g></g></g><g fill="#14520c" fill-opacity="1"><g transform="translate(27.093508, 33.328755)"><g><path d="M 1.359375 -0.015625 C 1.023438 -0.015625 0.75 -0.140625 0.53125 -0.390625 C 0.3125 -0.640625 0.203125 -0.953125 0.203125 -1.328125 L 0.203125 -2.1875 C 0.203125 -2.269531 0.203125 -2.328125 0.203125 -2.359375 C 0.210938 -2.398438 0.226562 -2.445312 0.25 -2.5 C 0.289062 -2.582031 0.421875 -2.625 0.640625 -2.625 C 0.867188 -2.625 1.003906 -2.5625 1.046875 -2.4375 C 1.066406 -2.382812 1.078125 -2.300781 1.078125 -2.1875 L 1.078125 -1.3125 C 1.078125 -1.175781 1.113281 -1.066406 1.1875 -0.984375 C 1.269531 -0.910156 1.375 -0.875 1.5 -0.875 C 1.632812 -0.875 1.742188 -0.914062 1.828125 -1 C 1.910156 -1.082031 1.953125 -1.1875 1.953125 -1.3125 L 1.953125 -2.203125 C 1.953125 -2.273438 1.953125 -2.328125 1.953125 -2.359375 C 1.960938 -2.398438 1.976562 -2.445312 2 -2.5 C 2.039062 -2.582031 2.171875 -2.625 2.390625 -2.625 C 2.597656 -2.625 2.722656 -2.582031 2.765625 -2.5 C 2.796875 -2.445312 2.8125 -2.398438 2.8125 -2.359375 C 2.820312 -2.328125 2.828125 -2.269531 2.828125 -2.1875 L 2.828125 -0.421875 C 2.828125 -0.347656 2.820312 -0.289062 2.8125 -0.25 C 2.8125 -0.21875 2.796875 -0.179688 2.765625 -0.140625 C 2.710938 -0.046875 2.582031 0 2.375 0 C 2.175781 0 2.054688 -0.0390625 2.015625 -0.125 C 1.972656 -0.175781 1.953125 -0.242188 1.953125 -0.328125 C 1.941406 -0.304688 1.910156 -0.273438 1.859375 -0.234375 C 1.816406 -0.191406 1.773438 -0.15625 1.734375 -0.125 C 1.617188 -0.0507812 1.492188 -0.015625 1.359375 -0.015625 Z M 1.359375 -0.015625 "/></g></g></g><g fill="#14520c" fill-opacity="1"><g transform="translate(30.112607, 33.328755)"><g><path d="M 1.71875 -1.75 L 1.40625 -1.765625 L 1.40625 -1.078125 C 1.40625 -0.984375 1.414062 -0.914062 1.4375 -0.875 C 1.46875 -0.84375 1.519531 -0.828125 1.59375 -0.828125 C 1.675781 -0.828125 1.738281 -0.820312 1.78125 -0.8125 C 1.820312 -0.8125 1.863281 -0.796875 1.90625 -0.765625 C 1.988281 -0.722656 2.03125 -0.613281 2.03125 -0.4375 C 2.03125 -0.226562 1.984375 -0.0976562 1.890625 -0.046875 C 1.835938 -0.0234375 1.789062 -0.0078125 1.75 0 C 1.71875 0 1.664062 0 1.59375 0 C 1.25 0 0.984375 -0.078125 0.796875 -0.234375 C 0.617188 -0.390625 0.53125 -0.65625 0.53125 -1.03125 L 0.53125 -1.765625 C 0.46875 -1.753906 0.398438 -1.75 0.328125 -1.75 C 0.253906 -1.75 0.191406 -1.773438 0.140625 -1.828125 C 0.0976562 -1.890625 0.078125 -1.988281 0.078125 -2.125 C 0.078125 -2.257812 0.0820312 -2.359375 0.09375 -2.421875 C 0.113281 -2.484375 0.140625 -2.523438 0.171875 -2.546875 C 0.222656 -2.585938 0.289062 -2.609375 0.375 -2.609375 L 0.53125 -2.59375 L 0.53125 -3.109375 C 0.53125 -3.179688 0.53125 -3.234375 0.53125 -3.265625 C 0.539062 -3.304688 0.5625 -3.351562 0.59375 -3.40625 C 0.632812 -3.488281 0.757812 -3.53125 0.96875 -3.53125 C 1.195312 -3.53125 1.332031 -3.46875 1.375 -3.34375 C 1.394531 -3.289062 1.40625 -3.203125 1.40625 -3.078125 L 1.40625 -2.59375 C 1.550781 -2.601562 1.660156 -2.609375 1.734375 -2.609375 C 1.804688 -2.609375 1.859375 -2.609375 1.890625 -2.609375 C 1.929688 -2.609375 1.976562 -2.59375 2.03125 -2.5625 C 2.113281 -2.519531 2.15625 -2.390625 2.15625 -2.171875 C 2.15625 -1.960938 2.113281 -1.835938 2.03125 -1.796875 C 1.976562 -1.773438 1.929688 -1.757812 1.890625 -1.75 C 1.859375 -1.75 1.800781 -1.75 1.71875 -1.75 Z M 1.71875 -1.75 "/></g></g></g><g fill="#14520c" fill-opacity="1"><g transform="translate(32.349528, 33.328755)"><g><path d="M 1.65625 -2.609375 C 1.988281 -2.609375 2.265625 -2.484375 2.484375 -2.234375 C 2.703125 -1.984375 2.8125 -1.675781 2.8125 -1.3125 L 2.8125 -0.4375 C 2.8125 -0.351562 2.804688 -0.289062 2.796875 -0.25 C 2.796875 -0.21875 2.785156 -0.175781 2.765625 -0.125 C 2.722656 -0.0390625 2.59375 0 2.375 0 C 2.175781 0 2.050781 -0.0390625 2 -0.125 C 1.96875 -0.175781 1.945312 -0.222656 1.9375 -0.265625 C 1.9375 -0.304688 1.9375 -0.363281 1.9375 -0.4375 L 1.9375 -1.3125 C 1.9375 -1.445312 1.898438 -1.550781 1.828125 -1.625 C 1.753906 -1.707031 1.65625 -1.75 1.53125 -1.75 C 1.414062 -1.75 1.3125 -1.710938 1.21875 -1.640625 C 1.132812 -1.566406 1.085938 -1.488281 1.078125 -1.40625 L 1.078125 -0.4375 C 1.078125 -0.351562 1.070312 -0.289062 1.0625 -0.25 C 1.0625 -0.21875 1.046875 -0.175781 1.015625 -0.125 C 0.972656 -0.0390625 0.847656 0 0.640625 0 C 0.421875 0 0.289062 -0.046875 0.25 -0.140625 C 0.226562 -0.179688 0.210938 -0.21875 0.203125 -0.25 C 0.203125 -0.289062 0.203125 -0.351562 0.203125 -0.4375 L 0.203125 -3.421875 C 0.203125 -3.492188 0.203125 -3.550781 0.203125 -3.59375 C 0.210938 -3.632812 0.226562 -3.675781 0.25 -3.71875 C 0.289062 -3.8125 0.421875 -3.859375 0.640625 -3.859375 C 0.847656 -3.859375 0.972656 -3.8125 1.015625 -3.71875 C 1.046875 -3.664062 1.0625 -3.617188 1.0625 -3.578125 C 1.070312 -3.546875 1.078125 -3.492188 1.078125 -3.421875 L 1.078125 -2.3125 C 1.242188 -2.507812 1.4375 -2.609375 1.65625 -2.609375 Z M 1.65625 -2.609375 "/></g></g></g></svg>